<svg xmlns="http://www.w3.org/2000/svg" xmlns:xlink="http://www.w3.org/1999/xlink" width="115.5" height="137.5" viewBox="0 0 115.5 137.5"><defs><clipPath id="a"><circle cx="57" cy="57" r="57" transform="translate(764 1793)" fill="#f1f1f1"/></clipPath></defs><g transform="translate(-3224 -2128)"><circle cx="57" cy="57" r="57" transform="translate(3224 2128)" fill="#d5d9fb"/><g transform="translate(2461 335.143)"><g clip-path="url(#a)"><g transform="translate(708 1733.002)"><g transform="translate(15.669 30.998)"><path d="M213.9,101.429q-.887-2.032-1.881-3.994C188.567,50.594,126.329,11.057,77.265,41.95a46.473,46.473,0,0,0-21.3,32.393c-3.7,23.341-7.961,48.811-20.039,69.223-6.585,11.12-13.818,24.552-11.431,38.161,3.79,21.6,26.624,31.559,45,34.771,19.564,3.417,38.849-1.242,56.532-10.131,18.557-9.318,34.367-22.236,54.171-28.98,9.225-3.146,19.671-4.717,27.436-11.293C226.755,149.92,223.281,122.471,213.9,101.429Z" transform="translate(-24.029 -30.998)" fill="#7380f3"/><path d="M213.9,101.429q-.887-2.032-1.881-3.994C188.567,50.594,126.329,11.057,77.265,41.95a46.473,46.473,0,0,0-21.3,32.393c-3.7,23.341-7.961,48.811-20.039,69.223-6.585,11.12-13.818,24.552-11.431,38.161,3.79,21.6,26.624,31.559,45,34.771,19.564,3.417,38.849-1.242,56.532-10.131,18.557-9.318,34.367-22.236,54.171-28.98,9.225-3.146,19.671-4.717,27.436-11.293C226.755,149.92,223.281,122.471,213.9,101.429Z" transform="translate(-24.029 -30.998)" fill="#fff" opacity="0.7"/></g><g transform="translate(24.975 41.205)"><path d="M50.777,54H147.5V241.7H45V54h2.875" transform="translate(-45 -54)" fill="none" stroke="#263238" stroke-miterlimit="10" stroke-width="1"/><rect width="31.062" height="179.576" transform="translate(68.335 4.065)" fill="none" stroke="#263238" stroke-miterlimit="10" stroke-width="1"/><rect width="29.287" height="179.576" transform="translate(35.499 4.065)" fill="none" stroke="#263238" stroke-miterlimit="10" stroke-width="1"/><line y1="3.266" transform="translate(31.949 49.641)" fill="none" stroke="#263238" stroke-miterlimit="10" stroke-width="1"/><path d="M80.843,105.839V63.16H52V242.731H80.843V115.987" transform="translate(-48.894 -59.095)" fill="none" stroke="#263238" stroke-miterlimit="10" stroke-width="1"/></g><g transform="translate(14.906 124.867)"><path d="M421.582,256.964s0-2.068-2.9-4.965-4.752-4.548-4.752-4.548-1.447,4.757,1.238,7.65a50.588,50.588,0,0,0,6.412,5.582Z" transform="translate(-239.939 -245.271)" fill="#7380f3"/><path d="M412.141,286.068s0-2.063-2.893-4.961-4.735-4.557-4.735-4.557-1.447,4.757,1.242,7.65a50.78,50.78,0,0,0,6.408,5.582Z" transform="translate(-234.699 -261.458)" fill="#7380f3"/><path d="M430.755,265.978s.217-2.055,3.4-4.628,5.209-4.02,5.209-4.02.936,4.881-2.046,7.477a51.028,51.028,0,0,1-6.962,4.881Z" transform="translate(-249.293 -250.767)" fill="#7380f3"/><path d="M418.831,301.539s.444-2.023,3.869-4.247,5.6-3.452,5.6-3.452.417,4.952-2.818,7.22a50.959,50.959,0,0,1-7.437,4.118Z" transform="translate(-242.446 -271.076)" fill="#7380f3"/><path d="M422,336.734s0-2.068,2.893-4.965,4.757-4.548,4.757-4.548,1.447,4.757-1.242,7.65A50.368,50.368,0,0,1,422,340.435Z" transform="translate(-244.643 -289.644)" fill="#7380f3"/><path d="M412.928,344.633s.293-2.046-2.161-5.325-4.06-5.178-4.06-5.178-2.108,4.5.142,7.748a50.711,50.711,0,0,0,5.551,6.434Z" transform="translate(-235.637 -293.488)" fill="#7380f3"/><path d="M415.42,372.984s0-2.068,2.893-4.965,4.757-4.548,4.757-4.548,1.447,4.757-1.242,7.65a50.368,50.368,0,0,1-6.408,5.582Z" transform="translate(-240.983 -309.809)" fill="#7380f3"/><path d="M419.7,395.518s-.528-1.988,1.54-5.538,3.439-5.6,3.439-5.6,2.6,4.233.741,7.712a50.771,50.771,0,0,1-4.788,7.024Z" transform="translate(-243.332 -321.44)" fill="#7380f3"/><path d="M422.718,267.69a58.759,58.759,0,0,1-.794,6.421c-1.145,5.911-3.994,9.727-5.147,15.065s2.139,12.221,1.26,19.081-3.55,10.65-2.787,15.251,4.908,17.536,4.908,17.536" transform="translate(-240.813 -256.53)" fill="none" stroke="#263238" stroke-linecap="round" stroke-linejoin="round" stroke-width="1"/><line y1="2.396" x2="3.119" transform="translate(181.431 14.191)" fill="none" stroke="#263238" stroke-linecap="round" stroke-linejoin="round" stroke-width="1"/><line x1="1.305" y1="2.325" transform="translate(180.272 11.506)" fill="none" stroke="#263238" stroke-linecap="round" stroke-linejoin="round" stroke-width="1"/><path d="M419.25,310.648s2.609-1.961,5.294-3.918" transform="translate(-243.113 -278.247)" fill="none" stroke="#263238" stroke-linecap="round" stroke-linejoin="round" stroke-width="1"/><path d="M416.372,297.47a41.764,41.764,0,0,0-4.642-7.1" transform="translate(-238.93 -269.146)" fill="none" stroke="#263238" stroke-linecap="round" stroke-linejoin="round" stroke-width="1"/><path d="M422.19,345.918a32.294,32.294,0,0,1,5.587-7.468" transform="translate(-244.749 -295.891)" fill="none" stroke="#263238" stroke-linecap="round" stroke-linejoin="round" stroke-width="1"/><path d="M415.32,351.907a36.634,36.634,0,0,0-2.831-5.365c-1.522-2.25-1.739-2.543-1.739-2.543" transform="translate(-238.385 -298.978)" fill="none" stroke="#263238" stroke-linecap="round" stroke-linejoin="round" stroke-width="1"/><path d="M415.42,382.5a34.816,34.816,0,0,1,2.352-4.757,30.265,30.265,0,0,1,3.048-3.994" transform="translate(-240.983 -315.527)" fill="none" stroke="#263238" stroke-linecap="round" stroke-linejoin="round" stroke-width="1"/><path d="M421.849,404.4a8.875,8.875,0,0,1,.781-4.579c1.087-2.1,2.321-4.859,2.831-5.946" transform="translate(-244.536 -326.719)" fill="none" stroke="#263238" stroke-linecap="round" stroke-linejoin="round" stroke-width="1"/><path d="M388.925,322.614s-.226-1.3,1.278-3.426,2.485-3.368,2.485-3.368,1.424,2.827.053,4.93a32.393,32.393,0,0,1-3.412,4.2Z" transform="translate(-226.238 -283.303)" fill="#7380f3"/><path d="M397.985,339.834s-.226-1.3,1.274-3.426,2.489-3.368,2.489-3.368,1.424,2.827.053,4.93a32.393,32.393,0,0,1-3.412,4.2Z" transform="translate(-231.277 -292.882)" fill="#7380f3"/><path d="M382.111,330.436s-.359-1.265-2.636-2.529-3.705-1.957-3.705-1.957-.058,3.164,2.094,4.464a32.321,32.321,0,0,0,4.881,2.3Z" transform="translate(-218.927 -288.938)" fill="#7380f3"/><path d="M392.506,351.608s-.493-1.22-2.889-2.241-3.887-1.557-3.887-1.557.275,3.155,2.551,4.224a32.508,32.508,0,0,0,5.107,1.775Z" transform="translate(-224.467 -301.098)" fill="#7380f3"/><path d="M396.332,373.664s-.222-1.3-2.352-2.8-3.479-2.339-3.479-2.339-.391,3.142,1.611,4.664a32.608,32.608,0,0,0,4.624,2.8Z" transform="translate(-227.104 -312.624)" fill="#7380f3"/><path d="M404.656,376.724s-.4-1.251.777-3.577,1.984-3.687,1.984-3.687,1.815,2.6.754,4.881a32.075,32.075,0,0,1-2.782,4.637Z" transform="translate(-234.958 -313.141)" fill="#7380f3"/><path d="M412.6,402.548s.151-1.3,2.192-2.924,3.337-2.534,3.337-2.534.568,3.106-1.331,4.748a32.39,32.39,0,0,1-4.46,3.066Z" transform="translate(-239.269 -328.51)" fill="#7380f3"/><path d="M404.372,395.69s-.226-1.3-2.356-2.8-3.474-2.334-3.474-2.334-.391,3.137,1.611,4.659a31.879,31.879,0,0,0,4.624,2.8Z" transform="translate(-231.577 -324.878)" fill="#7380f3"/><path d="M405.679,409.923s.115-1.331-1.566-3.306-2.769-3.137-2.769-3.137-1.176,2.938.373,4.917a32.392,32.392,0,0,0,3.763,3.883Z" transform="translate(-232.915 -332.065)" fill="#7380f3"/><path d="M388.44,330.45a38.415,38.415,0,0,0,1.194,3.94c1.358,3.581,3.55,5.662,4.881,8.875s0,7.894,1.282,12.1,3.386,6.305,3.4,9.256-1.149,11.164-1.149,11.164" transform="translate(-225.975 -291.441)" fill="none" stroke="#263238" stroke-linecap="round" stroke-linejoin="round" stroke-width="1"/><line x1="2.219" y1="1.163" transform="translate(161.134 41.197)" fill="none" stroke="#263238" stroke-linecap="round" stroke-linejoin="round" stroke-width="1"/><line y1="1.597" x2="0.564" transform="translate(162.962 39.049)" fill="none" stroke="#263238" stroke-linecap="round" stroke-linejoin="round" stroke-width="1"/><path d="M397.1,356.691s-1.85-.945-3.745-1.881" transform="translate(-228.706 -304.992)" fill="none" stroke="#263238" stroke-linecap="round" stroke-linejoin="round" stroke-width="1"/><path d="M399,347.4a26.511,26.511,0,0,1,2.139-4.952" transform="translate(-231.849 -298.116)" fill="none" stroke="#263238" stroke-linecap="round" stroke-linejoin="round" stroke-width="1"/><path d="M398.848,379.168a20.573,20.573,0,0,0-4.318-4.078" transform="translate(-229.362 -316.273)" fill="none" stroke="#263238" stroke-linecap="round" stroke-linejoin="round" stroke-width="1"/><path d="M405.68,381.429a23.521,23.521,0,0,1,1.194-3.674c.71-1.575.816-1.775.816-1.775" transform="translate(-235.565 -316.768)" fill="none" stroke="#263238" stroke-linecap="round" stroke-linejoin="round" stroke-width="1"/><path d="M412.42,407.773A19.185,19.185,0,0,1,414.8,405.3a12.716,12.716,0,0,0,1.549-1.331" transform="translate(-239.314 -332.338)" fill="none" stroke="#263238" stroke-linecap="round" stroke-linejoin="round" stroke-width="1"/><path d="M407.215,401.349a22.107,22.107,0,0,0-1.992-2.725,19.3,19.3,0,0,0-2.343-2.174" transform="translate(-234.007 -328.154)" fill="none" stroke="#263238" stroke-linecap="round" stroke-linejoin="round" stroke-width="1"/><path d="M406.939,415.516a5.639,5.639,0,0,0-.976-2.8c-.914-1.2-1.983-2.8-2.423-3.421" transform="translate(-234.374 -335.297)" fill="none" stroke="#263238" stroke-linecap="round" stroke-linejoin="round" stroke-width="1"/><path d="M410.3,452.474H398.219a.95.95,0,0,1-.954-.95l-3-18.615h19.968l-3,18.615a.95.95,0,0,1-.945.95Z" transform="translate(-229.218 -348.436)" fill="#263238" stroke="#263238" stroke-linecap="round" stroke-linejoin="round" stroke-width="1"/><line x2="14.382" transform="translate(165.838 87.15)" fill="none" stroke="#fff" stroke-linecap="round" stroke-linejoin="round" stroke-width="1"/><line x2="2.365" transform="translate(181.573 87.15)" fill="none" stroke="#fff" stroke-linecap="round" stroke-linejoin="round" stroke-width="1"/><path d="M34.091,262.308a10.89,10.89,0,0,0-1.229-4.508c-1.127-1.846-5.227-3.173-7.375-2.254a29,29,0,0,0-3.177,1.54,24.051,24.051,0,0,1,6.044,2.867,15.149,15.149,0,0,0,5.738,2.356Z" transform="translate(-22.31 -249.608)" fill="#7380f3"/><path d="M54.915,256.571a10.529,10.529,0,0,1-2.867-5.635c-.408-3.279,3.066-8.4,3.066-8.4a36.258,36.258,0,0,1,2.773,6.86C58.908,253.088,54.915,256.571,54.915,256.571Z" transform="translate(-38.834 -242.54)" fill="#7380f3"/><path d="M68.961,263.188a9.271,9.271,0,0,1,.51-5.223c1.123-2.152,4.1-1.948,7.069-1.025a16.66,16.66,0,0,0,3.883.923,44.181,44.181,0,0,1-6.456,3.585,39.562,39.562,0,0,1-5.005,1.739Z" transform="translate(-48.168 -250.182)" fill="#7380f3"/><path d="M58.282,277.706a.262.262,0,0,1-.262-.266V262.8a.262.262,0,0,1,.262-.266.266.266,0,0,1,.266.266V277.44a.266.266,0,0,1-.266.266Z" transform="translate(-42.174 -253.66)" fill="#263238"/><path d="M61.049,278.864h-.035a.266.266,0,0,1-.226-.3c.053-.368,1.291-9.043,5.493-13.862a.262.262,0,0,1,.373-.027.266.266,0,0,1,.027.373c-4.1,4.695-5.356,13.49-5.356,13.583a.262.262,0,0,1-.275.231Z" transform="translate(-43.712 -254.818)" fill="#263238"/><path d="M49.218,279.811h0a.266.266,0,0,1-.262-.271c0-.084.04-8.431-4.921-12.389a.264.264,0,1,1,.328-.413c5.165,4.131,5.125,12.456,5.121,12.811A.266.266,0,0,1,49.218,279.811Z" transform="translate(-34.34 -255.969)" fill="#263238"/><path d="M64.745,289.18a.2.2,0,0,1-.071,0,.262.262,0,0,1-.186-.324,17.164,17.164,0,0,1,2.4-5,.271.271,0,1,1,.444.311,16.861,16.861,0,0,0-2.316,4.828A.262.262,0,0,1,64.745,289.18Z" transform="translate(-45.767 -265.458)" fill="#263238"/><path d="M68.707,282.632s-.1-2.871,1.127-3.279,2.356.612,3.279,1.229a3.3,3.3,0,0,1,1.935,3.075,34.477,34.477,0,0,1-.714,5.223s-1.025-3.177-2.769-4.61A7.254,7.254,0,0,0,68.707,282.632Z" transform="translate(-48.118 -262.965)" fill="#7380f3"/><path d="M47.91,290.443a.266.266,0,0,1-.253-.186,9.559,9.559,0,0,0-2.662-3.994.262.262,0,0,1,.324-.413,9.793,9.793,0,0,1,2.858,4.224.266.266,0,0,1-.173.333Z" transform="translate(-34.873 -266.601)" fill="#263238"/><path d="M38.458,283.888a4.246,4.246,0,0,0-.617-3.173c-1.025-1.331-3.483-1.025-4.712.408s-2.969,5.737-2.969,5.737a9.739,9.739,0,0,1,5.325-1.948C38.351,284.913,38.458,283.888,38.458,283.888Z" transform="translate(-26.677 -263.303)" fill="#7380f3"/><path d="M51.88,314.7H43.707L39.62,301.18H55.967Z" transform="translate(-31.939 -275.159)" fill="#263238" stroke="#263238" stroke-linecap="round" stroke-linejoin="round" stroke-width="1"/><rect width="16.44" height="2.241" transform="translate(7.632 23.78)" fill="#263238" stroke="#263238" stroke-linecap="round" stroke-linejoin="round" stroke-width="1"/><path d="M27.31,330.87v64.688h2.365v-25.4H71.324v25.4h2.365V330.87Zm2.365,36.923V342.687H71.324v25.107Z" transform="translate(-25.091 -291.675)" fill="#263238" stroke="#263238" stroke-linecap="round" stroke-linejoin="round" stroke-width="1"/></g><g transform="translate(147.264 31.589)"><rect width="46.512" height="91.707" fill="none" stroke="#263238" stroke-miterlimit="10" stroke-width="1"/><rect width="42.599" height="87.496" transform="translate(1.957 2.108)" fill="none" stroke="#263238" stroke-miterlimit="10" stroke-width="1"/><path d="M353.654,44.89a3.91,3.91,0,0,0-4.859-.231c-2.547,1.85-1,5.165-1,5.165a5.1,5.1,0,0,0,.231,1.544c.231.537.768,1.234.848,1.464a2.9,2.9,0,0,1-.155,2.081c-.444.848-5.325,1.775-6.092,4.087s-1.62,9.483-1.775,10.1-2.7,6.709-2.933,7.788a23.571,23.571,0,0,1-.848,2.7s-3.315,2.081-3.47,2.618.311.386.772.386.306-.306.444,0a9.99,9.99,0,0,1-.772,2.467s.155.541.617.231a2.192,2.192,0,0,0,.7-1l-.333,2.188a.346.346,0,0,0,.306.4h0a.351.351,0,0,0,.364-.2l.821-1.846-.093,1.713c-.084.555.333.91.63.368l.226-.683.315-1.7.12,1.464a.333.333,0,0,0,.408.293h0a.333.333,0,0,0,.248-.311l.071-2.294a8.255,8.255,0,0,0,.617-2.316,7.263,7.263,0,0,1,.075-1.234s3.994-6.093,4.4-7.712.848-3.932,1.078-4.318a6.806,6.806,0,0,0,.444-1.331,9.384,9.384,0,0,1,.7,3.994c-.231,1.775-1.083,4.393-1.331,6.088a92.55,92.55,0,0,0-.617,9.487,82.859,82.859,0,0,0,1.234,9.638c.075.541-1.54,6.243-1.078,8.875a91.9,91.9,0,0,1,.692,10.721,8.532,8.532,0,0,1-1.078,2.467,1.866,1.866,0,0,0-.155,1.85,2.844,2.844,0,0,0,2.006.231,4.549,4.549,0,0,0,1.85-3.009c0-1.078-.075-1.926.08-4.242s1.62-8.48,1.62-10.65a37.862,37.862,0,0,1,1-6.86c.382-1.85.155-3.781.541-4.881a79.933,79.933,0,0,0,.848-8.018h.444s1.464,9.021,1.7,10.41.772,4.238.848,4.779.541,7.326.692,8.79,1,3.625,1.331,5.165.386,4.473.537,5.4a7.362,7.362,0,0,0,1.331,2.7c.386.444,1.62.155,2.157-.311s-.075-1.234-.444-2.219-.848-1.083-.848-3.106.306-9.1.306-12.025-.923-7.326-.923-8.484,1.158-7.171,1.078-10.255a64.972,64.972,0,0,0-.923-8.48c-.231-1.158-1.083-2.933-1.389-4.087a16.322,16.322,0,0,1,.075-4.087l1.7,4.393s.923,1.775,1.85,3.932a22.43,22.43,0,0,0,2.543,4.242s.231,2.161.311,2.853a6.529,6.529,0,0,0,.231,1.331c.075.235.231,2.316.306,2.547s.311.075.311-.231a3.692,3.692,0,0,1,.151-1.331c.155-.231.311.848.386,1.389s.311.927.541.386a7.8,7.8,0,0,0,.231-2.006s.311-.155.386.541,1,2.157,1.234,1.7-.386-2.853-.386-2.853a7.834,7.834,0,0,0,.927,1.775c.311.231.537,0,.386-.772s-.852-2.7-.852-2.7,1.234.541,1.234-.08-1-1-1.54-1.7a14.01,14.01,0,0,0-2.006-1.775s-1.775-6.017-2.157-7.02-1.7-2.773-1.775-3.315-.927-4.473-.927-4.473-.231-5.09-1-6.013-3.39-1.083-4.162-1.7-1.518-1.318-1.518-1.859v-1.62a3.3,3.3,0,0,0,.768-1.54c.08-.772.08-1.389.08-1.389a5.063,5.063,0,0,0-.923-4.473Z" transform="translate(-327.811 -38.762)" fill="gray"/><path d="M370.735,49.695s1.331-1.269,1.331-2.063a2.858,2.858,0,0,0-1.9-2.693,3.148,3.148,0,0,0-3.8,1.824c-.475,1.349.95,2.538,1.269,2.933a2.813,2.813,0,0,0,1.189.635l.395,26.966h.484l.08-26.806Z" transform="translate(-345.997 -39.258)" fill="none" stroke="#c7c7c7" stroke-miterlimit="10" stroke-width="1"/><path d="M371.288,125.91a8.665,8.665,0,0,1-1.114,1.429c-.395.319-.555.16-.635.395" transform="translate(-347.819 -84.385)" fill="none" stroke="#c7c7c7" stroke-miterlimit="10" stroke-width="1"/><path d="M371.325,129s-1.509,3.807-1.429,5.4.08,1.9.08,3.013.08,1.984.08,2.853" transform="translate(-348.016 -86.104)" fill="none" stroke="#c7c7c7" stroke-miterlimit="10" stroke-width="1"/><path d="M370.8,136.64s.63.887.155,2.933" transform="translate(-348.52 -90.354)" fill="none" stroke="#c7c7c7" stroke-miterlimit="10" stroke-width="1"/><path d="M366.867,72.83s-3.572,1.509-4.047,2.7,1.109.95,1.509.95" transform="translate(-344.032 -54.859)" fill="none" stroke="#c7c7c7" stroke-miterlimit="10" stroke-width="1"/><path d="M366.171,74.8s-4.917,3.106-4.681,3.727,2.3.714,2.3.714" transform="translate(-343.336 -55.955)" fill="none" stroke="#c7c7c7" stroke-miterlimit="10" stroke-width="1"/><path d="M366.836,78.55s-4.517,3.106-4.437,3.887,2.143.16,2.143.16" transform="translate(-343.846 -58.04)" fill="none" stroke="#c7c7c7" stroke-miterlimit="10" stroke-width="1"/><path d="M366.751,82.13s-4.437,3.963-4.362,4.2,1.269.08,1.269.08" transform="translate(-343.841 -60.032)" fill="none" stroke="#c7c7c7" stroke-miterlimit="10" stroke-width="1"/><path d="M367.047,86.06s-4.282,2.933-4.122,3.648,1.509.315,1.509.315" transform="translate(-344.137 -62.218)" fill="none" stroke="#c7c7c7" stroke-miterlimit="10" stroke-width="1"/><path d="M367.334,88.92s-3.332,3.173-3.652,4.042.16.954.16.954l.24.315" transform="translate(-344.5 -63.809)" fill="none" stroke="#c7c7c7" stroke-miterlimit="10" stroke-width="1"/><path d="M367.946,92.67s-3.488,3.332-3.408,4.122a.887.887,0,0,0,.714.887" transform="translate(-345.036 -65.895)" fill="none" stroke="#c7c7c7" stroke-miterlimit="10" stroke-width="1"/><path d="M368.248,95.17s-3.168,4.127-3.168,4.917.315,1.034.315,1.034" transform="translate(-345.338 -67.286)" fill="none" stroke="#c7c7c7" stroke-miterlimit="10" stroke-width="1"/><path d="M369.138,97.5s-2.139,3.648-2.3,4.282a5.443,5.443,0,0,0-.16,1.189" transform="translate(-346.228 -68.582)" fill="none" stroke="#c7c7c7" stroke-miterlimit="10" stroke-width="1"/><line x1="1.664" y2="3.328" transform="translate(21.246 30.742)" fill="none" stroke="#c7c7c7" stroke-miterlimit="10" stroke-width="1"/><path d="M370.014,105.18s-1.584,2.618-1.9,2.933" transform="translate(-347.024 -72.854)" fill="none" stroke="#c7c7c7" stroke-miterlimit="10" stroke-width="1"/><path d="M367.132,108.76a12.955,12.955,0,0,1-1.979,2.219c-.648.395-1.828.475-1.984.16a11.45,11.45,0,0,1-.24-1.589" transform="translate(-344.142 -74.845)" fill="none" stroke="#c7c7c7" stroke-miterlimit="10" stroke-width="1"/><path d="M361.779,114.12s-.24.395-.635,1.189-.714.95-.714.95" transform="translate(-342.752 -77.827)" fill="none" stroke="#c7c7c7" stroke-miterlimit="10" stroke-width="1"/><line x1="0.635" y1="0.24" transform="translate(17.758 37.243)" fill="none" stroke="#c7c7c7" stroke-miterlimit="10" stroke-width="1"/><line x1="0.79" y1="0.315" transform="translate(17.918 35.184)" fill="none" stroke="#c7c7c7" stroke-miterlimit="10" stroke-width="1"/><path d="M364.946,111.08s-2.458,2.063-2.773,3.173-2.143,3.55-2.378,4.677-.08,1.744-.24,3.332S359,124.8,359,125.75" transform="translate(-341.956 -76.136)" fill="none" stroke="#c7c7c7" stroke-miterlimit="10" stroke-width="1"/><path d="M359.714,128.24a5.019,5.019,0,0,0-.714,1.584" transform="translate(-341.956 -85.681)" fill="none" stroke="#c7c7c7" stroke-miterlimit="10" stroke-width="1"/><path d="M359.434,133.6a6.1,6.1,0,0,0-.794,1.744" transform="translate(-341.756 -88.663)" fill="none" stroke="#c7c7c7" stroke-miterlimit="10" stroke-width="1"/><path d="M367.412,113.22a13.446,13.446,0,0,0-1.824,2.143c-.08.395,1.744-1.109,1.744-1.109s-1.189,1.984-1.9,3.488-2.139,3.106-2.139,4.757a24.388,24.388,0,0,0,.794,4.522,25.036,25.036,0,0,1,.635,5.551c-.075,2.219-.16,3.253-.16,4.522a20.977,20.977,0,0,1-.24,3.727,14.675,14.675,0,0,0-.395,1.664" transform="translate(-344.342 -77.326)" fill="none" stroke="#c7c7c7" stroke-miterlimit="10" stroke-width="1"/><path d="M365.123,118.76a73.43,73.43,0,0,0-3.106,7.694c-.408,1.824-.794,5.951-.954,6.82s-.08,4.127-.16,5.471-.315,8.409-.315,9.123-.479,8.715-.479,9.438a4.641,4.641,0,0,1-.714,2.3,10.649,10.649,0,0,0-.794,1.429" transform="translate(-341.734 -80.408)" fill="none" stroke="#c7c7c7" stroke-miterlimit="10" stroke-width="1"/><path d="M360.243,154a5.6,5.6,0,0,0-1.029,3.55c.16,1.584-.714,5.232-.714,6.421s.08,3.412.16,3.887.08,1.984.16,3.332.16,2.853.16,3.887a4.184,4.184,0,0,1-.559,2.219c-.395.887-1.029,2.3-1.029,2.3" transform="translate(-341.06 -100.011)" fill="none" stroke="#c7c7c7" stroke-miterlimit="10" stroke-width="1"/><line x1="0.714" y1="2.299" transform="translate(18.548 74.202)" fill="none" stroke="#c7c7c7" stroke-miterlimit="10" stroke-width="1"/><path d="M366.86,160.94a7.287,7.287,0,0,1,.479,1.9" transform="translate(-346.328 -103.871)" fill="none" stroke="#c7c7c7" stroke-miterlimit="10" stroke-width="1"/><path d="M367.848,119.038s.155,1.269-.714,1.744-1.589.16-2.858-1.109a1.913,1.913,0,0,1,.714-3.412" transform="translate(-344.459 -79.017)" fill="none" stroke="#c7c7c7" stroke-miterlimit="10" stroke-width="1"/><path d="M368.945,144a7.8,7.8,0,0,0-.475,2.063" transform="translate(-347.224 -94.448)" fill="none" stroke="#c7c7c7" stroke-miterlimit="10" stroke-width="1"/><path d="M352.456,63.36s-.63.555-.63.95a7.9,7.9,0,0,1-2.143,2.7c-1.109,1.029-2.7.395-4.047,2.538a10.157,10.157,0,0,0-1.584,5.871,7.833,7.833,0,0,1-.319,2.853c-.32,1.589-3.168,9.518-3.727,10.867s-.887,1.824-1.331,2.139-1.748,1.331-1.984,1.429" transform="translate(-329.546 -49.591)" fill="none" stroke="#c7c7c7" stroke-miterlimit="10" stroke-width="1"/><path d="M354.776,67.83s-1.509,1.331-2.538,2.059-3.807,1.589-4.437,3.332a21.455,21.455,0,0,0-.794,5.551,39.468,39.468,0,0,1-1.584,5.871c-.253.794-4.282,9.119-4.282,9.119" transform="translate(-332.021 -52.077)" fill="none" stroke="#c7c7c7" stroke-miterlimit="10" stroke-width="1"/><path d="M355.961,69.26s-1.824,1.269-3.492,2.547-2.3,3.8-2.614,5.866-1.331,6.106-1.668,7.544-3.807,7.93-4.042,8.644a14.939,14.939,0,0,0-.635,2.063c-.16.794-.24,3.013-.24,3.013" transform="translate(-333.206 -52.873)" fill="none" stroke="#c7c7c7" stroke-miterlimit="10" stroke-width="1"/><path d="M349.882,75a7.852,7.852,0,0,0-2.614,2.773c-.635,1.5-1.429,6.425-1.748,8.329s-4.437,10.65-4.837,11.342-1.664,3.248-2.063,4.282" transform="translate(-330.619 -56.066)" fill="none" stroke="#c7c7c7" stroke-miterlimit="10" stroke-width="1"/><path d="M339.294,129a20.961,20.961,0,0,0-1.744,2.143" transform="translate(-330.024 -86.104)" fill="none" stroke="#c7c7c7" stroke-miterlimit="10" stroke-width="1"/><line x1="0.475" y2="4.127" transform="translate(9.114 42.714)" fill="none" stroke="#c7c7c7" stroke-miterlimit="10" stroke-width="1"/><path d="M365.63,57.26a3.914,3.914,0,0,0,1.5.963,1.722,1.722,0,0,0,1.269-.24" transform="translate(-345.644 -46.198)" fill="none" stroke="#c7c7c7" stroke-miterlimit="10" stroke-width="1"/><path d="M367.04,60.279l1.269.08.794-.4" transform="translate(-346.428 -47.7)" fill="none" stroke="#c7c7c7" stroke-miterlimit="10" stroke-width="1"/><path d="M370.019,61.39s.08.475-1.189.555" transform="translate(-347.424 -48.495)" fill="none" stroke="#c7c7c7" stroke-miterlimit="10" stroke-width="1"/><path d="M374,72.83s3.55,1.509,4.047,2.7-1.114.95-1.509.95" transform="translate(-350.3 -54.859)" fill="none" stroke="#c7c7c7" stroke-miterlimit="10" stroke-width="1"/><path d="M374,74.8s4.917,3.106,4.681,3.727-2.3.714-2.3.714" transform="translate(-350.3 -55.955)" fill="none" stroke="#c7c7c7" stroke-miterlimit="10" stroke-width="1"/><path d="M373.66,78.55s4.522,3.106,4.437,3.887-2.139.16-2.139.16" transform="translate(-350.111 -58.04)" fill="none" stroke="#c7c7c7" stroke-miterlimit="10" stroke-width="1"/><path d="M373.84,82.13s4.437,3.963,4.362,4.2-1.269.08-1.269.08" transform="translate(-350.211 -60.032)" fill="none" stroke="#c7c7c7" stroke-miterlimit="10" stroke-width="1"/><path d="M373.84,86.06s4.282,2.933,4.127,3.648-1.509.315-1.509.315" transform="translate(-350.211 -62.218)" fill="none" stroke="#c7c7c7" stroke-miterlimit="10" stroke-width="1"/><path d="M374,88.92s3.332,3.173,3.648,4.042-.16.954-.16.954l-.235.315" transform="translate(-350.3 -63.809)" fill="none" stroke="#c7c7c7" stroke-miterlimit="10" stroke-width="1"/><path d="M373.84,92.67s3.492,3.332,3.412,4.122a.887.887,0,0,1-.714.887" transform="translate(-350.211 -65.895)" fill="none" stroke="#c7c7c7" stroke-miterlimit="10" stroke-width="1"/><path d="M373.84,95.17s3.173,4.127,3.173,4.917-.315,1.034-.315,1.034" transform="translate(-350.211 -67.286)" fill="none" stroke="#c7c7c7" stroke-miterlimit="10" stroke-width="1"/><path d="M373.84,97.5a47.792,47.792,0,0,1,2.3,4.282,5.445,5.445,0,0,1,.16,1.189" transform="translate(-350.211 -68.582)" fill="none" stroke="#c7c7c7" stroke-miterlimit="10" stroke-width="1"/><line x2="1.668" y2="3.328" transform="translate(23.629 30.742)" fill="none" stroke="#c7c7c7" stroke-miterlimit="10" stroke-width="1"/><path d="M373.66,105.18s1.589,2.618,1.9,2.933" transform="translate(-350.111 -72.854)" fill="none" stroke="#c7c7c7" stroke-miterlimit="10" stroke-width="1"/><path d="M373.66,108.76a12.832,12.832,0,0,0,1.983,2.219c.652.395,1.824.475,1.984.16a10.822,10.822,0,0,0,.24-1.589" transform="translate(-350.111 -74.845)" fill="none" stroke="#c7c7c7" stroke-miterlimit="10" stroke-width="1"/><path d="M382.6,114.12s.24.395.635,1.189.714.95.714.95" transform="translate(-355.084 -77.827)" fill="none" stroke="#c7c7c7" stroke-miterlimit="10" stroke-width="1"/><line y1="0.24" x2="0.635" transform="translate(28.151 37.243)" fill="none" stroke="#c7c7c7" stroke-miterlimit="10" stroke-width="1"/><line y1="0.315" x2="0.794" transform="translate(27.831 35.184)" fill="none" stroke="#c7c7c7" stroke-miterlimit="10" stroke-width="1"/><path d="M373.66,111.08s2.458,2.063,2.778,3.173,2.139,3.55,2.378,4.677a32.677,32.677,0,0,1,.24,3.332c.16,1.589.555,2.538.555,3.488" transform="translate(-350.111 -76.136)" fill="none" stroke="#c7c7c7" stroke-miterlimit="10" stroke-width="1"/><path d="M385.46,128.24a5.019,5.019,0,0,1,.714,1.584" transform="translate(-356.675 -85.681)" fill="none" stroke="#c7c7c7" stroke-miterlimit="10" stroke-width="1"/><path d="M385.64,133.6a6.106,6.106,0,0,1,.794,1.744" transform="translate(-356.775 -88.663)" fill="none" stroke="#c7c7c7" stroke-miterlimit="10" stroke-width="1"/><path d="M373.48,113.22a13.448,13.448,0,0,1,1.828,2.143c.08.395-1.748-1.109-1.748-1.109s1.189,1.984,1.9,3.488,2.143,3.106,2.143,4.757a24.388,24.388,0,0,1-.794,4.522c-.24,1.349.581,3.106.661,5.325s.16,3.253.16,4.517a21.011,21.011,0,0,0,.24,3.727,16.01,16.01,0,0,1,.395,1.668" transform="translate(-350.011 -77.326)" fill="none" stroke="#c7c7c7" stroke-miterlimit="10" stroke-width="1"/><path d="M372.77,118.76a73.429,73.429,0,0,1,3.106,7.694c.408,1.824,2.077,5.724,2.236,6.612s.08,4.122.155,5.471.319,8.4.319,9.119.5,8.7.5,9.416a4.628,4.628,0,0,0,.714,2.3,10.652,10.652,0,0,1,.794,1.429" transform="translate(-349.616 -80.408)" fill="none" stroke="#c7c7c7" stroke-miterlimit="10" stroke-width="1"/><path d="M385.16,153.45a5.551,5.551,0,0,1,1.034,3.55c-.16,1.584.714,5.236.714,6.425s-.08,3.408-.16,3.887-.08,1.979-.16,3.328-.169,2.875-.169,3.909a4.171,4.171,0,0,0,.559,2.219c.395.887,1.029,2.3,1.029,2.3" transform="translate(-356.508 -99.705)" fill="none" stroke="#c7c7c7" stroke-miterlimit="10" stroke-width="1"/><line y1="2.303" x2="0.71" transform="translate(28.577 73.966)" fill="none" stroke="#c7c7c7" stroke-miterlimit="10" stroke-width="1"/><path d="M381.529,160.42a7.225,7.225,0,0,0-.479,1.9" transform="translate(-354.222 -103.582)" fill="none" stroke="#c7c7c7" stroke-miterlimit="10" stroke-width="1"/><path d="M372.756,119.038s-.16,1.269.714,1.744,1.584.16,2.853-1.109a1.912,1.912,0,0,0-.714-3.412" transform="translate(-349.601 -79.017)" fill="none" stroke="#c7c7c7" stroke-miterlimit="10" stroke-width="1"/><path d="M380.444,144.32a12.84,12.84,0,0,0-.444,2.405" transform="translate(-353.638 -94.626)" fill="none" stroke="#c7c7c7" stroke-miterlimit="10" stroke-width="1"/><path d="M373.84,63.36s.635.555.635.95a7.894,7.894,0,0,0,2.143,2.7c1.109,1.029,2.693.395,4.042,2.538a10.13,10.13,0,0,1,1.589,5.871,7.935,7.935,0,0,0,.315,2.853c.315,1.589,3.173,9.518,3.727,10.867a4.414,4.414,0,0,0,1.331,2.139c.444.315,1.744,1.331,1.984,1.429" transform="translate(-350.211 -49.591)" fill="none" stroke="#c7c7c7" stroke-miterlimit="10" stroke-width="1"/><path d="M374.2,67.83s1.509,1.331,2.538,2.059,3.807,1.589,4.437,3.332a21.244,21.244,0,0,1,.79,5.551,38.4,38.4,0,0,0,1.589,5.871c.257.794,4.282,9.119,4.282,9.119" transform="translate(-350.411 -52.077)" fill="none" stroke="#c7c7c7" stroke-miterlimit="10" stroke-width="1"/><path d="M374.2,69.26s1.824,1.269,3.488,2.538,2.3,3.8,2.618,5.866,1.331,6.106,1.664,7.544,3.807,7.93,4.047,8.644a15.573,15.573,0,0,1,.635,2.063c.16.794.24,3.013.24,3.013" transform="translate(-350.411 -52.873)" fill="none" stroke="#c7c7c7" stroke-miterlimit="10" stroke-width="1"/><path d="M382.06,75a7.849,7.849,0,0,1,2.618,2.773c.635,1.5,1.429,6.425,1.744,8.329s4.437,10.65,4.841,11.342,1.664,3.248,2.059,4.282" transform="translate(-354.784 -56.066)" fill="none" stroke="#c7c7c7" stroke-miterlimit="10" stroke-width="1"/><path d="M404.58,129a20.74,20.74,0,0,1,1.748,2.143" transform="translate(-367.311 -86.104)" fill="none" stroke="#c7c7c7" stroke-miterlimit="10" stroke-width="1"/><line x2="0.475" y2="4.127" transform="translate(36.954 42.714)" fill="none" stroke="#c7c7c7" stroke-miterlimit="10" stroke-width="1"/><path d="M376.969,57.26a3.914,3.914,0,0,1-1.5.963,1.722,1.722,0,0,1-1.269-.24" transform="translate(-350.411 -46.198)" fill="none" stroke="#c7c7c7" stroke-miterlimit="10" stroke-width="1"/><path d="M376.439,60.279l-1.265.08-.794-.4" transform="translate(-350.511 -47.7)" fill="none" stroke="#c7c7c7" stroke-miterlimit="10" stroke-width="1"/><path d="M374.559,61.39s-.08.475,1.189.555" transform="translate(-350.61 -48.495)" fill="none" stroke="#c7c7c7" stroke-miterlimit="10" stroke-width="1"/><path d="M332.49,58.72h3.479l6.749,6.341" transform="translate(-327.21 -47.01)" fill="none" stroke="#263238" stroke-miterlimit="10" stroke-width="1"/><path d="M401.459,68.4h-1.837l-4.912,6.545" transform="translate(-361.82 -52.394)" fill="none" stroke="#263238" stroke-miterlimit="10" stroke-width="1"/><path d="M400.592,152.844h-2.046l-6.137-4.7" transform="translate(-360.541 -96.751)" fill="none" stroke="#263238" stroke-miterlimit="10" stroke-width="1"/><path d="M338.49,190.637h2.862l4.5-2.867" transform="translate(-330.547 -118.796)" fill="none" stroke="#263238" stroke-miterlimit="10" stroke-width="1"/><path d="M332.49,146.285h3.275l6.545-5.525" transform="translate(-327.21 -92.646)" fill="none" stroke="#263238" stroke-miterlimit="10" stroke-width="1"/><path d="M408.073,101.59h-1.842l-1.841,3.474" transform="translate(-367.205 -70.857)" fill="none" stroke="#263238" stroke-miterlimit="10" stroke-width="1"/><path d="M391.117,47.2h-3.275l-5.112,4.5" transform="translate(-355.156 -40.602)" fill="none" stroke="#263238" stroke-miterlimit="10" stroke-width="1"/><path d="M350.47,46.74h3.27l1.637,1.637" transform="translate(-337.211 -40.346)" fill="none" stroke="#263238" stroke-miterlimit="10" stroke-width="1"/><line x2="7.974" transform="translate(19.6 83.498)" fill="none" stroke="#263238" stroke-miterlimit="10" stroke-width="1"/><line x2="22.293" transform="translate(12.03 85.131)" fill="none" stroke="#263238" stroke-miterlimit="10" stroke-width="1"/></g><g transform="translate(9 228.905)"><line x2="209" transform="translate(0 0.092)" fill="none" stroke="#263238" stroke-miterlimit="10" stroke-width="1"/></g></g></g><g transform="translate(764.194 1799.446)"><path d="M271.074,163.272s.134,8.031-.268,8.3-2.093,2.364-4.265.947-.944-5.2-.877-7.156,2.565-2.632,3.1-2.766A6.769,6.769,0,0,1,271.074,163.272Z" transform="translate(-212.723 -127.976)" fill="#b2b2b2" stroke="#263238" stroke-miterlimit="10" stroke-width="1"/><path d="M271.115,163.272a6.686,6.686,0,0,0-2.294-.676c-.539.134-3.047.81-3.1,2.766-.052,1.5-.774,4.058-.143,5.816l1.38-.283,1.008-5.907,3.181-.146C271.127,163.927,271.115,163.272,271.115,163.272Z" transform="translate(-212.764 -127.976)" fill="#263238" stroke="#263238" stroke-miterlimit="10" stroke-width="1"/><path d="M162.05,456.17s-6.252,4.134-6.444,4.823a3.713,3.713,0,0,0,0,1.539H168.2v-3.766S163.972,456.268,162.05,456.17Z" transform="translate(-136.422 -332.12)" fill="#fff" stroke="#263238" stroke-miterlimit="10" stroke-width="1"/><path d="M243.4,456.17s6.261,4.134,6.441,4.823a3.714,3.714,0,0,1,0,1.539H237.25v-3.766S241.479,456.268,243.4,456.17Z" transform="translate(-193.248 -332.12)" fill="#fff" stroke="#263238" stroke-miterlimit="10" stroke-width="1"/><path d="M176.269,232.33,175.211,263l.478,33.208a7.687,7.687,0,0,0-.96,2.02c0,.5.192,2.5.192,2.5s1.057.289,2.4.771a36.934,36.934,0,0,1,4.134,2.114s.865-2.306,1.155-3.351-.3-3.461-.3-4.134,2.4-14.5,2.4-14.5l4.229-35.624,2.5,36.587,1.539,14.4a11.723,11.723,0,0,0-.673,2.791,36.556,36.556,0,0,0,1.362,3.434l7.787-1.523v-2.4l-.673-2.4-.381-3.473V267.326l.192-22.688-.192-10.276Z" transform="translate(-149.775 -176.476)" fill="#7380f3" stroke="#263238" stroke-miterlimit="10" stroke-width="1"/><path d="M179.321,232.33l-.2,5.789c1.295.454,12.6,4.21,24.425,1.152l-.088-4.908Z" transform="translate(-152.828 -176.476)" fill="#263238" stroke="#263238" stroke-miterlimit="10" stroke-width="1"/><line x1="0.402" y1="28.577" transform="translate(48.855 88.657)" fill="none" stroke="#263238" stroke-miterlimit="10" stroke-width="1"/><line x2="0.201" y2="2.011" transform="translate(49.459 118.846)" fill="none" stroke="#263238" stroke-miterlimit="10" stroke-width="1"/><path d="M187.238,394.84c-.609,5.24-1.438,12.759-1.438,13.28,0,.8,1.81,3.622,1.81,3.622l-1.609.4.4,1.219" transform="translate(-157.473 -289.475)" fill="none" stroke="#263238" stroke-miterlimit="10" stroke-width="1"/><path d="M191.882,378.32s-.091.774-.232,2.008" transform="translate(-161.54 -277.988)" fill="none" stroke="#263238" stroke-miterlimit="10" stroke-width="1"/><path d="M155.531,473.21a4.161,4.161,0,0,0,.07,1.155H168.2V473.21Z" transform="translate(-136.416 -343.969)" fill="#fff" stroke="#000" stroke-miterlimit="10" stroke-width="1"/><path d="M237.25,474.559h12.595a4.2,4.2,0,0,0,.076-1.069H237.25Z" transform="translate(-193.248 -344.164)" fill="#fff" stroke="#000" stroke-miterlimit="10" stroke-width="1"/><path d="M191.053,104.22s-11.44,1.846-12.512,2.026a5.675,5.675,0,0,0-1.907.609c-.177.119-1.31,20.315-1.249,20.61s.524,20.689.524,20.689,8.936,2.2,14.715,2.133a81.53,81.53,0,0,0,10.663-.832l1.858-18.3,1.368-7.5,7.687-.356s-3.278-10.547-3.455-11.321-6.364-3.583-8.1-4.418-6.136-2.562-6.136-2.562Z" transform="translate(-150.229 -87.396)" fill="#7380f3" stroke="#263238" stroke-miterlimit="10" stroke-width="1"/><path d="M225.07,118.521l5.322,8.284,4.564-8.7" transform="translate(-184.779 -97.054)" fill="none" stroke="#263238" stroke-miterlimit="10" stroke-width="1"/><line x2="0.823" y2="1.28" transform="translate(38.381 18.494)" fill="none" stroke="#263238" stroke-miterlimit="10" stroke-width="1"/><path d="M271.01,146.352l3.038-9.472-2.026,9.472Z" transform="translate(-216.723 -110.105)" fill="#263238" stroke="#263238" stroke-miterlimit="10" stroke-width="1"/><path d="M241.377,57.421a.914.914,0,0,0,.536-.716,5.974,5.974,0,0,0-1.133-4.588c-1.548-2.084-4.875-3.872-8.1-2.8a7.46,7.46,0,0,0-4.823,5.84c-.174,1.609-.609,4.527-.609,4.527l-3.4,6.614,5.789,8.817,3.933-7.032a20.465,20.465,0,0,1-2.437-4.945c-.649-2.325,1.252-3.753,3.336-5.124s3.814-1.548,4.527-1.249a19.635,19.635,0,0,0,2.379.655Z" transform="translate(-183.93 -48.996)" fill="#b2b2b2" stroke="#263238" stroke-miterlimit="10" stroke-width="1"/><path d="M240.75,97.08l2.928,7.178,1.831-3.077Z" transform="translate(-195.682 -82.431)" fill="#263238" stroke="#263238" stroke-miterlimit="10" stroke-width="1"/><path d="M242.544,58.015c2.087-1.368,3.814-1.548,4.527-1.249a19.635,19.635,0,0,0,2.385.655.914.914,0,0,0,.536-.716,5.974,5.974,0,0,0-1.133-4.588c-1.548-2.084-4.875-3.872-8.1-2.8a7.46,7.46,0,0,0-4.823,5.84c-.116,1.027-.326,2.587-.466,3.583l4.314,1.572A11.092,11.092,0,0,1,242.544,58.015Z" transform="translate(-192.01 -48.996)" fill="#263238" stroke="#263238" stroke-miterlimit="10" stroke-width="1"/><path d="M240.516,68.494a2,2,0,0,0,1.548-.36c.536-.536-.3-1.191.893-1.548s2.325.18,2.562-.609.609-2.023,1.191-2.382,3.455,1.49,4.527,2.264.716,1.49.241,3.217-.954,2.264-1.49,2.382-.835.417-.835,1.194.18,1.846-.238,2.264-1.727.356-1.727.356a28.555,28.555,0,0,1-1.67,2.742,1.962,1.962,0,0,1-2.562.058c-.9-.6-3.564-3.68-3.863-4.942a5.676,5.676,0,0,1,.36-3.156A4.558,4.558,0,0,1,240.516,68.494Z" transform="translate(-194.458 -59.116)" fill="#b2b2b2" stroke="#263238" stroke-miterlimit="10" stroke-width="1"/><path d="M238.416,76.672s-.061-1.785-1.133-2.026-2.2,1.849-1.727,3.159a1.425,1.425,0,0,0,1.846.832" transform="translate(-191.992 -66.819)" fill="#b2b2b2" stroke="#263238" stroke-miterlimit="10" stroke-width="1"/><path d="M262.754,88.228l-.3.716s-1.31-.3-1.429-.954" transform="translate(-209.776 -76.11)" fill="none" stroke="#263238" stroke-miterlimit="10" stroke-width="1"/><path d="M265.064,84.939A3.278,3.278,0,0,0,262.8,83.69" transform="translate(-211.014 -73.12)" fill="none" stroke="#263238" stroke-miterlimit="10" stroke-width="1"/><path d="M158.157,154.88s-2.437,8.067-2.9,10.294a6.313,6.313,0,0,0,1.149,5.484c1.082,1.164,7.836,2.568,7.836,2.568l-.277-2.029s-1.956-4.591-2.026-4.859,3.047-9.959,3.047-9.959Z" transform="translate(-136.115 -122.621)" fill="#b2b2b2" stroke="#263238" stroke-miterlimit="10" stroke-width="1"/><path d="M163,156.562l6.562,2.066c.512-1.261.914-2.264.914-2.264l-6.815-1.484S163.375,155.572,163,156.562Z" transform="translate(-141.619 -122.621)" fill="#263238" stroke="#263238" stroke-miterlimit="10" stroke-width="1"/><path d="M162.16,190.957s1.6-1.289,4.357.3" transform="translate(-141.035 -147.365)" fill="none" stroke="#263238" stroke-miterlimit="10" stroke-width="1"/><path d="M165.534,111.352s-.893-.713-2.084,1.191-5.661,12.394-5.661,12.394l10.663,2.977.609-8.994" transform="translate(-137.996 -92.264)" fill="#7380f3" stroke="#263238" stroke-miterlimit="10" stroke-width="1"/><path d="M151.715,257.589s-7.242-.594-11.757.341a55.649,55.649,0,0,0-7.071,1.874,16.824,16.824,0,0,0-3.236.512,15.255,15.255,0,0,1-2.471.609s-8.262,1.191-10.307,1.618a44.508,44.508,0,0,1-6.044.5l-2.133-4.515c-.679-1.447-1.277-3.918-1.874-3.239s-1.021,4.515-.85,5.965a31.823,31.823,0,0,1,.509,4.089c-.1.682-.256,1.447,0,1.7a4.2,4.2,0,0,0,1.706.427h52.3S155.036,257.86,151.715,257.589Z" transform="translate(-101.939 -192.357)" fill="#fff" stroke="#263238" stroke-miterlimit="10" stroke-width="1"/><path d="M203.91,264.02v8.549h24.7s-5.453-9.627-8.774-9.883c0,0-7.242-.594-11.757.341C206.414,263.374,205.013,263.721,203.91,264.02Z" transform="translate(-170.065 -197.454)" fill="#263238" stroke="#263238" stroke-miterlimit="10" stroke-width="1"/><path d="M326.773,251.523s-2.788-.286-3.351-.865-1.73-2.209-2.02-1.828-1.441,1.633-1.441,1.633-1.828-.847-2.9-.2-1.331,3.854-1.331,3.854a4.643,4.643,0,0,1-2.885-.1c-1.441-.576-8.171-4.134-12.595-4.616s-9.615,1.249-10.864,1.347-3.845.1-3.845.1v12.007h29.034s1.252-.576,1.444-1.441a1.219,1.219,0,0,1,1.033-1.036c.289-.1,1.048-.1,1.913.859a7.142,7.142,0,0,0,3.976,1.715c1.347.192,4.808,0,5.673-.673a8.912,8.912,0,0,0,1.73-2.693s2.212-.384,2.306-1.441.387-2.306,0-2.788a1.636,1.636,0,0,0-1.152-.481s1.249-2.212.576-2.98a4.591,4.591,0,0,0-2.5-.963C329.186,250.838,327.83,248.537,326.773,251.523Z" transform="translate(-226.826 -187.909)" fill="#fff" stroke="#263238" stroke-miterlimit="10" stroke-width="1"/><path d="M403.221,260.969c.1-1.057.387-2.306,0-2.788a1.636,1.636,0,0,0-1.152-.481s1.249-2.212.576-2.98a4.591,4.591,0,0,0-2.5-.963c-.387-.1-1.73-2.4-2.788.576a4.06,4.06,0,0,1,1.252,3.75c-.576,2.114-1.636,2.4-2.02,1.828s-1.155-.771-1.539-.289-2.98.192-2.885.481,1.249,1.441.481,2.114-2.788-.192-3.172-.865a10.192,10.192,0,0,1-.579-1.152l-1.846,3a8.536,8.536,0,0,1,1.051-.1c.3-.091.369-.42.987.268a9.485,9.485,0,0,0,4.424,2.4c1.347.192,4.808,0,5.673-.673a8.911,8.911,0,0,0,1.73-2.693S403.127,262.026,403.221,260.969Z" transform="translate(-297.41 -190.72)" fill="#263238" stroke="#263238" stroke-miterlimit="10" stroke-width="1"/><path d="M414.667,260.33a2.2,2.2,0,0,1-.1,2.02" transform="translate(-316.546 -195.945)" fill="#fff" stroke="#263238" stroke-miterlimit="10" stroke-width="1"/><path d="M408.59,259.346l-.865-.286s-.094.865-.094,1.441" transform="translate(-311.72 -195.062)" fill="#fff" stroke="#263238" stroke-miterlimit="10" stroke-width="1"/><path d="M315.677,262.738c.3-1.435,1.149-2.2-.573-4.783a12.218,12.218,0,0,0-2.331-2.638c-1.523-.609-8.168-4.119-12.555-4.6s-9.615,1.249-10.864,1.347-3.845.1-3.845.1v11.988h28.967A2.4,2.4,0,0,0,315.677,262.738Z" transform="translate(-226.805 -189.204)" fill="#707070" stroke="#263238" stroke-miterlimit="10" stroke-width="1"/><path d="M210.111,172.915,188.063,175.6s-2.035-3.985-2.763-5.694-.524-3.616-.984-3.449-.8,1.136-1.523,3.421a11.328,11.328,0,0,0-.259,5.024c.07,1.011-.161,3.528.155,4.183s1.124.609,2.943.472,3.784-.061,3.784-.061,15.108.972,15.309.972c-.326,0-1.082,11.272-1.152,12.369-.125,1.992-.183,3.988-.265,5.984-.061,1.505-.743,4.387.914,5.3a8.117,8.117,0,0,0,3.071.536,28.834,28.834,0,0,0,8.226-.061,2.29,2.29,0,0,0,.609-.171c1.505-.792.947-3.263.667-4.555-.914-4.226-1.484-8.531-2.032-12.8-.3-2.456-.637-4.911-1.036-7.351a15.578,15.578,0,0,0-.972-4.32c-.3-.609-.545-1.072-.737-1.429A2.035,2.035,0,0,0,210.111,172.915Z" transform="translate(-155.083 -130.664)" fill="#fff" stroke="#263238" stroke-miterlimit="10" stroke-width="1"/><path d="M255.77,210.787s.091.1,2.967-.737" transform="translate(-206.126 -160.983)" fill="none" stroke="#263238" stroke-miterlimit="10" stroke-width="1"/><path d="M262.144,230q-.113-.914-.235-1.828h-10.4c-.271,3.217-.521,6.971-.561,7.577-.125,1.992-.183,3.988-.265,5.984-.061,1.505-.743,4.387.914,5.3a8.117,8.117,0,0,0,3.071.536,28.836,28.836,0,0,0,8.226-.061,2.291,2.291,0,0,0,.609-.171c1.505-.792.948-3.263.667-4.555C263.265,238.568,262.692,234.278,262.144,230Z" transform="translate(-202.458 -173.583)" fill="#263238" stroke="#263238" stroke-miterlimit="10" stroke-width="1"/><path d="M280.151,271.273s-11.62,1.255-13.375,1.359-4.494-.21-6.687.3S251.1,274.4,251.1,274.4s-4.826-.3-5.92-.207-3.729,3.239-3.729,3.239h41.224s3.071-1.359,2.961-3.449S283.661,270.124,280.151,271.273Z" transform="translate(-196.168 -203.302)" fill="#fff" stroke="#263238" stroke-miterlimit="10" stroke-width="1"/><path d="M341.13,272.166v5.286h10.855s3.071-1.359,2.961-3.449-1.974-3.866-5.484-2.718C349.462,271.283,344.957,271.77,341.13,272.166Z" transform="translate(-265.48 -203.312)" fill="#707070" stroke="#263238" stroke-miterlimit="10" stroke-width="1"/><path d="M274.368,185.887s2.075-2.608,2.562-2.318.353.951.158,1.249a10.994,10.994,0,0,1-2.306,1.67C274.444,186.585,274.1,186.347,274.368,185.887Z" transform="translate(-218.99 -142.554)" fill="#b2b2b2" stroke="#263238" stroke-miterlimit="10" stroke-width="1"/><path d="M281.288,196.969s1.7-2.133,2.105-1.907.289.783.128,1.027a9.117,9.117,0,0,1-1.895,1.374C281.352,197.542,281.066,197.35,281.288,196.969Z" transform="translate(-223.814 -150.55)" fill="#b2b2b2" stroke="#263238" stroke-miterlimit="10" stroke-width="1"/><path d="M278.662,193.427s2.072-2.608,2.559-2.318a.9.9,0,0,1,.158,1.249,11.008,11.008,0,0,1-2.3,1.667C278.741,194.119,278.394,193.887,278.662,193.427Z" transform="translate(-221.977 -147.797)" fill="#b2b2b2" stroke="#263238" stroke-miterlimit="10" stroke-width="1"/><path d="M275.037,189.809s2.361-2.97,2.916-2.638a1.028,1.028,0,0,1,.18,1.42,12.748,12.748,0,0,1-2.623,1.9C275.128,190.6,274.726,190.336,275.037,189.809Z" transform="translate(-219.446 -145.057)" fill="#b2b2b2" stroke="#263238" stroke-miterlimit="10" stroke-width="1"/><path d="M171.67,201.224s.049.046.128.128a5.176,5.176,0,0,1,1.149,1.73c.244.859.43,1.414.609,1.475s1.657.369,2.087-.491-1.959-3.178-1.959-3.178S171.8,200.651,171.67,201.224Z" transform="translate(-147.648 -154.579)" fill="#b2b2b2" stroke="#263238" stroke-miterlimit="10" stroke-width="1"/><path d="M174.631,198.529a13.437,13.437,0,0,1-1.974-.274c-.494-.165-.987.548-.987,1.155s2.906.548,3.351.11S175.289,198.694,174.631,198.529Z" transform="translate(-147.648 -152.765)" fill="#b2b2b2" stroke="#263238" stroke-miterlimit="10" stroke-width="1"/><path d="M177.462,200.014s-2.023,3.373-1.59,3.857,1.06.094,1.3-.244a15.612,15.612,0,0,0,1.015-3.324C178.187,199.867,177.849,199.544,177.462,200.014Z" transform="translate(-150.527 -153.844)" fill="#b2b2b2" stroke="#263238" stroke-miterlimit="10" stroke-width="1"/><path d="M190.313,204.836s-1.663,2.772-1.307,3.168.871.079,1.069-.2a12.843,12.843,0,0,0,.835-2.742C190.91,204.717,190.633,204.449,190.313,204.836Z" transform="translate(-159.667 -157.225)" fill="#b2b2b2" stroke="#263238" stroke-miterlimit="10" stroke-width="1"/><path d="M186.29,202.526s-2.026,3.37-1.59,3.854,1.06.094,1.3-.241a15.578,15.578,0,0,0,1.011-3.327C187.012,202.377,186.674,202.042,186.29,202.526Z" transform="translate(-156.665 -155.586)" fill="#b2b2b2" stroke="#263238" stroke-miterlimit="10" stroke-width="1"/><path d="M181.835,199.167s-2.306,3.839-1.813,4.387,1.219.11,1.484-.274a18.318,18.318,0,0,0,1.152-3.784C182.657,199,182.273,198.627,181.835,199.167Z" transform="translate(-153.407 -153.232)" fill="#b2b2b2" stroke="#263238" stroke-miterlimit="10" stroke-width="1"/><rect width="56.316" height="9.938" rx="4.969" transform="translate(0.585 73.26)" fill="#474747" stroke="#263238" stroke-miterlimit="10" stroke-width="1"/><rect width="56.316" height="9.938" rx="4.969" transform="translate(56.901 73.26)" fill="#474747" stroke="#263238" stroke-miterlimit="10" stroke-width="1"/><rect width="3.147" height="45.044" transform="translate(4.064 85.352)" fill="#919191" stroke="#263238" stroke-miterlimit="10" stroke-width="1"/><rect width="3.147" height="4.424" transform="translate(4.064 85.352)" fill="#263238" stroke="#263238" stroke-miterlimit="10" stroke-width="1"/><rect width="3.147" height="45.044" transform="translate(105.102 85.352)" fill="#919191" stroke="#263238" stroke-miterlimit="10" stroke-width="1"/><rect width="3.147" height="4.424" transform="translate(105.102 85.352)" fill="#263238" stroke="#263238" stroke-miterlimit="10" stroke-width="1"/><rect width="3.147" height="45.044" transform="translate(55.412 85.352)" fill="#919191" stroke="#263238" stroke-miterlimit="10" stroke-width="1"/><rect width="3.147" height="4.424" transform="translate(55.412 85.352)" fill="#263238" stroke="#263238" stroke-miterlimit="10" stroke-width="1"/><rect width="113.806" height="5.015" transform="translate(0 82.016)" fill="#919191" stroke="#263238" stroke-miterlimit="10" stroke-width="1"/></g></g></g></svg>