<svg xmlns="http://www.w3.org/2000/svg" xmlns:xlink="http://www.w3.org/1999/xlink" width="115" height="114" viewBox="0 0 115 114"><defs><clipPath id="a"><ellipse cx="55.5" cy="54.5" rx="55.5" ry="54.5" transform="translate(-0.421 -0.009)" fill="#f1f1f1"/></clipPath><clipPath id="b"><circle cx="55.5" cy="55.5" r="55.5" transform="translate(3231 1253)" fill="#d5d9fb"/></clipPath></defs><g transform="translate(-2946 -2497)"><circle cx="57" cy="57" r="57" transform="translate(2946 2497)" fill="#d5d9fb"/><g transform="translate(-281 1244)"><g transform="translate(3227.421 1256.01)" clip-path="url(#a)"><g transform="translate(-61.013 -36.138)"><g transform="translate(7.396 0)"><path d="M246.985,89.048S224.12,69.475,193.629,77.2s-43.8,33.543-61.6,51.081c-9.323,9.186-22.865,12.342-33.835,19.321-35.115,22.294-31.217,74.45-5.013,94.7,22.688,17.526,51.487,19.979,89.312,8.329s64.863-18.544,88.98-53.882S275.086,115.549,246.985,89.048Z" transform="translate(-72.685 -75.394)" fill="#7380f3"/><path d="M246.985,89.048S224.12,69.475,193.629,77.2s-43.8,33.543-61.6,51.081c-9.323,9.186-22.865,12.342-33.835,19.321-35.115,22.294-31.217,74.45-5.013,94.7,22.688,17.526,51.487,19.979,89.312,8.329s64.863-18.544,88.98-53.882S275.086,115.549,246.985,89.048Z" transform="translate(-72.685 -75.394)" fill="#fff" opacity="0.7"/></g><g transform="translate(0 85.096)"><path d="M62.264,243.823a14.077,14.077,0,0,0,4.081.452s-.623-1.9-.675-2.012c-.64-1.332-2.647-3.527-4.287-3.3a1.955,1.955,0,0,0-1.566,2.447A4.093,4.093,0,0,0,62.264,243.823Z" transform="translate(-59.748 -230.549)" fill="#263238"/><path d="M112.438,243.089s.526-1.926.572-2.052c.2-1.458-.263-4.4-1.749-5.116A1.949,1.949,0,0,0,108.6,237.1a4.07,4.07,0,0,0,.7,3.361A13.508,13.508,0,0,0,112.438,243.089Z" transform="translate(-80.614 -229.18)" fill="#263238"/><path d="M100.4,227.667c-1.641-.177-3.59,2.075-4.19,3.43-.051.12-.652,2.035-.623,2.029h.034c-.309.354-.64.737-.989,1.143-.64.789-1.36,1.686-2.075,2.715a34.865,34.865,0,0,0-2.155,3.43,25.816,25.816,0,0,0-1.841,4.139s0,.034,0,.051v-1.938c-.189-1.463-1.412-4.173-3.035-4.476a1.955,1.955,0,0,0-2.258,1.835,4.122,4.122,0,0,0,1.572,3.058,14.614,14.614,0,0,0,3.7,1.715,34.978,34.978,0,0,0-1.086,4.487c-.154.88-.286,1.778-.406,2.675v-.846c-.189-1.458-1.418-4.173-3.041-4.476a1.961,1.961,0,0,0-2.252,1.841,4.132,4.132,0,0,0,1.572,3.058,12.888,12.888,0,0,0,3.59,1.652c-.046.349-.091.692-.131,1.035-.2,1.658-.389,3.315-.623,4.933-.086.572-.189,1.143-.292,1.715v-.732c-.189-1.463-1.418-4.179-3.041-4.476a1.955,1.955,0,0,0-2.252,1.835,4.122,4.122,0,0,0,1.572,3.058,12.18,12.18,0,0,0,3.487,1.623c-.126.572-.24,1.143-.383,1.715-.109.366-.183.732-.309,1.1s-.234.726-.354,1.086c-.246.68-.5,1.389-.755,2.046-.177.457-.354.892-.532,1.332.091-.572.24-1.681.246-1.772a7.609,7.609,0,0,0-1.018-3.693,2.706,2.706,0,0,0-.029-.429,1.955,1.955,0,0,0-2.389-1.658c-1.595.423-2.607,3.224-2.681,4.7,0,.086.051,1.035.1,1.629-.08-.349-.154-.686-.24-1.04-.171-.7-.36-1.406-.572-2.161-.109-.36-.223-.72-.332-1.092s-.257-.737-.389-1.115c-.314-.863-.675-1.715-1.058-2.578a12.853,12.853,0,0,0,3.681-1.378,4.057,4.057,0,0,0,1.789-2.932,1.949,1.949,0,0,0-2.109-2c-1.641.177-3.064,2.8-3.361,4.236,0,.091-.12,1.143-.16,1.715-.234-.509-.469-1.023-.72-1.538-.732-1.475-1.521-2.95-2.287-4.419-.24-.452-.469-.9-.709-1.355a13.358,13.358,0,0,0,3.819-1.412,4.064,4.064,0,0,0,1.789-2.932,1.949,1.949,0,0,0-2.109-2c-1.641.177-3.064,2.8-3.361,4.236,0,.109-.16,1.635-.177,2.024-.52-.995-1.023-1.989-1.481-3a34.26,34.26,0,0,1-1.692-4.236,12.754,12.754,0,0,0,3.836-1.412,4.1,4.1,0,0,0,1.795-2.932,1.955,1.955,0,0,0-2.109-2c-1.646.177-3.07,2.79-3.367,4.236,0,.091-.126,1.258-.16,1.812h-.1a25.89,25.89,0,0,1-.817-4.384c-.091-.817-.131-1.606-.154-2.378a13.125,13.125,0,0,0,3.876-.972,4.024,4.024,0,0,0,2.1-2.721,1.955,1.955,0,0,0-1.881-2.218c-1.652,0-3.35,2.441-3.807,3.841,0,.074-.189.88-.3,1.469v-1.04c0-1.246.08-2.389.16-3.4.051-.572.1-1.1.166-1.583a13.14,13.14,0,0,0,2.972-2.635,4.035,4.035,0,0,0,.612-3.384,1.949,1.949,0,0,0-2.687-1.1c-1.469.76-1.852,3.71-1.612,5.145,0,.126.572,2.058.6,2.041h0c-.063.469-.126.966-.183,1.515-.1,1.012-.206,2.155-.234,3.43a35.1,35.1,0,0,0,.091,4.053,25.583,25.583,0,0,0,.755,4.464.183.183,0,0,0,0,.051c-.263-.406-1.029-1.526-1.1-1.6-.96-1.115-3.481-2.7-5-2.058a1.949,1.949,0,0,0-.863,2.772,4.225,4.225,0,0,0,3,1.715,13.336,13.336,0,0,0,4-.629,34.424,34.424,0,0,0,1.566,4.339q.54,1.235,1.143,2.458c-.234-.349-.452-.652-.486-.692-.96-1.115-3.481-2.7-5-2.058a1.949,1.949,0,0,0-.846,2.721,4.091,4.091,0,0,0,2.99,1.681,14.37,14.37,0,0,0,3.91-.572l.463.932c.749,1.492,1.5,2.978,2.2,4.453.246.526.469,1.046.692,1.566-.206-.309-.389-.572-.417-.6-.966-1.115-3.487-2.7-5-2.058a1.955,1.955,0,0,0-.869,2.778,4.225,4.225,0,0,0,3,1.715,11.274,11.274,0,0,0,3.8-.572c.217.543.429,1.08.612,1.618.12.366.257.715.349,1.086l.309,1.1c.172.7.349,1.429.5,2.121.1.48.2.943.292,1.406-.234-.52-.726-1.532-.777-1.612-.783-1.252-3.03-3.2-4.63-2.8a1.949,1.949,0,0,0-1.275,2.612,4.072,4.072,0,0,0,2.7,2.121,13.8,13.8,0,0,0,4.047,0c.154.766.3,1.515.417,2.224.434,2.452.7,4.51.863,5.951.034.257.057.486.08.7H73.094l1.532,29.914h9.032l1.532-29.914h-4.63l.1-.212c.635-1.32,1.515-3.224,2.469-5.551.3-.737.606-1.526.915-2.344a13.679,13.679,0,0,0,4.036.314,4.088,4.088,0,0,0,2.858-1.909,1.955,1.955,0,0,0-1.08-2.7c-1.561-.526-3.95,1.252-4.825,2.441-.051.069-.532.892-.823,1.412.126-.332.252-.652.377-1,.246-.68.48-1.366.726-2.1l.326-1.092c.12-.366.194-.76.3-1.143.212-.9.383-1.812.537-2.738a12.577,12.577,0,0,0,3.83.88,4.076,4.076,0,0,0,3.11-1.458,1.949,1.949,0,0,0-.657-2.83c-1.463-.76-4.093.635-5.145,1.675-.069.069-.732.9-1.092,1.36.091-.572.183-1.115.252-1.681.2-1.635.354-3.3.52-4.962.046-.509.1-1.012.154-1.521a13.6,13.6,0,0,0,3.961.932,4.106,4.106,0,0,0,3.115-1.458,1.961,1.961,0,0,0-.657-2.858c-1.469-.755-4.1.64-5.145,1.681-.08.08-1.035,1.275-1.263,1.589.12-1.115.246-2.224.417-3.315a34.774,34.774,0,0,1,.949-4.356,13.87,13.87,0,0,0,4,.932,4.08,4.08,0,0,0,3.11-1.452,1.961,1.961,0,0,0-.652-2.858c-1.469-.755-4.1.64-5.145,1.681-.069.069-.8.977-1.143,1.418l-.08-.046a25.037,25.037,0,0,1,1.715-4.139c.372-.732.772-1.412,1.178-2.069a13.131,13.131,0,0,0,3.773,1.326,4.017,4.017,0,0,0,3.253-1.109,1.955,1.955,0,0,0-.343-2.858c-1.378-.909-4.144.189-5.293,1.1-.063.051-.646.629-1.063,1.058.189-.292.372-.6.572-.875.692-1.04,1.383-1.949,2.006-2.75.36-.452.692-.857,1.006-1.229a12.462,12.462,0,0,0,3.939-.572,4.093,4.093,0,0,0,2.378-2.481,1.955,1.955,0,0,0-1.635-2.441Zm-18.172,44.1c-.995,2.287-1.9,4.15-2.561,5.442-.131.263-.252.492-.36.7h-.114a7.294,7.294,0,0,0-.109-.835c-.2-1.458-.514-3.527-1.006-6-.154-.777-.332-1.606-.52-2.458a21.26,21.26,0,0,0,2.287-1.063,14.3,14.3,0,0,0,3.287,2.127C82.811,270.413,82.514,271.111,82.228,271.768Z" transform="translate(-59.928 -224.259)" fill="#263238"/></g><g transform="translate(172.983 95.283)"><path d="M376.266,326.72,363.69,341.205l32.395,6.477L408.66,333.2Z" transform="translate(-362.93 -278.337)" fill="#fff" stroke="#263238" stroke-linecap="round" stroke-linejoin="round" stroke-width="1"/><path d="M362.36,381.785l.76-29.725,32.394,6.477V388.8" transform="translate(-362.36 -289.192)" fill="#9c9c9c" stroke="#263238" stroke-linecap="round" stroke-linejoin="round" stroke-width="1"/><line y2="30.102" transform="translate(45.731 54.865)" fill="#fff" stroke="#263238" stroke-linecap="round" stroke-linejoin="round" stroke-width="1"/><path d="M396.2,313.87l.137,11.421-3.533,4.036,11.976,2.7,3.281-4.287v-10.85Z" transform="translate(-375.399 -272.832)" fill="#858585" stroke="#263238" stroke-linecap="round" stroke-linejoin="round" stroke-width="1"/><line x2="11.724" y2="2.452" transform="translate(20.933 52.459)" fill="none" stroke="#263238" stroke-linecap="round" stroke-linejoin="round" stroke-width="1"/><path d="M416.18,291.829l-1.429,1.521L371.69,243.063l1.429-.983,43.061,9.129Z" transform="translate(-366.357 -242.08)" fill="#263238" stroke="#263238" stroke-linecap="round" stroke-linejoin="round" stroke-width="1"/><path d="M414.751,294.087l-43.061-9.129V243.8l43.061,9.129Z" transform="translate(-366.357 -242.817)" fill="#263238" stroke="#263238" stroke-linecap="round" stroke-linejoin="round" stroke-width="1"/><path d="M413.753,292.919l-35.093-7.437V251.95l35.093,7.437Z" transform="translate(-369.342 -246.308)" fill="#fff" stroke="#263238" stroke-linecap="round" stroke-linejoin="round" stroke-width="1"/><line y1="26.095" x2="35.093" transform="translate(9.318 13.079)" fill="none" stroke="#263238" stroke-linecap="round" stroke-linejoin="round" stroke-width="1"/><path d="M366.96,358.89V365.7l28.262,6.059v-7.065Z" transform="translate(-364.33 -292.117)" fill="#fff" stroke="#263238" stroke-linecap="round" stroke-linejoin="round" stroke-width="1"/><path d="M366.96,376.98v6.814l28.262,6.054v-7.065Z" transform="translate(-364.33 -299.867)" fill="#fff" stroke="#263238" stroke-linecap="round" stroke-linejoin="round" stroke-width="1"/></g></g></g><g clip-path="url(#b)"><g transform="translate(3086.549 993.146)"><path d="M317.217,413.226c-.33-2.871,1.436-6.388-3.029-7.8,0,0-9.92-1.148-12.475-1.895s-15.691-.775-19.61-.732-7.939-.187-5.469,1.249a7.493,7.493,0,0,0,4.393.976c-1.809.244-7.695,1.077-6.015,1.881,1.967.962,4.235,1.809,4.235,1.809s-7.25-.1-5.082,1.436a11.972,11.972,0,0,0,5.225,1.794s-8.613,1.68-5.742,2.34,9.245,3.015,11.9,3.072,5.168-1.148,8.513,0,5.039,2.2,7.379,1.436,3.689-1.608,4.881-1.048,2.871.66,5.584,0S317.547,416.011,317.217,413.226Zm-34.453-8.613,14.9.388c-6.69,1.608-14.944-.474-14.944-.474Zm-.33,4.694s13.379-3,17.327-1.105Zm.531,3.431c-3.632-1.034,15.375-1.077,15.375-1.077,4.594,2.914-11.786,2.067-15.418,1.034Z" transform="translate(-273.062 -98.693)" fill="#fff" stroke="#263238" stroke-miterlimit="10" stroke-width="1"/><path d="M362.42,407.682c3.89-2.01,4.924-5.656,1.823-10.81s-7.034-6.072-7.034-6.072-3.374-3.1-5.1.459a8.24,8.24,0,0,1-4.048,4.307L311.343,408.73a31.913,31.913,0,0,1-7.422,1.278c-4.795.359-3.876,3.962-2.455,8.068s5.082,6.1,9.259,3.015,6.1-5.082,7.278-5.484,29.285-8.226,33.693-7.781S358.53,409.692,362.42,407.682Zm-44.344,3.6a10.049,10.049,0,0,1-9.116-.761L348.5,398.753c1.364.172,1.436,2.426,0,2.871S323.646,409.362,318.076,411.285Z" transform="translate(-261.187 -104.461)" fill="#fff" stroke="#263238" stroke-miterlimit="10" stroke-width="1"/><path d="M404.793,357.648s4.02,2.34,4.953-3.575-2.756-8.786-5.742-8.01-4.953,3.575-8.025,3.919-2.211-2.354-4.881-3.919-7.422,1.034-10.8,8.039,1.708,5.671-.991,10.91-24.921,39.65-30.865,43.009-9.073.8-10.465,5.01-1.436,7.407,1.852,7.9,8.786-2.756,8.714.431-2.1,6.675,1.335,5.1,7.408-2.871,8.527-7.178-.416-4.192,2.24-8.743S385.987,369,388.772,366.678s6.331-3.474,6.733-5.383-1.436-3.015.962-4.106S404.793,357.648,404.793,357.648Z" transform="translate(-245.176 -123.593)" fill="#fff" stroke="#263238" stroke-miterlimit="10" stroke-width="1"/><path d="M400.162,450.169c2.785.646,6.5-.675,7.422,3.876,0,0,0,10.049.5,12.6s-.962,15.676-1.436,19.567-.689,7.91-1.838,5.3a7.493,7.493,0,0,1-.488-4.465c-.431,1.766-1.924,7.522-2.541,5.742-.732-2.067-1.321-4.407-1.321-4.407s-.7,7.178-2,4.881a12.044,12.044,0,0,1-1.206-5.383s-2.613,8.369-2.943,5.455-1.981-9.518-1.751-12.159,1.708-5.024.962-8.47-1.622-5.24-.56-7.479,2.024-3.488,1.579-4.737-.33-2.871.589-5.556S397.391,449.523,400.162,450.169Zm4.809,35.243,1.249-14.844C403.837,476.985,404.971,485.412,404.971,485.412Zm-4.723-.187s4.479-12.92,3.015-17.1Zm-3.345-.9c.632,3.718,2.785-15.16,2.785-15.16C397.233,464.209,396.286,480.589,396.9,484.321Z" transform="translate(-221.049 -78.099)" fill="#fff" stroke="#263238" stroke-miterlimit="10" stroke-width="1"/><path d="M416.446,412.435c2.426-3.646,6.159-4.307,10.939-.617s5.269,7.666,5.269,7.666,2.7,3.689-1.019,5.01a8.269,8.269,0,0,0-4.795,3.546l-17.1,35.1a31.586,31.586,0,0,0-2.082,7.178c-.89,4.723-4.378,3.4-8.3,1.536s-5.5-5.742-1.967-9.518,5.742-5.513,6.259-6.632,11.4-28.194,11.484-32.63S414.02,416.024,416.446,412.435Zm-8.5,43.67a10.049,10.049,0,0,0-.244,9.145l16.078-37.985c0-1.436-2.254-1.766-2.871-.359S410.488,450.778,407.947,456.1Z" transform="translate(-219.762 -95.834)" fill="#fff" stroke="#263238" stroke-miterlimit="10" stroke-width="1"/><path d="M404.668,356.035s-4.651,0-2.484-5.57,6.819-6.2,8.987-4.034,2.469,5.584,4.953,7.436,3.1-.933,6.2-.933,5.886,4.651,5.269,12.4-4.307,4.02-4.651,9.905,1.55,46.785,4.953,52.671,7.436,5.268,6.5,9.6-2.469,7.178-5.57,5.886-6.2-6.819-7.752-4.02-1.55,6.8-3.718,3.718-4.953-6.2-3.718-10.537,2.484-3.417,2.484-8.685-.933-48.637-2.168-52.039-3.718-6.2-3.1-8.054,2.785-1.866,1.235-4.034S404.668,356.035,404.668,356.035Z" transform="translate(-217.072 -123.745)" fill="#fff" stroke="#263238" stroke-miterlimit="10" stroke-width="1"/><path d="M404.8,241.62l-.589,4.465a13.926,13.926,0,0,1-5.972,2.082c-2.685,0-9.834-1.78-17.887-1.78s-16.983,1.436-18.174,3.876,7.451,8.039,8.613,12.518.6,11.025,3.575,14.356,7.752,7.451,14.011.6,2.986-15.5,1.794-18.476-8.944-2.684-11.628-3.589-8.053-5.068-8.053-5.068a78.755,78.755,0,0,1,13.121-2.082c4.465,0,30.147,2.082,37.325,2.082h19.682c6.546,0,7.451.9,3.876,2.986s-5.369,2.082-9.848,2.383-10.135,4.479-7.738,9.834,5.068,13.724,11.327,15.2,8.613-2.082,10.422-8.039,2.685-15.2,7.451-18.49,8.355-3.273,2.685-4.766-22.05-2.082-29.8-2.082-11.327.3-12.518-1.436,0-5.369,0-5.369l-11.93-.89Z" transform="translate(-234.297 -169.625)" fill="#b5b5b5" stroke="#263238" stroke-linejoin="round" stroke-width="1"/><path d="M444.023,278.587c2.383-2.4-30.147-1.794-32.5-2.685a2.871,2.871,0,0,1-1.436-3.575c-.416-2.139-2.225-1.68-3.216-1.235-.976-.445-2.785-.9-3.216,1.235a2.871,2.871,0,0,1-1.436,3.575c-2.4.89-34.884.287-32.5,2.685s12.82,4.766,19.38,5.068l13.121.589-.3,6.561s-14.356.89-20.572,2.082-3.876,3.575,1.191,4.479,14.9-1.191,16.093-1.191,3.589-1.436,3.876-.6,1.794,2.685-.589,3.287-20.572,2.383-24.749,2.67-2.383,2.685,2.4,2.685,13.107.6,15.791,0a57.64,57.64,0,0,1,5.958-.89s.6.89-.589,1.794a9.36,9.36,0,0,1-6.259,2.67c-3.876.3-11.039.3-16.107,1.192s-9.532,3.589-3.862,3.876a57.324,57.324,0,0,0,14-.589c6.862-.89,13.724-5.068,14.011-3.574a4.867,4.867,0,0,1-.589,4.163c-.89.9-7.178.3-11.628,1.436s-11.025,3.876-6.259,4.479,16.7-4.177,17.586-.3-3.876,2.986-4.766,5.068,3.273,2.383,3.273,2.383a4.307,4.307,0,0,1-1.191,3.575c-1.436,1.191-2.082,2.685-.589,3.575s3.273,2.1,2.082,2.986a46.371,46.371,0,0,0-4.177,2.986c-1.794,1.55.6,2.082,2.383,2.082s2.4.89,1.794,2.383-5.068-.3-3.575,2.082,3.575.3,3.575,1.794,0,2.986-2.082,3.273-2.383,2.383-1.436,2.383,2.383-1.191,2.082.3l-.3,1.436s1.794-1.794,1.794,1.436-3.876-1.794-8.613-5.958-14.9,3.273-17.887,7.451-3.876,12.82.89,17.227,10.135,2.986,10.738,5.958,5.068,4.177,5.369,8.613,2.972,7.178,7.738,7.752c4.422.56,7.809-3.488,8.283-4.091.474.6,3.876,4.651,8.283,4.091,4.78-.589,7.465-3.273,7.752-7.752s4.78-5.656,5.369-8.613,5.958-1.436,10.738-5.958,3.862-13.121.89-17.227-13.121-11.628-17.887-7.451-8.613,9.231-8.613,5.958,1.78-1.436,1.78-1.436l-.287-1.436c-.3-1.436,1.191-.3,2.082-.3s.6-2.082-1.436-2.383-2.082-1.78-2.082-3.273,2.082.6,3.575-1.794-2.986-.589-3.575-2.082,0-2.383,1.78-2.383,4.177-.6,2.4-2.082-2.986-2.1-4.177-2.986.589-2.082,2.082-2.986.9-2.383-.589-3.575a4.307,4.307,0,0,1-1.191-3.575s4.163-.3,3.273-2.383-5.656-1.191-4.766-5.068,12.82.89,17.586.3-1.794-3.287-6.259-4.479-10.738-.589-11.628-1.436a4.866,4.866,0,0,1-.589-4.163c.287-1.436,7.178,2.684,14,3.575a57.425,57.425,0,0,0,14.011.589c5.67-.287,1.191-2.972-3.876-3.876s-12.217-.89-16.093-1.191a9.36,9.36,0,0,1-6.259-2.67c-1.192-.9-.589-1.794-.589-1.794a57.65,57.65,0,0,1,5.958.89c2.684.6,11.025,0,15.791,0s6.561-2.383,2.383-2.685-22.352-2.082-24.735-2.67-.89-2.4-.589-3.287,2.67.6,3.862.6,11.039,2.082,16.107,1.191,7.451-3.287,1.192-4.479-20.859-2.082-20.859-2.082l-.3-6.561,13.121-.589C431.2,283.353,441.625,280.97,444.023,278.587ZM394.8,390.992c-2.785-5.269,8.369.3,8.369.3C404.4,393.777,397.6,396.26,394.8,390.992Zm19.883,2.785a3.618,3.618,0,0,1-4.034-.933c-.617-.919,6.5-2.785,6.5-2.785C420.824,388.508,416.115,393.145,414.68,393.777Zm-.732-27.563c2.4-1.191,5.972,1.191,8.053,5.068s-.6,3.876-5.958,10.738c-4.823,6.159-8.441,6.532-9.116,6.546H406.8c-.675,0-4.307-.388-9.116-6.546-5.369-6.862-8.053-6.862-5.958-10.738s5.656-6.259,8.039-5.068,2.986,4.766,5.369,5.369l1.077.258v.33l.646-.158.66.158v-.33l1.077-.258c2.34-.6,2.929-4.177,5.312-5.369Z" transform="translate(-231.017 -156.218)" fill="#fff" stroke="#263238" stroke-linejoin="round" stroke-width="1"/><path d="M411.521,275.9a2.871,2.871,0,0,1-1.436-3.575c-.416-2.139-2.225-1.68-3.216-1.235-.976-.445-2.785-.9-3.216,1.235a2.871,2.871,0,0,1-1.436,3.575c-2.4.89-34.884.287-32.5,2.684s12.82,4.766,19.38,5.068l13.121.589-.3,6.561s-14.356.89-20.572,2.082-3.876,3.575,1.191,4.479,14.9-1.191,16.093-1.191,3.589-1.436,3.876-.6,1.794,2.685-.589,3.287-20.572,2.383-24.749,2.67-2.383,2.684,2.4,2.684,13.107.6,15.791,0a57.641,57.641,0,0,1,5.958-.89s.6.89-.589,1.794a9.36,9.36,0,0,1-6.259,2.67c-3.876.3-11.039.3-16.107,1.191s-9.532,3.589-3.862,3.876a57.322,57.322,0,0,0,14-.589c6.862-.89,13.724-5.068,14.011-3.575a4.867,4.867,0,0,1-.589,4.163c-.89.9-7.178.3-11.628,1.436s-11.025,3.876-6.259,4.479,16.7-4.177,17.586-.3-3.876,2.986-4.766,5.068,3.273,2.383,3.273,2.383a4.307,4.307,0,0,1-1.191,3.574c-1.436,1.192-2.082,2.685-.589,3.575s3.273,2.1,2.082,2.986a46.37,46.37,0,0,0-4.177,2.986c-1.794,1.55.6,2.082,2.383,2.082s2.4.89,1.794,2.383-5.068-.3-3.575,2.082,3.575.3,3.575,1.794,0,2.986-2.082,3.273-2.383,2.383-1.436,2.383,2.383-1.191,2.082.3l-.3,1.436s1.794-1.794,1.794,1.436-3.876-1.794-8.613-5.958a4.953,4.953,0,0,0-2.685-1.149c-2.972,1.436-12.805,6.948-13.207,14.1-.459,8.427,8.9,10.767,15.92,12.647l.732.172c-1.579-1.723-1.967-2.67-.761-4.91,2.082-3.876,5.656-6.259,8.039-5.068s2.986,4.766,5.369,5.369l1.077.258V372l.646-.158.66.158v-.33l1.077-.258c2.383-.6,2.972-4.177,5.355-5.369s5.972,1.191,8.053,5.068c1.522,2.871.488,3.6-2.283,6.5a35.109,35.109,0,0,0,4.809-.833c8.886-2.34,14.973-6.561,12.633-17.787a45.359,45.359,0,0,0-1.507-5.5c-4.307-3.374-10.307-6.187-13.652-3.244-4.766,4.163-8.613,9.231-8.613,5.958s1.78-1.436,1.78-1.436l-.287-1.436c-.3-1.436,1.191-.3,2.082-.3s.6-2.082-1.436-2.383-2.082-1.78-2.082-3.273,2.082.6,3.575-1.794-2.986-.589-3.575-2.082,0-2.383,1.78-2.383,4.177-.6,2.4-2.082-2.986-2.1-4.177-2.986.589-2.082,2.082-2.986.9-2.383-.589-3.575a4.307,4.307,0,0,1-1.191-3.575s4.163-.3,3.273-2.383-5.656-1.191-4.766-5.068,12.82.89,17.586.3-1.794-3.287-6.259-4.479-10.738-.589-11.628-1.436a4.867,4.867,0,0,1-.589-4.163c.287-1.436,7.178,2.685,14,3.575a57.422,57.422,0,0,0,14.011.589c5.67-.287,1.191-2.972-3.876-3.876s-12.217-.89-16.093-1.191a9.36,9.36,0,0,1-6.259-2.67c-1.192-.9-.589-1.794-.589-1.794a57.658,57.658,0,0,1,5.958.89c2.684.6,11.025,0,15.791,0s6.561-2.383,2.383-2.684-22.352-2.082-24.735-2.67-.89-2.4-.589-3.287,2.67.6,3.862.6,11.039,2.082,16.107,1.191,7.451-3.287,1.192-4.479-20.859-2.082-20.859-2.082l-.3-6.561,13.121-.589c6.561-.3,16.983-2.684,19.38-5.068S413.9,276.865,411.521,275.9Z" transform="translate(-231.017 -156.218)" fill="#b5b5b5" stroke="#263238" stroke-linejoin="round" stroke-width="1"/><path d="M368.808,246l6.891,6.8s1.436.847-.517,2.369l-1.952,1.522-8.14-7.393Z" transform="translate(-232.978 -166.985)" fill="#fff" stroke="#263238" stroke-linejoin="round" stroke-width="1"/><path d="M392.525,251.76s2.871-4.163.991-7.881a7.178,7.178,0,0,0-10.939-1.766c-3.445,3.1-2.771,3.1-5.814,5.656s-49.57,30.735-53.963,31.97-7.465-.187-9.561,2.871,2.067,7.307,2.067,7.307a4.421,4.421,0,0,0,1.78,4.78c2.685,1.981,5.1,3.417,6.661.6s1.263-8.01,6.044-10.451,47.976-28.582,52.384-29.156S389.625,254.588,392.525,251.76Z" transform="translate(-255.819 -169.458)" fill="#fff" stroke="#263238" stroke-linejoin="round" stroke-width="1"/><path d="M321.977,276.086a2.082,2.082,0,0,0,.172,3.589c2.5,1.708,20.83,19.237,30.018,26.515a100.135,100.135,0,0,1,13.954,13.035c1.866,1.924,4.608,2.168,3.6-1.852s-3.747-3.847-5-5.125-33.319-32.042-36.234-35.028S323.039,275.052,321.977,276.086Z" transform="translate(-252.168 -154.291)" fill="#fff" stroke="#263238" stroke-linejoin="round" stroke-width="1"/><path d="M320.709,279.59s-4.221.8-2.168,4.192,15.791,14.959,21.246,20.514,18.734,19.193,21.648,21.347,6.962-.546,3.862-4.594-8.341-7.695-11.255-10.681-21.864-20.715-26.242-25.194S322.187,279.82,320.709,279.59Z" transform="translate(-253.498 -152.354)" fill="#fff" stroke="#263238" stroke-linejoin="round" stroke-width="1"/><path d="M363.32,310.434s-6.4-3.646-10.365-2.871-10.551,3.7-11.039,4.651.086,2.67,2.44,1.436,4.953-3.374,6.977-2.771-1.436,2.44-5.57,4.723-4.551,3.5-4.551,3.5a41.418,41.418,0,0,1-4.034,2.541,8.34,8.34,0,0,0-3.1,3.043s-4.967,2.713-2.871,2.871,4.378-.689,4.881-1.637,2.326-1.952,4.163-2.943,2.182-2.211,3.632-2.67a10.94,10.94,0,0,0,3.287-1.436L352.41,316c1.565-.847,2.871-1.565,2.4,0s-5.613,3.4-7.709,4.536-2.871,2.871-3.618,3.331l-2.871,1.565a4.809,4.809,0,0,0-1.68,1.924,3.173,3.173,0,0,0-3.015,1.321c-1.148,1.637-3.086,3.043-1.909,2.728a34.059,34.059,0,0,0,5.814-1.809,6.561,6.561,0,0,0,2.168-2.871,7.177,7.177,0,0,0,2.871-.9c1.565-.861,1.952-1.436,2.728-1.838a18.374,18.374,0,0,0,3.675-2c1.436-1.12,2.3-2.613,4.163-2.943s1.134,2.1-.962,3.23-5.513,2.326-6.015,3.287a3.718,3.718,0,0,1-2.326,1.952,5.1,5.1,0,0,0-2.483,1.68,9.3,9.3,0,0,1-2.469,1.694c-1.048.574-4.048,2.541-2.455,2.354a42.369,42.369,0,0,0,5.67-2.067c1.436-.459,1.78-2.34,3.115-2.383a4.306,4.306,0,0,0,3.158-1.048,14.456,14.456,0,0,1,2.871-2.225c1.048-.574,1.436-.459,3.015-1.321l3.144-1.708s-7.35,7.063-8.14,7.494-1.852.33-2.871,1.565-4.981,2.713-3.244,2.785,4.221-1.608,6.187-2.354a13.41,13.41,0,0,0,5.1-3.115,13.309,13.309,0,0,1,3.761-3.058,14.742,14.742,0,0,0,4.881-5.383C367.024,317.913,367.024,312.171,363.32,310.434Z" transform="translate(-247.961 -140.218)" fill="#fff" stroke="#263238" stroke-linejoin="round" stroke-width="1"/><path d="M340.161,312.808a2.038,2.038,0,0,0-2.972-1.091c-2.1,1.148-4.551,3.5-3.072,3.718S338.739,313.928,340.161,312.808Z" transform="translate(-246.665 -138.486)" fill="#fff" stroke="#263238" stroke-linejoin="round" stroke-width="1"/><path d="M429.337,245.14l-5.584,7.9s-1.278,1.077.9,2.239l2.2,1.163,6.718-8.7Z" transform="translate(-207.589 -167.36)" fill="#fff" stroke="#263238" stroke-linejoin="round" stroke-width="1"/><path d="M431.329,249.944s-4.436-2.455-4.378-6.618a7.178,7.178,0,0,1,9.03-6.431c4.465,1.263,3.862,1.55,7.723,2.5s58.04,5.627,62.533,4.795,6.6-3.474,9.862-1.637,1.436,7.465,1.436,7.465a4.436,4.436,0,0,1,.517,5.082c-1.536,2.957-3.058,5.312-5.742,3.488s-4.666-6.632-10.049-6.7-55.685-4.393-59.877-2.972S435.1,251.193,431.329,249.944Z" transform="translate(-206.034 -171.059)" fill="#fff" stroke="#263238" stroke-linejoin="round" stroke-width="1"/><path d="M501.687,260.346a2.082,2.082,0,0,1-3.531-.675c-1.335-2.728-16.078-23.342-21.993-33.463A100.494,100.494,0,0,0,465.3,210.532c-1.637-2.125-1.436-4.867,2.34-3.3s3.273,4.307,4.307,5.67,27,37.526,29.544,40.827S502.864,259.441,501.687,260.346Z" transform="translate(-189.757 -184.073)" fill="#fff" stroke="#263238" stroke-linejoin="round" stroke-width="1"/><path d="M498.565,260.954s-1.436,4.077-4.45,1.55-12.561-17.787-17.3-23.931-16.365-21.261-18.074-24.4,1.536-6.8,5.1-3.158,6.431,9.345,8.972,12.647,17.428,24.577,21.246,29.544S498.536,259.461,498.565,260.954Z" transform="translate(-192.391 -182.887)" fill="#fff" stroke="#263238" stroke-linejoin="round" stroke-width="1"/><path d="M458.383,208.848s3.086-6.69,6.79-8.326,10.738-3.1,11.7-2.613,1.436,2.225-1.192,2.541-5.986.129-7.293,1.78,2.541,1.192,7.278.617,5.742.215,5.742.215a43.393,43.393,0,0,0,4.78-.273,8.24,8.24,0,0,1,4.307.675s5.627-.675,3.991.732-3.962,1.967-4.924,1.436-3.029-.244-5.1,0-3.072-.531-4.508,0a11.485,11.485,0,0,1-3.517.718l-5.929.718c-1.766.215-3.244.388-1.924,1.436s6.546-.488,8.915-.775,3.991.718,4.881.617l3.259-.4a4.7,4.7,0,0,1,2.469.6,3.173,3.173,0,0,1,3.216-.689c1.881.675,4.307.689,3.144,1.12a35.5,35.5,0,0,1-5.742,1.909A6.633,6.633,0,0,1,485.3,209.8a7.178,7.178,0,0,1-2.871.947c-1.78.215-2.4,0-3.287.1a20.212,20.212,0,0,1-4.149.5c-1.809-.086-3.4-.8-5.1,0s.287,2.369,2.656,2.082,5.843-1.306,6.8-.833a3.66,3.66,0,0,0,3.029.244,5.154,5.154,0,0,1,2.986-.072,8.858,8.858,0,0,0,3,0c1.192-.144,4.766-.273,3.359.5a42.451,42.451,0,0,1-5.742,1.593c-1.436.474-2.871-.861-3.919-.129a4.307,4.307,0,0,1-3.187.991,14.743,14.743,0,0,0-3.632-.158c-1.177.144-1.436.474-3.216.689l-3.546.416s10.049,1.436,10.968,1.436,1.708-.8,3.259-.388,5.627-.675,4.307.388-4.307,1.134-6.4,1.68a13.438,13.438,0,0,1-5.958.416,13.235,13.235,0,0,0-4.838-.316,14.585,14.585,0,0,1-7.092-1.55C459.675,217.088,456.4,212.437,458.383,208.848Z" transform="translate(-192.606 -187.973)" fill="#fff" stroke="#263238" stroke-linejoin="round" stroke-width="1"/><path d="M472.287,199.817a2.024,2.024,0,0,1,1.78-2.613c2.369-.287,5.742.2,4.666,1.235S474.1,199.889,472.287,199.817Z" transform="translate(-186.326 -188.274)" fill="#fff" stroke="#263238" stroke-linejoin="round" stroke-width="1"/><path d="M397.045,253.469s-10.724-.6-14.011-.89S395.854,252.278,397.045,253.469Z" transform="translate(-225.355 -164.19)" fill="#fff" stroke="#263238" stroke-miterlimit="10" stroke-width="1"/><path d="M457.3,303.79c1.436-3.589-.9-3.287-3.589-1.436s-8.039.89-12.518.589-4.163-2.082-6.561-3.876,7.178,1.794,11.039,2.383a11.24,11.24,0,0,0,8.944-1.78c2.685-1.794,2.383-7.451.589-7.178s-4.177,2.383-6.848,4.163-9.546-.3-13.121-1.191-11.628-6.259-14.356-8.039S429.828,291,429.828,291a87.209,87.209,0,0,0,13.121,3.876c5.369.89,7.178-1.191,10.437-4.479s2.082-7.178-.3-5.958-10.738,3.876-15.5,3.273-11.915-3.876-15.791-5.355,3.273,0,7.178,1.191a47.633,47.633,0,0,0,17.887,1.436c5.958-.89,7.752-6.259,5.656-8.613s-5.068,2.383-10.724,3.287-11.628-1.192-15.791-1.436-10.724-1.191-7.451-2.082,15.5,1.191,22.653,1.191,8.944-4.479,7.451-7.465-1.78-2.67-5.355-.589-15.2,1.436-17.227,1.436-4.766-.6-5.355-2.383,6.546-1.436,11.025-1.436,9.245-.3,12.518-2.383,2.986-5.068,0-5.67-4.479,2.1-8.613,2.986a138.1,138.1,0,0,1-15.5,1.436,1.945,1.945,0,0,1-1.436-2.383c.359-.948,8.053-.6,12.518-.6s12.82-1.794,12.82-4.766-24.146-2.383-24.146-2.383l-.589-2.685h14.6c4.766,0,3.575-1.191.89-2.1s-16.093-.287-16.093-.287c-3.575-.3-7.881-.3-7.881-.3s-1.794,0-5.369.3c0,0-13.408-.6-16.093.287s-3.876,2.1.89,2.1h14.614l-.6,2.685s-24.146-.6-24.146,2.383,8.355,4.766,12.82,4.766,12.217-.3,12.518.6-.589,2.383-1.436,2.383a137.575,137.575,0,0,1-15.49-1.435c-4.178-.89-5.742-3.575-8.613-2.986s-3.273,3.575,0,5.67,8.054,2.383,12.532,2.383,11.614-.3,11.025,1.436-3.287,2.383-5.369,2.383-13.71.589-17.227-1.436-3.876-2.383-5.369.589.3,7.465,7.451,7.465,19.38-2.1,22.653-1.191-3.273,1.78-7.451,2.082-10.135,2.383-15.791,1.436-8.613-5.742-10.738-3.287-.3,7.752,5.67,8.613a47.56,47.56,0,0,0,17.873-1.436c3.876-1.191,11.039-2.685,7.178-1.191s-11.039,4.766-15.791,5.355-13.107-2.082-15.49-3.273-3.589,2.685-.3,5.958,5.068,5.369,10.437,4.479A87.394,87.394,0,0,0,394.312,291s11.628-5.369,8.944-3.575-10.724,7.178-14.356,8.039-10.422,2.986-13.107,1.191-5.068-3.876-6.862-4.163-2.082,5.355.6,7.178a11.24,11.24,0,0,0,8.944,1.78c3.876-.589,13.408-4.163,11.025-2.383s-2.082,3.575-6.561,3.876-9.834,1.192-12.518-.589-5.068-2.1-3.575,1.436,7.451,5.068,10.135,5.068,10.135-2.684,7.178-1.436-5.068,2.685-9.532,2.383-5.068-1.436-5.972-1.192-1.191,3.876,1.436,5.656a8.757,8.757,0,0,0,6.259.9s-4.465,2.082-6.546,2.082.287,3.876,5.053,2.684,5.972-4.177,9.848-8.053,7.451-13.408,11.327-16.7,12.518-9.231,14.356-9.532a9.1,9.1,0,0,0,1.866-.5,8.92,8.92,0,0,0,1.852.5c1.794.3,10.437,6.259,14.356,9.532s7.451,12.82,11.327,16.7,5.068,6.862,9.834,8.053,7.178-2.684,5.068-2.684-6.561-2.082-6.561-2.082a8.757,8.757,0,0,0,6.259-.9c2.685-1.78,2.383-5.355,1.436-5.656s-1.436.89-5.958,1.192-6.56-1.192-9.546-2.383,4.479,1.436,7.178,1.436S455.812,307.365,457.3,303.79Z" transform="translate(-232.412 -166.218)" fill="#fff" stroke="#263238" stroke-miterlimit="10" stroke-width="1"/><path d="M403.55,253.469s10.738-.6,14.011-.89S404.742,252.278,403.55,253.469Z" transform="translate(-216.226 -164.19)" fill="#fff" stroke="#263238" stroke-miterlimit="10" stroke-width="1"/><path d="M376.58,234.774s-7.838-12.159-8.039-23.084,8.456-16.983,17.227-18.964,18.662-4.307,23.471,5.34,7.752,17.528,7.565,20.73-.373,5.469-.373,5.469,3.962-.388,5.1,2.067,3.015,5.268,1.981,7.824-4.522,3.388-4.981,4.809,2.742,12.92,2,16.308-4.795,6.316-9.6,8.872-13.48,2-16.021,0-7.652-12.532-8.786-14.04-7.738-.56-10.049-4.795S374.211,236.181,376.58,234.774Z" transform="translate(-231.476 -190.959)" fill="#fff" stroke="#263238" stroke-linejoin="round" stroke-width="1"/><path d="M389.711,221.26s-2.728,4.063-1.436,6.13a3.144,3.144,0,0,0,3.589,1.321Z" transform="translate(-223.031 -177.761)" fill="#263238"/><path d="M390.11,221s4.622,1.593,4.823,4.048a3.158,3.158,0,0,1-2.11,3.13Z" transform="translate(-222.08 -177.874)" fill="#263238"/><path d="M381.11,231.718l4.436,7.623a8.384,8.384,0,0,0,1.78-6.876C386.565,228.316,381.569,230.3,381.11,231.718Z" transform="translate(-226 -173.964)" fill="#263238"/><path d="M404.025,224.161l.675,7.637s-6.13-3.287-6.13-6.115S404.025,224.161,404.025,224.161Z" transform="translate(-218.395 -176.628)" fill="#263238"/><path d="M390.978,218.62a6.718,6.718,0,1,1-3.354-3.92A6.718,6.718,0,0,1,390.978,218.62Z" transform="translate(-227.413 -180.934)" fill="#263238"/><path d="M404.456,214.373a8.4,8.4,0,1,1-10.638-5.312,8.4,8.4,0,0,1,10.638,5.312Z" transform="translate(-222.961 -183.263)" fill="#263238"/><path d="M400.481,236.123a8.918,8.918,0,0,1-1.78.388,1.665,1.665,0,0,1-1.306-.531c-.086,1.436-1.436,1.651-2.541,1.766l-.89.129a1.952,1.952,0,0,1-2.082-1.263,1.866,1.866,0,0,1-.459,1.436,3.833,3.833,0,0,1-2.756.89,2.311,2.311,0,0,1-1.794-.876,4.307,4.307,0,0,1-.732-2.986.617.617,0,0,1,.689-.531.632.632,0,0,1,.531.7h0a3.216,3.216,0,0,0,.5,2.067,1.177,1.177,0,0,0,.89.388,2.6,2.6,0,0,0,1.794-.531c.144-.144.086-.775,0-1.12a1.838,1.838,0,0,1,.215-1.436.861.861,0,0,1,.632-.273c.66,0,.962.632,1.249,1.249.416.847.66,1.22,1.034,1.148l.976-.129c1.321-.158,1.436-.273,1.436-.689a9.865,9.865,0,0,0-.445-2.613.6.6,0,0,1,.373-.775.646.646,0,0,1,.79.345c.545,1.364,1.364,2.469,1.665,2.483,2.139-.258,2.555-.847,2.627-1.077a5.942,5.942,0,0,0-.344-2.684.617.617,0,0,1,.373-.775.6.6,0,0,1,.79.345c.5,1.22,1.349,2.354,1.694,2.239,1.436-.5,2.139-.833,2.039-1.507a10.043,10.043,0,0,0-.833-2.469.62.62,0,1,1,1.105-.56,11.154,11.154,0,0,1,.948,2.871c.287,1.809-1.608,2.44-2.871,2.871a1.651,1.651,0,0,1-1.622-.445,2.166,2.166,0,0,1-.1.531,2.613,2.613,0,0,1-1.794,1.421Z" transform="translate(-223.824 -174.593)" fill="#263238"/><path d="M398.648,239.235h0a.617.617,0,0,1-.761-.33c-.933-2.053-1.593-2.4-1.895-2.412-.947-.072-2.11.215-2.412.833a2.742,2.742,0,0,0,0,1.723c.072.3.144.589.187.861a.617.617,0,0,1-.474.675.6.6,0,0,1-.732-.388c-.5-1.436-1.148-2.283-1.751-2.3a2.57,2.57,0,0,0-1.436.3.9.9,0,0,0-.546.746,4.163,4.163,0,0,0,.287,1.608c.1.287.2.6.287.947a.632.632,0,0,1-1.22.273,5.743,5.743,0,0,0-.244-.833,5.6,5.6,0,0,1-.359-2.053,2.125,2.125,0,0,1,1.177-1.766,3.9,3.9,0,0,1,2.053-.474,2.282,2.282,0,0,1,1.436.6,1.936,1.936,0,0,1,.158-.459,3.646,3.646,0,0,1,3.618-1.536,1.924,1.924,0,0,1,1.148.488c.086-1.522,1.536-1.866,2.7-2.139l.416-.1c1.062-.273,1.651.589,2.01,1.206a2.225,2.225,0,0,1,.187-1.766,3.575,3.575,0,0,1,2.5-1.292,1.981,1.981,0,0,1,1.637.531,3.244,3.244,0,0,1,.976,2.225.97.97,0,0,0,.072.431.632.632,0,0,1-.531.7.617.617,0,0,1-.7-.517v-.474a2.11,2.11,0,0,0-.646-1.436.861.861,0,0,0-.646-.158,2.44,2.44,0,0,0-1.594.775,2.21,2.21,0,0,0,.072,1.034,1.966,1.966,0,0,1-.086,1.55.89.89,0,0,1-.675.373c-.775.086-1.177-.6-1.436-1.148s-.531-.818-.718-.761l-.431.1c-1.292.3-1.723.488-1.737,1a4.551,4.551,0,0,0,.3,1.723,7.942,7.942,0,0,1,.273.976.617.617,0,0,1-.459.646Z" transform="translate(-223.182 -173.241)" fill="#263238"/></g></g><line x1="8" y1="8" transform="translate(3267.5 1290.5)" fill="none" stroke="#7380f3" stroke-linecap="round" stroke-width="3"/><line x1="14" transform="translate(3260.5 1305.5)" fill="none" stroke="#7380f3" stroke-linecap="round" stroke-width="3"/><line x1="8" y2="4" transform="translate(3267.5 1314.5)" fill="none" stroke="#7380f3" stroke-linecap="round" stroke-width="3"/></g></g></svg>