<svg xmlns="http://www.w3.org/2000/svg" xmlns:xlink="http://www.w3.org/1999/xlink" width="114" height="125.271" viewBox="0 0 114 125.271"><defs><clipPath id="a"><path d="M190.015,335.51s-3.318-4.64-5.067-5.015c-1.043-.223-3.29,1.232-3.451,2.507s1.479,8.338.986,9.816,2.166,5.626,4.1,7.864,2.465,3.546,3.792,1.74" transform="translate(-181.486 -330.472)" fill="#fff" stroke="#263238" stroke-linecap="round" stroke-linejoin="round" stroke-width="1"/></clipPath><clipPath id="b"><path d="M300.12,335.51s3.318-4.64,5.067-5.015c1.043-.223,3.29,1.232,3.451,2.507s-1.479,8.338-.986,9.816-2.166,5.626-4.1,7.864-2.465,3.546-3.792,1.74" transform="translate(-299.76 -330.472)" fill="#fff" stroke="#263238" stroke-linecap="round" stroke-linejoin="round" stroke-width="1"/></clipPath><clipPath id="c"><path d="M246.961,276.287c-.583-7.247-5.314-22.482-26.885-22.577h-.152c-21.572.095-26.3,15.329-26.885,22.577s2.493,34.18,3.583,39.271c1.166,5.456,6.679,9.48,12.419,15.471,4.147,4.342,4.792,4.9,10.9,4.963h.152c6.091-.066,6.736-.621,10.9-4.963,5.74-6.006,11.253-10.016,12.419-15.471C244.468,310.467,247.544,283.548,246.961,276.287Z" transform="translate(-192.966 -253.71)" fill="#fff" stroke="#263238" stroke-linecap="round" stroke-linejoin="round" stroke-width="1"/></clipPath></defs><g transform="translate(-2945 -2128)"><circle cx="57" cy="57" r="57" transform="translate(2945 2128)" fill="#d5d9fb"/><g transform="translate(2788.038 1893.499)"><path d="M246.588,420.631s-10.4-2.289-12.371-7.532,1.811-18.585,2.631-31.729H194.131c.82,13.144,4.6,26.482,2.631,31.729s-12.371,7.532-12.371,7.532,21.633,10.1,29.421,10.224C222.4,430.993,246.588,420.631,246.588,420.631Z" transform="translate(-1.527 -71.084)" fill="#fff"/><path d="M193.2,419.342c1.645.431,3.6.905,5.527,1.289,3.1.621,6.105,1,7.584.569a3.242,3.242,0,0,0,1.119-.569c2.522-1.948,2.019-7.219,2.019-7.219,19.6-1.455,27.937-18.993,28.193-19.538-2.024,7.721-6.845,20.382-5.489,25.458a2.5,2.5,0,0,0,.768,1.3c1.014.877,2.73.635,4.47,0a28.261,28.261,0,0,0,5.75-3.124,9.5,9.5,0,0,1-4.3-4.413c-1.972-5.242,1.811-18.581,2.631-31.725H198.765c.82,13.144,4.6,26.482,2.631,31.725C200.258,416.114,196.328,418.167,193.2,419.342Z" transform="translate(-6.161 -71.084)" fill="#7380f3" opacity="0.4"/><path d="M246.588,420.631s-10.4-2.289-12.371-7.532,1.811-18.585,2.631-31.729H194.131c.82,13.144,4.6,26.482,2.631,31.729s-12.371,7.532-12.371,7.532" transform="translate(-1.527 -71.084)" fill="none" stroke="#263238" stroke-miterlimit="10" stroke-width="1"/><path d="M247.421,394.813s-10.864,13.637-13.85,15.533c-3.92,2.507-12.414,2.37-14.4.251s-11.542-14.045-11.457-16.841C207.871,388.656,247.421,394.813,247.421,394.813Z" transform="translate(-13.793 -76.536)" fill="#263238"/><path d="M190.015,335.51s-3.318-4.64-5.067-5.015c-1.043-.223-3.29,1.232-3.451,2.507s1.479,8.338.986,9.816,2.166,5.626,4.1,7.864,2.465,3.546,3.792,1.74" transform="translate(0 -44.311)" fill="#fff"/><g transform="translate(181.486 286.161)" clip-path="url(#a)"><path d="M182.492,344.038c-.474,1.479,2.171,5.626,4.1,7.859s2.465,3.55,3.792,1.744c-1.422.536-2.522-2.427-1.868-3s.156-7.7-.773-8.8-2.019-8.532-3.664-9.006c-.654-.2-1.583.332-2.46,1.043a1.513,1.513,0,0,0-.1.365C181.34,335.5,182.98,342.56,182.492,344.038Z" transform="translate(-181.495 -331.692)" fill="#7380f3" opacity="0.4"/></g><path d="M190.015,335.51s-3.318-4.64-5.067-5.015c-1.043-.223-3.29,1.232-3.451,2.507s1.479,8.338.986,9.816,2.166,5.626,4.1,7.864,2.465,3.546,3.792,1.74" transform="translate(0 -44.311)" fill="none" stroke="#263238" stroke-linecap="round" stroke-linejoin="round" stroke-width="1"/><path d="M184.511,340.539s-.474-2.109.574-2.654,2.427,6.138,3.29,6.764.246,2.218,0,3.124.739,1.147.82,1.806.166,1.422-.327,1.559-2.218-1.067-2.711-2.052a17.164,17.164,0,0,1-.744-3.944" transform="translate(-1.535 -48.194)" fill="none" stroke="#263238" stroke-linecap="round" stroke-linejoin="round" stroke-width="1"/><path d="M189.457,348.574a.986.986,0,0,0-1.389.948" transform="translate(-3.462 -53.787)" fill="none" stroke="#263238" stroke-linecap="round" stroke-linejoin="round" stroke-width="1"/><path d="M300.12,335.51s3.318-4.64,5.067-5.015c1.043-.223,3.29,1.232,3.451,2.507s-1.479,8.338-.986,9.816-2.166,5.626-4.1,7.864-2.465,3.546-3.792,1.74" transform="translate(-62.212 -44.311)" fill="#fff"/><g transform="translate(237.548 286.161)" clip-path="url(#b)"><path d="M299.8,353.621c1.308,1.8,1.839.5,3.792-1.744s4.593-6.38,4.1-7.859,1.152-8.532.991-9.817a1.485,1.485,0,0,0-.1-.355c-.882-.716-1.815-1.251-2.474-1.052-1.645.474-2.735,7.925-3.664,9.006s-1.422,8.229-.777,8.8S301.213,354.128,299.8,353.621Z" transform="translate(-299.781 -331.671)" fill="#7380f3" opacity="0.4"/></g><path d="M300.12,335.51s3.318-4.64,5.067-5.015c1.043-.223,3.29,1.232,3.451,2.507s-1.479,8.338-.986,9.816-2.166,5.626-4.1,7.864-2.465,3.546-3.792,1.74" transform="translate(-62.212 -44.311)" fill="none" stroke="#263238" stroke-linecap="round" stroke-linejoin="round" stroke-width="1"/><path d="M310.1,340.539s.474-2.109-.574-2.654-2.427,6.138-3.29,6.764-.246,2.218,0,3.124-.739,1.147-.82,1.806-.166,1.422.327,1.559,2.218-1.067,2.711-2.052a17.163,17.163,0,0,0,.744-3.944" transform="translate(-65.157 -48.194)" fill="none" stroke="#263238" stroke-linecap="round" stroke-linejoin="round" stroke-width="1"/><path d="M309,348.574a.986.986,0,0,1,1.389.948" transform="translate(-67.072 -53.787)" fill="none" stroke="#263238" stroke-linecap="round" stroke-linejoin="round" stroke-width="1"/><path d="M246.961,276.287c-.583-7.247-5.314-22.482-26.885-22.577h-.152c-21.572.095-26.3,15.329-26.885,22.577s2.493,34.18,3.583,39.271c1.166,5.456,6.679,9.48,12.419,15.471,4.147,4.342,4.792,4.9,10.9,4.963h.152c6.091-.066,6.736-.621,10.9-4.963,5.74-6.006,11.253-10.016,12.419-15.471C244.468,310.467,247.544,283.548,246.961,276.287Z" transform="translate(-6.038 -3.934)" fill="#fff"/><g transform="translate(186.928 249.775)" clip-path="url(#c)"><path d="M239.561,366.134c-2.427,0-3.465-1.6-4.233-1.6a12.533,12.533,0,0,0-2.081.3s.237-2.337,1.621-3.285c0,0-4.143,2.128-4.588,3.285s0,6.11,0,6.11,1.839-3.626,2.266-3.247a8.461,8.461,0,0,0,5.081,1.92l-.474,1.327,2.128.948s-.474-1.9.242-2.256,1.9.393,1.9.393,3.92-.948,5.081-2.313c.588-.687,1.612,3.247,1.612,3.247s.55-4.963,0-6.636-3.555-2.74-3.555-2.74,1.849,1.972,1.242,3.285a4,4,0,0,0-2.583-.175C243.092,364.683,241.111,366.134,239.561,366.134Z" transform="translate(-212.489 -310.434)" fill="#7380f3" opacity="0.4"/><path d="M248.553,387.689s.6-.915-5.688-1.929l-2.564.768-2.579-.768s-5.38.758-6.162,1.929a43.549,43.549,0,0,0,7.252-.081l1.488.54,1.488-.54S247.515,387.836,248.553,387.689Z" transform="translate(-213.267 -323.168)" fill="#7380f3" opacity="0.4"/><path d="M249.235,394.61a4.009,4.009,0,0,1-2.161,2.37c-1.6.592-7.93.986-9.371,0a11.155,11.155,0,0,1-2.422-2.37,16.912,16.912,0,0,0,6.977.327C246.286,394.321,247,395.871,249.235,394.61Z" transform="translate(-215.223 -327.824)" fill="#7380f3" opacity="0.4"/><path d="M264.225,326.212c-.294-.711-5.356-.474-5.816,0s-2.977,3.659-3.579,5.92a26.472,26.472,0,0,0-.678,6.93c.1,1.256,2.3-1.166,3.2-2.517s.284-3.365.635-4.413,2.451,1.465,2.451,1.465-1.834-2.512-1.27-3.745S264.225,326.212,264.225,326.212Z" transform="translate(-225.142 -291.61)" fill="#7380f3" opacity="0.4"/><path d="M234.156,330.868s-2.607-4.493-3.365-4.892-2.8-.45-3.29,0-1.194,2.076-.389,1.962S234.242,333.248,234.156,330.868Z" transform="translate(-210.734 -291.555)" fill="#7380f3" opacity="0.4"/><path d="M291.651,333.836c-.777,3.64-3.489,6.636-6.911,10.011a63.051,63.051,0,0,0,1.289-13.319c0-6.74,3.109-10.85,4.209-13.471s-2.029-4.091-2.029-4.091-2.844-3.47-2.029-3.967,2.242-4.437,2.242-4.437l1.815-.085c-1.052-2.114-2.413-6.323-1.815-8.12s-1.09-7.9-1.09-7.9l7.584,3.659a24.05,24.05,0,0,1,.322,2.446C295.817,301.827,292.741,328.745,291.651,333.836Z" transform="translate(-241.239 -271.989)" fill="#7380f3" opacity="0.4"/><path d="M203.538,343.847c-3.422-3.375-6.134-6.371-6.911-10.011-1.09-5.091-4.166-32.009-3.579-39.271a24.054,24.054,0,0,1,.322-2.446l7.584-3.659s-1.687,6.1-1.09,7.9-.763,6.006-1.815,8.12l1.815.085s1.422,3.944,2.242,4.437-2.029,3.967-2.029,3.967-3.133,1.46-2.029,4.091,4.19,6.731,4.209,13.471A61.088,61.088,0,0,0,203.538,343.847Z" transform="translate(-192.97 -271.989)" fill="#7380f3" opacity="0.4"/></g><path d="M246.961,276.287c-.583-7.247-5.314-22.482-26.885-22.577h-.152c-21.572.095-26.3,15.329-26.885,22.577s2.493,34.18,3.583,39.271c1.166,5.456,6.679,9.48,12.419,15.471,4.147,4.342,4.792,4.9,10.9,4.963h.152c6.091-.066,6.736-.621,10.9-4.963,5.74-6.006,11.253-10.016,12.419-15.471C244.468,310.467,247.544,283.548,246.961,276.287Z" transform="translate(-6.038 -3.934)" fill="none" stroke="#263238" stroke-linecap="round" stroke-linejoin="round" stroke-width="1"/><path d="M263.306,320.356a2.488,2.488,0,0,1,1.986-1.811c2.522-.5,5.958-1.251,9.053-.313,4.337,1.318,4.176,3.792,4.176,3.792a4.37,4.37,0,0,0-4.176-2.086c-2.891.275-11.2,1.1-11.2,1.1Z" transform="translate(-42.955 -37.638)" fill="#263238"/><path d="M275.711,339.894s-1.5,2.138-5.19,2.1-4.811-2.119-4.811-2.119l1.583.555a8.712,8.712,0,0,0,6.9-.213Z" transform="translate(-44.302 -49.26)" fill="#263238"/><path d="M267.43,333.915s1.806-1.943,3.318-2.005" transform="translate(-45.206 -45.068)" fill="none" stroke="#263238" stroke-linecap="round" stroke-linejoin="round" stroke-width="1"/><path d="M254.474,341.1c-1.066,2.958,0,9.693,0,9.693" transform="translate(-38.142 -49.902)" fill="none" stroke="#263238" stroke-linecap="round" stroke-linejoin="round" stroke-width="1"/><path d="M268.09,339.11s3.939,1.64,7.224,0" transform="translate(-45.554 -48.855)" fill="none" stroke="#263238" stroke-linecap="round" stroke-linejoin="round" stroke-width="1"/><path d="M261.32,327.89s1.28-2.19,2.37-2.37" transform="translate(-41.993 -41.707)" fill="none" stroke="#263238" stroke-linecap="round" stroke-linejoin="round" stroke-width="1"/><path d="M219.634,320.356a2.488,2.488,0,0,0-1.986-1.811c-2.522-.5-5.958-1.251-9.053-.313-4.337,1.318-4.176,3.792-4.176,3.792a4.37,4.37,0,0,1,4.176-2.086c2.891.275,11.2,1.1,11.2,1.1Z" transform="translate(-12.062 -37.638)" fill="#263238"/><path d="M214.19,339.894s1.5,2.138,5.19,2.1,4.811-2.119,4.811-2.119l-1.559.555a8.712,8.712,0,0,1-6.9-.213Z" transform="translate(-17.202 -49.26)" fill="#263238"/><path d="M229.888,333.915s-1.806-1.943-3.318-2.005" transform="translate(-23.714 -45.068)" fill="none" stroke="#263238" stroke-linecap="round" stroke-linejoin="round" stroke-width="1"/><path d="M224.894,339.11s-3.939,1.64-7.224,0" transform="translate(-19.033 -48.855)" fill="none" stroke="#263238" stroke-linecap="round" stroke-linejoin="round" stroke-width="1"/><path d="M233.69,325.5c3.512.574,5.361,7.394,5.361,7.394,1.066,2.958,0,9.693,0,9.693" transform="translate(-27.459 -41.696)" fill="none" stroke="#263238" stroke-linecap="round" stroke-linejoin="round" stroke-width="1"/><path d="M243.13,368.62a4.74,4.74,0,0,0,3.318,1.232,4.437,4.437,0,0,0,3.218-1.232" transform="translate(-32.425 -64.377)" fill="none" stroke="#263238" stroke-linecap="round" stroke-linejoin="round" stroke-width="1"/><path d="M253.61,374.529a6.921,6.921,0,0,1,1.488-1.346.932.932,0,0,1,1.251.374s-.948.905-1.692.758Z" transform="translate(-37.937 -66.708)" fill="#263238"/><path d="M243.35,374.529a6.921,6.921,0,0,0-1.488-1.346.932.932,0,0,0-1.251.374s.948.905,1.692.758Z" transform="translate(-31.099 -66.708)" fill="#263238"/><path d="M237.609,371.921s-2.233-.645-2.313-1.716a2.176,2.176,0,0,1,.692-1.725" transform="translate(-28.302 -64.304)" fill="none" stroke="#263238" stroke-linecap="round" stroke-linejoin="round" stroke-width="1"/><path d="M259.82,371.921s2.233-.645,2.313-1.716a2.176,2.176,0,0,0-.692-1.725" transform="translate(-41.204 -64.304)" fill="none" stroke="#263238" stroke-linecap="round" stroke-linejoin="round" stroke-width="1"/><path d="M248.986,390.337s-.45-1-.991-.63-6.494-.251-6.764-.081c-.133.085-1.488.54-1.488.54s-1.356-.474-1.488-.54c-.27-.171-6.224.441-6.764.081s-.991.63-.991.63" transform="translate(-25.781 -75.41)" fill="none" stroke="#263238" stroke-linecap="round" stroke-linejoin="round" stroke-width="1"/><path d="M249.158,393.22a3.7,3.7,0,0,1-2.3,1.318c-1.209,0-2.526-.332-5.37-.332s-4.166.332-5.37.332a3.718,3.718,0,0,1-2.3-1.318" transform="translate(-27.522 -77.317)" fill="none" stroke="#263238" stroke-linecap="round" stroke-linejoin="round" stroke-width="1"/><path d="M249.158,386.746s-4.053-.948-5.1-.986l-2.579.768-2.579-.768c-1.043.057-5.1.986-5.1.986" transform="translate(-27.522 -73.393)" fill="none" stroke="#263238" stroke-linecap="round" stroke-linejoin="round" stroke-width="1"/><path d="M243.727,256.132c-4.555-5.66-16.661-10.1-28.189-8.371a19.8,19.8,0,0,1,5.062-1.237s-8.679-.294-11.376,2.3l2.7-2.6s-9.357,2.612-11.376,6.162l2.01-3.527s-1.379.574-3.157,1.522h0a21.6,21.6,0,0,0-8.29,5.769c-4.555,5.66-2.432,18.012-2.432,18.012a61.028,61.028,0,0,0,3.7,24.52c-.427-5.176.829-18.514.829-18.514s2.37-1.422,2.37-3.7,1.422-9.219,4.034-9.385,17.4,2.891,17.4,2.891l.393-.152.393.152s14.789-3.081,17.415-2.915,4.062,7.11,4.038,9.385,2.37,3.7,2.37,3.7,1.261,13.338.834,18.514a61.126,61.126,0,0,0,3.7-24.52S248.3,261.791,243.727,256.132Z" transform="translate(-3.525)" fill="#263238"/><path d="M248.287,276.219s-4.626-6.423-1.152-12.419" transform="translate(-33.851 -9.242)" fill="none" stroke="#fff" stroke-linecap="round" stroke-linejoin="round" stroke-width="1" opacity="0.3"/><path d="M236.312,278.854s-6.5-4.8-6.413-10.044" transform="translate(-25.465 -11.877)" fill="none" stroke="#fff" stroke-linecap="round" stroke-linejoin="round" stroke-width="1" opacity="0.3"/><path d="M222.775,281.38s-8.831-2.233-9.835-6.56" transform="translate(-16.545 -15.038)" fill="none" stroke="#fff" stroke-linecap="round" stroke-linejoin="round" stroke-width="1" opacity="0.3"/><path d="M261.32,279.822s0-6.01,4.294-9.172" transform="translate(-41.993 -12.845)" fill="none" stroke="#fff" stroke-linecap="round" stroke-linejoin="round" stroke-width="1" opacity="0.3"/><path d="M270.38,284a8.589,8.589,0,0,1,5.9-4.2" transform="translate(-46.758 -17.658)" fill="none" stroke="#fff" stroke-linecap="round" stroke-linejoin="round" stroke-width="1" opacity="0.3"/></g></g></svg>