<svg xmlns="http://www.w3.org/2000/svg" width="29" height="29" viewBox="0 0 29 29"><defs><style>.a{fill:none;}.b{fill:#7380f3;}</style></defs><path class="a" d="M0,0H29V29H0Z"/><path class="b" d="M18.581,15.292A2.4,2.4,0,0,0,20.7,14.047l4.326-7.842A1.2,1.2,0,0,0,23.97,4.417H6.087L4.951,2H1V4.417H3.417l4.35,9.171L6.135,16.536A2.421,2.421,0,0,0,8.25,20.125h14.5V17.708H8.25l1.329-2.417ZM7.235,6.833H21.916l-3.335,6.042H10.1Zm1.015,14.5a2.417,2.417,0,1,0,2.417,2.417A2.413,2.413,0,0,0,8.25,21.333Zm12.083,0A2.417,2.417,0,1,0,22.75,23.75,2.413,2.413,0,0,0,20.333,21.333Z" transform="translate(0.208 0.417)"/></svg>