<svg xmlns="http://www.w3.org/2000/svg" width="31" height="31" viewBox="0 0 31 31"><defs><style>.a{fill:none;}.b{fill:#7380f3;}</style></defs><path class="a" d="M0,0H31V31H0Z"/><path class="b" d="M23.667,3.583H22.375V1H19.792V3.583H9.458V1H6.875V3.583H5.583A2.591,2.591,0,0,0,3,6.167V24.25a2.591,2.591,0,0,0,2.583,2.583H23.667A2.591,2.591,0,0,0,26.25,24.25V6.167A2.591,2.591,0,0,0,23.667,3.583Zm0,20.667H5.583V11.333H23.667ZM5.583,8.75V6.167H23.667V8.75Zm7.182,13.511,7.66-7.66-1.369-1.369-6.29,6.29L10.04,16.8,8.67,18.166Z" transform="translate(0.875 0.292)"/></svg>