<svg xmlns="http://www.w3.org/2000/svg" width="65.908" height="65.908" viewBox="0 0 65.908 65.908"><defs><style>.a{fill:#e5e8ff;}.b{fill:#7380f3;stroke:#263238;stroke-miterlimit:10;}.c{fill:#fff;}</style></defs><g transform="translate(-464.821 -747.092)"><circle class="a" cx="28.69" cy="28.69" r="28.69" transform="translate(464.821 803.717) rotate(-80.69)"/><path class="b" d="M427.916,223.983c-.219.314-.438.638-.667.953-4.3,5.955-10.92,11.51-15.827,12.606v-.076c-4.764-1.067-11.177-6.355-15.474-12.13-.238-.314-.467-.638-.686-.953-4.135-5.927-5.879-12.149-1.277-14.721,9.357-5.222,17.437,5.974,17.437,5.974s8.1-11.11,17.437-5.9C433.337,212.234,431.8,218.2,427.916,223.983Z" transform="translate(86.324 558.94)"/><path class="c" d="M428.114,224.284c-.219.314-.438.638-.667.953h-2.363l-2.706,3.573-1.839-10.6-2.859,7.2h-6.756l-3.459,5.765L404.8,219.51l-3.44,6.089h-5.212c-.238-.314-.467-.638-.686-.953h5.345l4.374-7.747,2.687,11.768,2.544-4.24h6.67l3.811-9.757,2.039,11.777,1.667-2.2Z" transform="translate(86.125 558.638)"/></g></svg>