<svg xmlns="http://www.w3.org/2000/svg" width="58.76" height="58.76" viewBox="0 0 58.76 58.76"><defs><style>.a{fill:#e5e8ff;}.b{fill:#fff;}.b,.c,.d{stroke:#263238;}.b,.d{stroke-linecap:round;stroke-linejoin:round;}.c{fill:#7380f3;stroke-miterlimit:10;}.d{fill:none;}</style></defs><g transform="translate(-131.202 -9.097)"><path class="a" d="M29.38,0A29.38,29.38,0,1,1,0,29.38,29.38,29.38,0,0,1,29.38,0Z" transform="translate(131.202 9.097)"/><path class="b" d="M218.553,62.449V74.49c0,3.054-1.951,5.533-4.342,5.533H189.232c-2.4,0-4.342-2.478-4.342-5.533V62.449c0-3.054,1.952-5.533,4.342-5.533h4.108V49.93h16.588v6.986h4.254C216.6,56.916,218.553,59.395,218.553,62.449Z" transform="translate(-41.139 -23.221)"/><rect class="c" width="33.654" height="7.465" transform="translate(143.75 40.613)"/><path class="c" d="M195.769,41.55H208.1a5.25,5.25,0,0,1,5.25,5.25v5.454H190.51V46.8a5.25,5.25,0,0,1,5.259-5.25Z" transform="translate(-41.276 -23.018)"/><line class="d" y2="10.372" transform="translate(153.225 18.864)"/><line class="d" y2="10.704" transform="translate(158.621 18.532)"/><line class="d" y2="10.704" transform="translate(164.017 18.532)"/><line class="d" y2="10.099" transform="translate(169.413 19.137)"/></g></svg>