<svg xmlns="http://www.w3.org/2000/svg" width="442" height="256" viewBox="0 0 442 256"><defs><style>.a,.b,.c,.d{fill:#fff;}.b{font-size:18px;opacity:0.78;}.b,.d{font-family:Roboto-Regular, Roboto;}.c{font-size:20px;font-family:Roboto-Medium, Roboto;font-weight:500;}.d{font-size:14px;letter-spacing:0.05em;opacity:0.53;}.e{fill:none;}</style></defs><g transform="translate(-574 -456)"><rect class="a" width="442" height="256" rx="10" transform="translate(574 456)"/><text class="b" transform="translate(600 475)"><tspan x="0" y="19">&quot;A Medicina In me ajudou muito em tudo. Fiz o </tspan><tspan x="0" y="43">agendamento pelo site, respondi a pré-consulta, </tspan><tspan x="0" y="67">me direcionaram para o melhor médico </tspan><tspan x="0" y="91">disponível e me ajudaram até o medicamento </tspan><tspan x="0" y="115">chegar em casa. Já tive alívio nas primeiras </tspan><tspan x="0" y="139">semanas de acompanhamento!</tspan></text><text class="c" transform="translate(600 634)"><tspan x="0" y="21">Maria de Fátima</tspan></text><text class="d" transform="translate(600 663)"><tspan x="0" y="15">Fibromialgia desde 2010</tspan></text><g transform="translate(22)"><g transform="translate(839 650)"><path class="e" d="M0,0H24V24H0Z"/><path class="e" d="M0,0H24V24H0Z"/><path class="a" d="M12,17.27l4.15,2.51a1,1,0,0,0,1.49-1.08l-1.1-4.72,3.67-3.18a1,1,0,0,0-.57-1.75l-4.83-.41L12.92,4.18a1,1,0,0,0-1.84,0L9.19,8.63l-4.83.41a1,1,0,0,0-.57,1.75l3.67,3.18-1.1,4.72a1,1,0,0,0,1.49,1.08Z"/></g><g transform="translate(863 650)"><path class="e" d="M0,0H24V24H0Z"/><path class="e" d="M0,0H24V24H0Z"/><path class="a" d="M12,17.27l4.15,2.51a1,1,0,0,0,1.49-1.08l-1.1-4.72,3.67-3.18a1,1,0,0,0-.57-1.75l-4.83-.41L12.92,4.18a1,1,0,0,0-1.84,0L9.19,8.63l-4.83.41a1,1,0,0,0-.57,1.75l3.67,3.18-1.1,4.72a1,1,0,0,0,1.49,1.08Z"/></g><g transform="translate(887 650)"><path class="e" d="M0,0H24V24H0Z"/><path class="e" d="M0,0H24V24H0Z"/><path class="a" d="M12,17.27l4.15,2.51a1,1,0,0,0,1.49-1.08l-1.1-4.72,3.67-3.18a1,1,0,0,0-.57-1.75l-4.83-.41L12.92,4.18a1,1,0,0,0-1.84,0L9.19,8.63l-4.83.41a1,1,0,0,0-.57,1.75l3.67,3.18-1.1,4.72a1,1,0,0,0,1.49,1.08Z"/></g><g transform="translate(911 650)"><path class="e" d="M0,0H24V24H0Z"/><path class="e" d="M0,0H24V24H0Z"/><path class="a" d="M12,17.27l4.15,2.51a1,1,0,0,0,1.49-1.08l-1.1-4.72,3.67-3.18a1,1,0,0,0-.57-1.75l-4.83-.41L12.92,4.18a1,1,0,0,0-1.84,0L9.19,8.63l-4.83.41a1,1,0,0,0-.57,1.75l3.67,3.18-1.1,4.72a1,1,0,0,0,1.49,1.08Z"/></g><g transform="translate(935 650)"><path class="e" d="M0,0H24V24H0Z"/><path class="e" d="M0,0H24V24H0Z"/><path class="a" d="M12,17.27l4.15,2.51a1,1,0,0,0,1.49-1.08l-1.1-4.72,3.67-3.18a1,1,0,0,0-.57-1.75l-4.83-.41L12.92,4.18a1,1,0,0,0-1.84,0L9.19,8.63l-4.83.41a1,1,0,0,0-.57,1.75l3.67,3.18-1.1,4.72a1,1,0,0,0,1.49,1.08Z"/></g></g></g></svg>