<svg xmlns="http://www.w3.org/2000/svg" xmlns:xlink="http://www.w3.org/1999/xlink" width="168" height="70" viewBox="0 0 168 70"><defs><style>.a{fill:none;}.b{clip-path:url(#a);}.c{fill:#a1a2c0;fill-rule:evenodd;}</style><clipPath id="a"><rect class="a" width="168" height="70" transform="translate(680 589)"/></clipPath></defs><g class="b" transform="translate(-680 -589)"><g transform="translate(688 607)"><rect class="a" width="152" height="29"/><path class="c" d="M114.4,40.88c3.648,0,3.872-2.6,3.872-8.026,0-5.312-.256-7.938-3.936-7.938h-2.08V40.88Zm-5.472-18.853h5.44c2.5,0,4.16.613,5.216,1.664,1.92,1.9,2.08,5.195,2.08,9.134,0,4.2-.16,7.588-2.272,9.368a7.511,7.511,0,0,1-5.088,1.46h-5.376Z" transform="translate(-75.759 -15.319)"/><path class="c" d="M158.667,44.573h3.1v14.76h-3.1Z" transform="translate(-110.353 -31)"/><path class="c" d="M177.885,43.844l2.666-.133.257,1.409c.514-1.01,1.638-1.675,4.143-1.675a4.108,4.108,0,0,1,2.987.957c.771.8.963,2.048.963,3.643v10.5h-3.243V49c0-2.367-.417-2.978-1.959-2.978-2.28,0-2.6,1.383-2.6,3.855v8.669h-3.212Z" transform="translate(-123.719 -30.216)"/><path class="c" d="M223.1,23.154h3.212V30.9c.578-.818,1.67-1.452,3.854-1.452a4.13,4.13,0,0,1,2.987.95c.77.792.963,2.032.963,3.616V44.436h-3.243V34.962c0-2.349-.417-2.956-1.959-2.956-2.28,0-2.6,1.372-2.6,3.827v8.6H223.1Z" transform="translate(-155.168 -16.103)"/><path class="c" d="M269.242,48.833l4.488.02c0-.881,0-2.836-2.092-2.847-1.948-.011-2.4,1.572-2.4,2.828m-1.269,9.051c-1.645-1.258-1.9-3.65-1.913-6.737-.013-3.041.209-5.144,1.655-6.431a5.793,5.793,0,0,1,4.142-1.269,4.812,4.812,0,0,1,3.612,1.2c1.353,1.427,1.26,3.744,1.26,6.5l-7.586-.025c-.134,4.722.841,5.345,3.1,5.347a8.8,8.8,0,0,0,3.29-.712l1.125,2.222a10.925,10.925,0,0,1-4.835.918,6.473,6.473,0,0,1-3.848-1.009" transform="translate(-185.045 -30.216)"/><path class="c" d="M309.017,29.58h3.1V44.436h-3.1Zm0-6.426h3.1v4.2h-3.1Z" transform="translate(-214.921 -16.103)"/><path class="c" d="M328.235,44.817l2.721-.131.292,1.7c.566-1.207,2-2.018,4.165-1.775l.05,2.556c-2.891,0-3.937,1.058-3.937,3.788v8.373h-3.291Z" transform="translate(-228.287 -31)"/><path class="c" d="M362.385,51.249c0-3.191-.126-5.2-2.454-5.2-2.36,0-2.517,2.011-2.517,5.2,0,3.218.157,5.2,2.517,5.2,2.328,0,2.454-1.984,2.454-5.2m-6.324,6.517c-1.637-1.341-1.825-3.755-1.825-6.6,0-2.762.157-5.122,1.668-6.49a7.192,7.192,0,0,1,8.055,0c1.479,1.368,1.637,3.755,1.637,6.49,0,2.816-.157,5.229-1.762,6.543a7.126,7.126,0,0,1-7.772.054" transform="translate(-246.37 -30.216)"/><path class="c" d="M175.19,23.026V21.245h-1.331l.248-.346h-.917l-.247.346h-1.6v.987h.519V24.99h-.519v.987h3.848v-1.76H174v.773h-.946v-.824h.713V23.056h-.713v-.824H174v.794Zm-5.792,1.8a1.221,1.221,0,1,1,1.222-1.22,1.221,1.221,0,0,1-1.222,1.22Zm0-3.614a2.384,2.384,0,0,0-1.234.342v-.307h-4.8V21.4a1.792,1.792,0,0,0-.861-.222,1.509,1.509,0,0,0-1.6,1.407c0,.9.619,1.195,1.359,1.442.306.1.556.173.708.243a.416.416,0,0,1,.27.377.449.449,0,0,1-.474.418c-.54,0-.688-.636-.688-.636h-1.2v.56h-.5V22.232h.57v-.987h-2.281v.987h.519V24.99h-.519v.987h3.41V25.81a1.922,1.922,0,0,0,.947.238,1.526,1.526,0,0,0,1.615-1.416c0-.909-.8-1.262-1.341-1.422-.27-.079-.57-.172-.732-.239-.211-.087-.3-.206-.3-.378a.423.423,0,0,1,.454-.4c.582,0,.687.685.687.685h1.175v-.647h.618V24.99h-.544v.987h2.281V24.99h-.545V22.232H167V23.6a2.394,2.394,0,1,0,2.394-2.393Z" transform="translate(-110.353 -14.535)"/></g></g></svg>