<svg xmlns="http://www.w3.org/2000/svg" width="168" height="70" viewBox="0 0 168 70"><defs><style>.a{opacity:0.78;}.b{fill:#9193b1;}.c{fill:none;}</style></defs><g transform="translate(-323 -589)"><g class="a" transform="translate(220.868 -63.419)"><path class="b" d="M127.131,691.276c0,4.629,1.616,6.769,5.044,6.769,2.991,0,5.306-1.921,5.306-6.616,0-4.651-1.638-6.747-5.066-6.747-2.991,0-5.284,1.878-5.284,6.594Zm7.205.175c0,5.109-1.048,5.83-2.118,5.83-1.048,0-1.965-.83-1.965-6.048,0-5.087,1.048-5.786,2.1-5.786,1.07,0,1.987.786,1.987,6Zm3.755,6.354h7.729V693.9h-.611l-1.07,3.035h-1.965V685.774l1.135-.262v-.59h-5.131v.59l1.048.262v11.179l-1.135.262v.589Zm8.755-12.882v.589l1.048.284v11.157l-1.048.262v.59h4.935v-.59l-.939-.262v-5.065h2.838v5.065l-.873.262v.59h4.869v-.59l-1.048-.262V685.774l.961-.262v-.589h-4.782v.589l.873.262v5.24h-2.838v-5.24l.939-.262v-.589h-4.935ZM158.506,697.8h3.3v-.589l-1.332-.262.721-3.079h2.751l1.026,3.079-1.157.262v.589h5.2v-.589l-.961-.262L164.4,684.9h-1.834l-3.122,12.052-.939.262v.589Zm2.926-4.825,1-4.061,1.245,4.061Zm20.415-1.419c0-5.065-1.921-6.638-5.109-6.638H171.76v.59l1.026.262v11.179l-1.026.262v.589h5.2c2.555,0,4.891-1.681,4.891-6.244Zm-5.153,5.371h-.83V685.8h.742c1.463,0,2.271.852,2.271,5.633,0,4.694-.7,5.5-2.183,5.5Zm-59.519-13.8v.677l1.332.284v12.751l-1.376.284v.677h6.376v-.677l-1.747-.284v-5.9h1.878l.459,1.943h.7v-4.738h-.7l-.459,1.79h-1.878v-5.83h2.4l1.223,3.341h.742v-4.323h-8.952Z" transform="translate(0 -0.517)"/><path class="b" d="M358.728,696.415h-2.38v-5.131h1.594l.393,1.725h.611v-4.17h-.611l-.393,1.572h-1.594v-5.087h1.987l1.048,2.838h.677v-3.712h-7.839v.568l1.179.262v11.157l-1.2.262v.589h8.253v-3.755H359.8l-1.07,2.882Zm10.917-14c-2.62,0-4.694,1.681-4.716,4.323-.022,4.345,5.524,4.389,5.524,7.86a1.786,1.786,0,0,1-1.856,1.79,4.369,4.369,0,0,1-2.205-.48l-.655-2.838h-.764v3.974a9.071,9.071,0,0,0,3.188.48,4.788,4.788,0,0,0,5-4.825c0-4.716-5.437-4.41-5.437-7.62,0-.873.677-1.55,1.921-1.55a6.693,6.693,0,0,1,1.463.175l.721,2.926h.7v-3.974a15.248,15.248,0,0,0-2.882-.24Zm12.38,7.9h-.546v-6.681h.59c1.114,0,1.528.611,1.528,3.319s-.568,3.362-1.572,3.362Zm.808,1c2.926,0,4.192-1.725,4.192-4.345,0-3.384-1.616-4.345-4.018-4.345h-6.114v.677l1.332.284v12.729l-1.376.284v.677h6.288v-.677l-1.659-.284v-5h1.354Zm6.31,1.157,1-4.083,1.245,4.083h-2.249Zm-3.057,4.8h3.428V696.7l-1.31-.262.72-3.079h2.729l1,3.079-1.157.262v.589h5.328V696.7l-1.092-.262-3.625-12.031h-1.834l-3.144,12.031-1.048.262v.589Zm10.2-12.838v.568l1.048.262v8.3c0,2.969.961,4.1,3.821,4.1,2.576.022,3.8-1.048,3.8-3.537v-8.865l.983-.262v-.568h-2.969v.568l1.092.262v8.69c0,1.812-.5,2.795-2.183,2.795-1.2,0-1.594-.764-1.594-2.4v-9.083l1.135-.262v-.568h-5.131Zm10.611,12.838h7.6V693.38h-.611l-1.048,3.035h-1.878V685.279l1.135-.262v-.568h-5.131v.568l1.07.262v11.157l-1.135.262v.59Zm8.493-6.528c0,4.629,1.616,6.769,5.044,6.769,2.969,0,5.262-1.921,5.262-6.616,0-4.629-1.638-6.725-5.065-6.725C417.658,684.187,415.387,686.065,415.387,690.759Zm7.183.2c0,5.087-1.07,5.808-2.118,5.808s-1.943-.83-1.943-6.026c0-5.087,1.048-5.786,2.1-5.786s1.965.786,1.965,6Zm-48.361,3.93a1.342,1.342,0,0,1,1.266,1.4,1.292,1.292,0,1,1-2.576,0,1.408,1.408,0,0,1,1.31-1.4Z" transform="translate(-170.561)"/></g><rect class="c" width="168" height="70" transform="translate(323 589)"/></g></svg>