<svg xmlns="http://www.w3.org/2000/svg" width="59" height="59" viewBox="0 0 59 59"><defs><style>.a,.b{fill:#40376e;}.a{opacity:0.29;}</style></defs><g transform="translate(-876 -4871)"><rect class="a" width="59" height="59" rx="10" transform="translate(876 4871)"/><path class="b" d="M24.4,17.488V13.435a2.289,2.289,0,0,0-.3-4.391L21.4,4.309l-1.35.771,2.415,4.229a2.3,2.3,0,0,0-.9.964l-5.9-2.034a2.751,2.751,0,0,0-5.376-.015L5.017,9.885a2.568,2.568,0,1,0-.96,4.157l2.315,2.763a3.919,3.919,0,0,0-.218,3.282L4.11,22.079A2.757,2.757,0,1,0,2.1,27.159l.6,3.2,1.528-.286-.559-2.99A2.755,2.755,0,0,0,5.2,23.192l1.815-1.769a3.916,3.916,0,0,0,2.732,1.186l2.151,3.112a2.75,2.75,0,1,0,4.912,1.7c0-.086,0-.171-.012-.254l6.013-4.147A2.878,2.878,0,1,0,24.4,17.488Zm-21.64,8.2a1.2,1.2,0,1,1,1.2-1.2A1.2,1.2,0,0,1,2.758,25.685ZM20.989,19.1,13.691,18a3.94,3.94,0,0,0-2.735-3.082l1.554-3.4a2.746,2.746,0,0,0,3.017-1.689l5.88,2.026a2.3,2.3,0,0,0,1.437,1.573v4.052A2.891,2.891,0,0,0,20.989,19.1Zm2.632-7.079a.735.735,0,1,1,.735-.735A.735.735,0,0,1,23.621,12.017Zm-10.647-4.4a1.2,1.2,0,1,1-1.2,1.2A1.2,1.2,0,0,1,12.973,7.618Zm-2.562,2.2a2.761,2.761,0,0,0,.7,1.025l-1.807,3.95a3.91,3.91,0,0,0-1.916.811L5.275,13.075A2.553,2.553,0,0,0,5.691,11.3ZM2.131,11.641a1.014,1.014,0,1,1,1.014,1.014A1.015,1.015,0,0,1,2.131,11.641Zm5.317,7.042a2.374,2.374,0,1,1,2.374,2.374A2.377,2.377,0,0,1,7.448,18.683Zm6.607,9.934a1.2,1.2,0,1,1,1.2-1.2A1.2,1.2,0,0,1,14.055,28.617Zm0-3.947a2.738,2.738,0,0,0-.894.15L11.4,22.278a3.943,3.943,0,0,0,2.245-2.708l7.119,1.065a2.866,2.866,0,0,0,.639,1.461l-5.214,3.6A2.746,2.746,0,0,0,14.055,24.67Zm9.565-3.088a1.323,1.323,0,1,1,1.324-1.323A1.325,1.325,0,0,1,23.621,21.582Z" transform="translate(892 4882.691)"/></g></svg>