<svg xmlns="http://www.w3.org/2000/svg" width="137.884" height="144.271" viewBox="0 0 137.884 144.271"><path d="M182.55,240.22l133.16-.96,3.71,90.53-137.88-1.28Z" transform="translate(-181.538 -185.52)" fill="#7380f3"/><path d="M182.55,240.22l67.6-54.7,65.56,53.74" transform="translate(-181.538 -185.52)" fill="#7380f3"/><g transform="translate(1.012)" opacity="0.3"><path d="M182.55,240.22l67.6-54.7,65.56,53.74" transform="translate(-182.55 -185.52)"/></g><path d="M181.54,328.51c-.17-.15,10.49-11.79,23.81-26s24.24-25.59,24.41-25.43-10.49,11.79-23.81,26S181.71,328.67,181.54,328.51Z" transform="translate(-181.538 -185.52)" fill="#263238"/><path d="M319.42,329.79c-.17.15-10.55-11.25-23.18-25.47s-22.74-25.87-22.57-26,10.55,11.25,23.18,25.47S319.59,329.64,319.42,329.79Z" transform="translate(-181.538 -185.52)" fill="#263238"/><g transform="translate(1.012 53.74)" opacity="0.5"><path d="M315.71,239.26l-66.87,53.42-66.29-52.46" transform="translate(-182.55 -239.26)"/></g><path d="M189.26,245.17l-.2-38.73,116.63-2.86,1.27,42.38-58.12,46.02Z" transform="translate(-181.538 -185.52)" fill="#ebebeb"/><path d="M250.47,278.06a29.015,29.015,0,1,1,28.77-25.75h0a29,29,0,0,1-28.77,25.75Zm-.08-57a28,28,0,1,0,27.85,31.17h0A28.457,28.457,0,0,0,250.39,221Z" transform="translate(-181.538 -185.52)" fill="#7380f3"/><path d="M230.69,253.07l4.85-5.94,11.34,8.19,18.43-21.72,5.56,4.89-23.71,27.32Z" transform="translate(-181.538 -185.52)" fill="#7380f3"/></svg>