<svg xmlns="http://www.w3.org/2000/svg" width="114" height="114" viewBox="0 0 114 114"><g transform="translate(-2945 -2128)"><circle cx="57" cy="57" r="57" transform="translate(2945 2128)" fill="#d5d9fb"/><g transform="translate(2757.104 2010.826)"><g transform="translate(210.896 137.174)"><path d="M283.778,179.872c-.294,1.373-.518,2.971-.743,4.517a38.5,38.5,0,0,1-1.27,6.486,6.227,6.227,0,0,1-1.727,2.306c0,.967-.466,6.616-4.422,8.421a3.455,3.455,0,0,1-1.727,2.669c-.147.086-13.888,7.54-18.777,7.54a3.178,3.178,0,0,1-.916-.121c-2.349-.777-3.455-2.237-3.368-4.6a11.6,11.6,0,0,1,.561-3.049c-.933-1.287-.726-2.928-.535-4.379a6.651,6.651,0,0,0,.06-2.5c-.466-1.779.2-4.664.38-5.372-.587-.916-.415-3.524-.1-7.065.112-1.209.216-2.358.216-3.057a3.092,3.092,0,0,1,.941-2.047,27.107,27.107,0,0,1,0-5.925c-.976-3.688-.147-9.052,0-9.855a15.287,15.287,0,0,1-.19-10.131c-1.615-3.144-.786-9.2-.691-9.846-.069-.5-.492-4.163,1.244-5.839a3.343,3.343,0,0,1,3.075-.743c3,.553,4.88.933,6.245,1.3a14.029,14.029,0,0,1,2.246.795,6.21,6.21,0,0,1,2.591,3.291,5.58,5.58,0,0,1,4.914.924c1.943,1.5,2.021,2.876,1.952,3.455,4.232,2.591,5.83,13.232,6.046,14.545a5.752,5.752,0,0,1,1.3,5.493,5.1,5.1,0,0,1,1.2,5.113,6.108,6.108,0,0,1-.527,1.226h0C281.792,173.541,284.53,176.261,283.778,179.872Z" transform="translate(-216.32 -137.174)" fill="#7380f3"/><path d="M283.8,180.1c-.294,1.373-.518,2.971-.743,4.517a38.5,38.5,0,0,1-1.27,6.486,6.227,6.227,0,0,1-1.727,2.306c0,.967-.466,6.616-4.422,8.421a3.455,3.455,0,0,1-1.727,2.669c-.147.086-13.888,7.54-18.777,7.54a3.178,3.178,0,0,1-.916-.121c-2.349-.777-3.455-2.237-3.368-4.6a.95.95,0,0,1,.406.484c1.244,2.487,3.6,2.747,5.588,2.358s2.479-2.755,2.479-2.755l-3.455-2.142s3.921-1.252,6.348-2.159a1.909,1.909,0,0,0,1.019-3.014,4.578,4.578,0,0,1-3.662-.674,2.945,2.945,0,0,1,1.511-1.978c1.166-.432,5.243-2.833,3.671-4.085s-3.671-.086-3.671-.086c-3.152.5-4.275-1.313-4.275-1.313s8.853-2.591,8.723-5.623a10.709,10.709,0,0,0-.864-4.431s3.55-1.019,4.215-3.507-2.151-5.433-2.151-5.433c1.434.363,2.375-1.727,2.151-2.539s2.842-3.265,2.7-4.966-2.7-1.909-2.7-1.909c1.6-3.351-1.114-10.442-1.114-10.442.751-3.723-2.591-6.91-2.591-6.91.216-2.807-1.572-5.51-3.187-7.359a14.029,14.029,0,0,1,2.246.795,6.21,6.21,0,0,1,2.591,3.291,5.579,5.579,0,0,1,4.914.924c1.943,1.5,2.021,2.876,1.952,3.455,4.232,2.591,5.83,13.232,6.046,14.545a5.752,5.752,0,0,1,1.3,5.493,5.1,5.1,0,0,1,1.2,5.113,6.107,6.107,0,0,1-.527,1.226h0C281.813,173.766,284.551,176.487,283.8,180.1Z" transform="translate(-216.341 -137.4)" opacity="0.2"/><path d="M243.417,204.039c1.3,4.232.423,6.59-2.807,7.652a3.178,3.178,0,0,1-.915.121c-1.857,0-4.992-1.08-8.179-2.418-5.182-2.185-10.511-5.07-10.6-5.122a3.455,3.455,0,0,1-1.727-2.669c-3.956-1.805-4.388-7.454-4.422-8.421a6.227,6.227,0,0,1-1.727-2.306,38.505,38.505,0,0,1-1.27-6.486c-.225-1.546-.449-3.144-.743-4.517-.76-3.61,1.978-6.331,2.1-6.443a6.106,6.106,0,0,1-.527-1.226,5.1,5.1,0,0,1,1.2-5.113,5.752,5.752,0,0,1,1.3-5.493c.181-1.313,1.779-11.936,6.046-14.545-.069-.57,0-1.943,1.952-3.455a5.579,5.579,0,0,1,4.914-.924,6.21,6.21,0,0,1,2.591-3.291c1.511-.7,3.412-1.166,8.49-2.1a3.455,3.455,0,0,1,2.911.6l.164.147c1.727,1.676,1.313,5.338,1.244,5.839.1.648.924,6.7-.691,9.846a15.287,15.287,0,0,1-.19,10.131c.13.8.959,6.167,0,9.855a27.1,27.1,0,0,1,0,5.925,3.092,3.092,0,0,1,.941,2.047c0,.7.1,1.848.207,3.057.328,3.541.5,6.149-.086,7.065.181.708.864,3.593.38,5.372a6.65,6.65,0,0,0,.06,2.5C244.143,201.111,244.35,202.752,243.417,204.039Z" transform="translate(-210.896 -137.175)" fill="#7380f3"/><path d="M246.672,204.149c1.3,4.232.423,6.59-2.807,7.652a3.178,3.178,0,0,1-.915.121c-1.857,0-4.992-1.08-8.179-2.418a6.564,6.564,0,0,0,3.99-.294c3.653-2.1,1.123-4.068,1.123-4.068,4.776.475,3.766-5.182,4.146-7.825s-2.79-5.053-2.79-5.053c2.47.38,1.891-5.182,2.962-7.246s-.786-6.607-.786-6.607c-.4-3.61-1.857-4.759,0-7.212s0-8.456,0-8.456a8.823,8.823,0,0,0,.786-4.819,25.57,25.57,0,0,1,0-6.34c-1.727-2.228,0-9.561,0-9.561a8.585,8.585,0,0,1,1.036-4.033l.164.147c1.727,1.676,1.313,5.338,1.244,5.839.1.648.924,6.7-.691,9.846a15.287,15.287,0,0,1-.19,10.131c.13.8.959,6.167,0,9.855a27.1,27.1,0,0,1,0,5.925,3.092,3.092,0,0,1,.941,2.047c0,.7.1,1.848.207,3.057.328,3.541.5,6.149-.086,7.065.181.708.864,3.593.38,5.372a6.651,6.651,0,0,0,.06,2.5C247.4,201.221,247.6,202.862,246.672,204.149Z" transform="translate(-214.15 -137.285)" opacity="0.2"/><path d="M260.748,147.34s-.864,4.9,1.727,6.91c0,0-.527,6.046,1.045,8.818,0,0-2.591,5.579,0,9.069,0,0-3.135,8.361,0,10.451s11.5-3.653,14.812-4.318,7.315-5.925,3.636-9.682" transform="translate(-217.672 -138.56)" fill="none" stroke="#263238" stroke-linecap="round" stroke-linejoin="round" stroke-width="1"/><path d="M270.8,163v-4.189c0-2.462-1.883-5.856-1.883-5.856.864-2.194-2.436-6.91-2.436-6.91,1.391-2.151-.864-5.588-2.323-6.279s-3.455-1.157-8.412-2.064-3.93,6.253-3.93,6.253-1.019,6.676.725,9.812a15.037,15.037,0,0,0,.173,10.131s-1.045,5.977,0,9.863c0,0-.38,4.37.069,6.046" transform="translate(-216.433 -137.234)" fill="none" stroke="#263238" stroke-linecap="round" stroke-linejoin="round" stroke-width="1"/><path d="M269.83,167.88a10.511,10.511,0,0,1,7.86,0" transform="translate(-218.929 -141.255)" fill="none" stroke="#263238" stroke-linecap="round" stroke-linejoin="round" stroke-width="1"/><path d="M255.986,184.05s-4.206,1.676-4.206,4.008-1.08,9.06-.1,10.053,9.682.466,15.616-3.541c0,0,7.506.7,9.077-1.218s4.223-2.41,4.552-3.645" transform="translate(-216.399 -143.564)" fill="none" stroke="#263238" stroke-linecap="round" stroke-linejoin="round" stroke-width="1"/><path d="M282.545,179.43s2.738,2.66,2,6.132-1.045,8.274-2,10.969-7.143,6.348-10.762,5.277c0,0-10.416,4.077-13.033,2.988" transform="translate(-217.419 -142.934)" fill="none" stroke="#263238" stroke-linecap="round" stroke-linejoin="round" stroke-width="1"/><path d="M251.65,200.33s-.924,3.455-.415,5.346-1.08,4.94.51,6.91,14.493.924,16.41-1.166" transform="translate(-216.365 -145.783)" fill="none" stroke="#263238" stroke-linecap="round" stroke-linejoin="round" stroke-width="1"/><path d="M275.144,209s1.08,3.36-1.4,4.768-16.186,8.447-19.416,7.385-3.8-3.455-2.591-7.385" transform="translate(-216.383 -146.964)" fill="none" stroke="#263238" stroke-linecap="round" stroke-linejoin="round" stroke-width="1"/><path d="M283.579,201.85s-.138,6.547-4.379,8.343" transform="translate(-220.206 -145.99)" fill="none" stroke="#263238" stroke-linecap="round" stroke-linejoin="round" stroke-width="1"/><path d="M268.409,143.954a5.286,5.286,0,0,1,4.914.777c2.349,1.8,1.788,3.342,1.788,3.342,4.491,2.427,6.046,14.545,6.046,14.545a5.433,5.433,0,0,1,1.261,5.424c-.864,3.567-5.908,2.712-9.95,4.923s-8.5-1.339-8.5-1.339" transform="translate(-218.13 -138.059)" fill="none" stroke="#263238" stroke-linecap="round" stroke-linejoin="round" stroke-width="1"/><path d="M263.147,188.16a7.773,7.773,0,0,1-5.407,3.7" transform="translate(-217.281 -144.124)" fill="none" stroke="#263238" stroke-linecap="round" stroke-linejoin="round" stroke-width="1"/><path d="M261.769,173.216a9.561,9.561,0,0,0-5.839,1.045" transform="translate(-217.034 -142.074)" fill="none" stroke="#263238" stroke-linecap="round" stroke-linejoin="round" stroke-width="1"/><path d="M252.9,167.629s3.662-2.807,5.053-2.289" transform="translate(-216.621 -141.004)" fill="none" stroke="#263238" stroke-linecap="round" stroke-linejoin="round" stroke-width="1"/><path d="M261.769,158.09s-4.621-.527-5.839,1.391" transform="translate(-217.034 -140.016)" fill="none" stroke="#263238" stroke-linecap="round" stroke-linejoin="round" stroke-width="1"/><path d="M252.7,155.841a3.654,3.654,0,0,1,2.79-2.781" transform="translate(-216.594 -139.339)" fill="none" stroke="#263238" stroke-linecap="round" stroke-linejoin="round" stroke-width="1"/><path d="M251.86,144.582s1.425-2.5,3.515-2.1" transform="translate(-216.48 -137.892)" fill="none" stroke="#263238" stroke-linecap="round" stroke-linejoin="round" stroke-width="1"/><path d="M273.653,204.725s.389-2.712-1.183-3.9" transform="translate(-219.289 -145.851)" fill="none" stroke="#263238" stroke-linecap="round" stroke-linejoin="round" stroke-width="1"/><path d="M269.83,195.5s1.235-3.74.864-4.655" transform="translate(-218.929 -144.489)" fill="none" stroke="#263238" stroke-linecap="round" stroke-linejoin="round" stroke-width="1"/><path d="M260.61,200.39a3.075,3.075,0,0,1,1.8,2.332" transform="translate(-217.672 -145.791)" fill="none" stroke="#263238" stroke-linecap="round" stroke-linejoin="round" stroke-width="1"/><path d="M276.7,176.44s1.4,2.28.708,3.852" transform="translate(-219.865 -142.526)" fill="none" stroke="#263238" stroke-linecap="round" stroke-linejoin="round" stroke-width="1"/><path d="M283.218,165.236s-2.729-2.151-4.318-2.5" transform="translate(-220.165 -140.659)" fill="none" stroke="#263238" stroke-linecap="round" stroke-linejoin="round" stroke-width="1"/><path d="M271.66,155.241a7.273,7.273,0,0,1,4.318-.587" transform="translate(-219.178 -139.542)" fill="none" stroke="#263238" stroke-linecap="round" stroke-linejoin="round" stroke-width="1"/><path d="M235.649,147.34s.864,4.9-1.727,6.91c0,0,.527,6.046-1.045,8.818,0,0,2.591,5.579,0,9.069,0,0,3.135,8.361,0,10.451s-11.5-3.653-14.812-4.318-7.315-5.925-3.636-9.682" transform="translate(-211.177 -138.56)" fill="none" stroke="#263238" stroke-linecap="round" stroke-linejoin="round" stroke-width="1"/><path d="M226.16,163v-4.189c0-2.462,1.883-5.856,1.883-5.856-.864-2.194,2.436-6.91,2.436-6.91-1.391-2.151.864-5.588,2.323-6.279s3.455-1.157,8.412-2.064,3.93,6.253,3.93,6.253,1.019,6.676-.725,9.812a15.037,15.037,0,0,1-.173,10.131s1.045,5.977,0,9.863c0,0,.38,4.37-.069,6.046" transform="translate(-212.977 -137.234)" fill="none" stroke="#263238" stroke-linecap="round" stroke-linejoin="round" stroke-width="1"/><path d="M228.93,167.88a10.511,10.511,0,0,0-7.86,0" transform="translate(-212.283 -141.255)" fill="none" stroke="#263238" stroke-linecap="round" stroke-linejoin="round" stroke-width="1"/><path d="M239.333,184.05s4.206,1.676,4.206,4.008,1.08,9.06.086,10.053-9.673.466-15.607-3.541c0,0-7.505.7-9.077-1.218s-4.223-2.41-4.552-3.645" transform="translate(-211.372 -143.564)" fill="none" stroke="#263238" stroke-linecap="round" stroke-linejoin="round" stroke-width="1"/><path d="M213.365,179.43s-2.738,2.66-2,6.132,1.045,8.274,2,10.969,7.143,6.348,10.762,5.277c0,0,10.416,4.077,13.033,2.988" transform="translate(-210.943 -142.934)" fill="none" stroke="#263238" stroke-linecap="round" stroke-linejoin="round" stroke-width="1"/><path d="M245.637,200.33s.933,3.455.423,5.346,1.08,4.94-.51,6.91-14.493.924-16.41-1.166" transform="translate(-213.383 -145.783)" fill="none" stroke="#263238" stroke-linecap="round" stroke-linejoin="round" stroke-width="1"/><path d="M221.033,209s-1.08,3.36,1.4,4.768,16.186,8.447,19.416,7.385,3.8-3.455,2.591-7.385" transform="translate(-212.246 -146.964)" fill="none" stroke="#263238" stroke-linecap="round" stroke-linejoin="round" stroke-width="1"/><path d="M215.73,201.85s.138,6.547,4.379,8.343" transform="translate(-211.555 -145.99)" fill="none" stroke="#263238" stroke-linecap="round" stroke-linejoin="round" stroke-width="1"/><path d="M228.638,143.954a5.286,5.286,0,0,0-4.914.777c-2.349,1.8-1.788,3.342-1.788,3.342-4.491,2.427-6.046,14.545-6.046,14.545a5.433,5.433,0,0,0-1.261,5.424c.864,3.567,5.908,2.712,9.95,4.923s8.5-1.339,8.5-1.339" transform="translate(-211.37 -138.059)" fill="none" stroke="#263238" stroke-linecap="round" stroke-linejoin="round" stroke-width="1"/><path d="M236,188.16a7.773,7.773,0,0,0,5.407,3.7" transform="translate(-214.318 -144.124)" fill="none" stroke="#263238" stroke-linecap="round" stroke-linejoin="round" stroke-width="1"/><path d="M237.31,173.216a9.561,9.561,0,0,1,5.839,1.045" transform="translate(-214.496 -142.074)" fill="none" stroke="#263238" stroke-linecap="round" stroke-linejoin="round" stroke-width="1"/><path d="M246.3,167.629s-3.662-2.807-5.053-2.289" transform="translate(-215.033 -141.004)" fill="none" stroke="#263238" stroke-linecap="round" stroke-linejoin="round" stroke-width="1"/><path d="M237.31,158.09s4.621-.527,5.839,1.391" transform="translate(-214.496 -140.016)" fill="none" stroke="#263238" stroke-linecap="round" stroke-linejoin="round" stroke-width="1"/><path d="M246.86,155.841a3.654,3.654,0,0,0-2.79-2.781" transform="translate(-215.418 -139.339)" fill="none" stroke="#263238" stroke-linecap="round" stroke-linejoin="round" stroke-width="1"/><path d="M247.585,144.582s-1.425-2.5-3.515-2.1" transform="translate(-215.418 -137.892)" fill="none" stroke="#263238" stroke-linecap="round" stroke-linejoin="round" stroke-width="1"/><path d="M226.153,204.725s-.389-2.712,1.183-3.9" transform="translate(-212.97 -145.851)" fill="none" stroke="#263238" stroke-linecap="round" stroke-linejoin="round" stroke-width="1"/><path d="M230.023,195.5s-1.235-3.74-.864-4.655" transform="translate(-213.376 -144.489)" fill="none" stroke="#263238" stroke-linecap="round" stroke-linejoin="round" stroke-width="1"/><path d="M239.106,200.39a3.075,3.075,0,0,0-1.8,2.332" transform="translate(-214.496 -145.791)" fill="none" stroke="#263238" stroke-linecap="round" stroke-linejoin="round" stroke-width="1"/><path d="M223.158,176.44s-1.4,2.28-.708,3.852" transform="translate(-212.445 -142.526)" fill="none" stroke="#263238" stroke-linecap="round" stroke-linejoin="round" stroke-width="1"/><path d="M216.1,165.236s2.729-2.151,4.318-2.5" transform="translate(-211.605 -140.659)" fill="none" stroke="#263238" stroke-linecap="round" stroke-linejoin="round" stroke-width="1"/><path d="M227.658,155.241a7.272,7.272,0,0,0-4.318-.587" transform="translate(-212.592 -139.542)" fill="none" stroke="#263238" stroke-linecap="round" stroke-linejoin="round" stroke-width="1"/></g></g></g></svg>