<svg xmlns="http://www.w3.org/2000/svg" width="59.76" height="59.76" viewBox="0 0 59.76 59.76"><g transform="translate(-130.702 -8.597)"><circle cx="29.38" cy="29.38" r="29.38" transform="translate(131.202 9.097)" fill="#fff" stroke="#263238" stroke-linecap="round" stroke-linejoin="round" stroke-width="1"/><path d="M218.553,62.449V74.49c0,3.054-1.951,5.533-4.342,5.533H189.232c-2.4,0-4.342-2.478-4.342-5.533V62.449c0-3.054,1.952-5.533,4.342-5.533h4.108V49.93h16.588v6.986h4.254C216.6,56.916,218.553,59.395,218.553,62.449Z" transform="translate(-41.139 -23.221)" fill="#fff" stroke="#263238" stroke-linecap="round" stroke-linejoin="round" stroke-width="1"/><rect width="33.654" height="7.465" transform="translate(143.75 40.613)" fill="#7380f3" stroke="#263238" stroke-miterlimit="10" stroke-width="1"/><path d="M195.769,41.55H208.1a5.25,5.25,0,0,1,5.25,5.25v5.454H190.51V46.8a5.25,5.25,0,0,1,5.259-5.25Z" transform="translate(-41.276 -23.018)" fill="#7380f3" stroke="#263238" stroke-miterlimit="10" stroke-width="1"/><line y2="10.372" transform="translate(153.225 18.864)" fill="none" stroke="#263238" stroke-linecap="round" stroke-linejoin="round" stroke-width="1"/><line y2="10.704" transform="translate(158.621 18.532)" fill="none" stroke="#263238" stroke-linecap="round" stroke-linejoin="round" stroke-width="1"/><line y2="10.704" transform="translate(164.017 18.532)" fill="none" stroke="#263238" stroke-linecap="round" stroke-linejoin="round" stroke-width="1"/><line y2="10.099" transform="translate(169.413 19.137)" fill="none" stroke="#263238" stroke-linecap="round" stroke-linejoin="round" stroke-width="1"/></g></svg>