<svg xmlns="http://www.w3.org/2000/svg" width="55.005" height="55" viewBox="0 0 55.005 55"><path d="M22.349,12.821h4.3V24.085h-4.3Zm0,19.857h4.3v-4.3h-4.3ZM4.565,35.837a2.018,2.018,0,0,1,.064-2.094L22.592,5.348h0a2.278,2.278,0,0,1,3.81,0L38.242,24.063a17.817,17.817,0,0,1,4.295-.524q.232,0,.462.006L30.034,3.052a6.574,6.574,0,0,0-11.074,0L1,31.447a6.276,6.276,0,0,0-.2,6.464,6.534,6.534,0,0,0,5.733,3.361H24.7a17.811,17.811,0,0,1,.549-4.3H6.535a2.208,2.208,0,0,1-1.97-1.138ZM55,46.428a3.223,3.223,0,0,1-6.372.681l-1.781-.948a6.452,6.452,0,0,1-2.167,1.293v1.936a3.222,3.222,0,1,1-4.3.013V47.455a6.448,6.448,0,0,1-2.111-1.245l-1.718.917a3.223,3.223,0,1,1-2.1-3.748l1.727-.922a6.428,6.428,0,0,1-.018-2.058l-1.709-.913a3.223,3.223,0,1,1,2.1-3.748l1.641.876A6.453,6.453,0,0,1,40.388,35.3V33.354a3.223,3.223,0,1,1,4.3.013V35.3a6.452,6.452,0,0,1,2.24,1.362l1.707-.909a3.223,3.223,0,1,1,2.125,3.737l-1.841.98a6.4,6.4,0,0,1-.014,1.913l1.855.987A3.222,3.222,0,0,1,55,46.428Zm-10.32-5.049a2.148,2.148,0,1,0-2.148,2.148A2.151,2.151,0,0,0,44.685,41.379Z" transform="translate(0 -0.022)" fill="#7380f3"/></svg>