<svg xmlns="http://www.w3.org/2000/svg" xmlns:xlink="http://www.w3.org/1999/xlink" width="536.505" height="478.53" viewBox="0 0 536.505 478.53"><defs><clipPath id="a"><rect width="214.069" height="417.762" rx="14.52" fill="#263238" stroke="#263238" stroke-linecap="round" stroke-linejoin="round" stroke-width="1"/></clipPath><clipPath id="b"><rect width="195.038" height="364.599" fill="#7380f3" stroke="#263238" stroke-linecap="round" stroke-linejoin="round" stroke-width="1"/></clipPath><clipPath id="c"><path d="M163.36,253.55s-5.969,94.773,30.175,130.916c0,0,38.129-26.178,38.129-129.778Z" transform="translate(-162.992 -253.55)" fill="#fff" stroke="#263238" stroke-linecap="round" stroke-linejoin="round" stroke-width="1.01"/></clipPath></defs><g transform="translate(-49.43 -70.296)"><g transform="translate(63.957 70.296)"><path d="M63.468,249.392s-18.3,80.731,34.6,151.5,144.442,98.743,218.119,123.359,142.272-2.792,167.682-64.664-26.959-95.646-38.989-176.761-3-104.394-57.028-166.451-164.109-61.316-238.077,1.548S63.468,249.392,63.468,249.392Z" transform="translate(-60.407 -70.296)" fill="#7380f3"/><path d="M63.468,249.392s-18.3,80.731,34.6,151.5,144.442,98.743,218.119,123.359,142.272-2.792,167.682-64.664-26.959-95.646-38.989-176.761-3-104.394-57.028-166.451-164.109-61.316-238.077,1.548S63.468,249.392,63.468,249.392Z" transform="translate(-60.407 -70.296)" fill="#fff" opacity="0.7"/></g><g transform="translate(49.43 105.558)"><path d="M393.131,133.467s1.323-6.856-6.392-18.343S373.927,96.94,373.927,96.94s-7.941,14.849-.847,26.2a172.254,172.254,0,0,0,17.655,22.684Z" transform="translate(54.304 -96.94)" fill="#7380f3"/><path d="M376.266,163.8s1.323-6.855-6.392-18.343-12.838-18.184-12.838-18.184-7.941,14.849-.834,26.191a171.808,171.808,0,0,0,17.655,22.7Z" transform="translate(48.842 -87.13)" fill="#7380f3"/><path d="M386.235,138.941s2.065-6.617,14.307-13.155,19.852-9.966,19.852-9.966,0,16.808-11.62,23.491a173.371,173.371,0,0,1-26.284,11.66Z" transform="translate(58.301 -90.833)" fill="#7380f3"/><path d="M366.33,173.792s2.753-6.432,15.6-11.58,20.831-7.822,20.831-7.822-1.813,16.715-14.029,22.141a171.415,171.415,0,0,1-27.356,8.827Z" transform="translate(51.472 -78.357)" fill="#7380f3"/><path d="M359.949,217.715s1.323-6.869,12.837-14.558,18.727-12.017,18.727-12.017,1.72,16.729-9.079,24.59A171,171,0,0,1,357.54,230.1Z" transform="translate(50.23 -66.47)" fill="#7380f3"/><path d="M362.134,230.883s2.3-6.617-3.706-19.071S348.3,191.96,348.3,191.96s-9.926,13.565-4.566,25.807a171.432,171.432,0,0,0,14.254,24.96Z" transform="translate(45.252 -66.205)" fill="#7380f3"/><path d="M344.789,256.654s1.323-6.855,12.824-14.558,18.74-12.1,18.74-12.1,1.721,16.715-9.079,24.59a172.409,172.409,0,0,1-24.894,14.373Z" transform="translate(45.327 -53.901)" fill="#7380f3"/><path d="M343.7,286.669s-.437-6.975,8.722-17.364S367.5,253,367.5,253s5.9,15.736-2.554,26.085a171.5,171.5,0,0,1-20.447,20.209Z" transform="translate(45.753 -46.461)" fill="#7380f3"/><path d="M403.331,123.34a198.963,198.963,0,0,1-6.789,20.8c-7.636,18.886-19.6,29.685-26.866,46.665s-.821,41.954-8.192,64.148-18.7,33.086-19.137,48.809S347.19,363.2,347.19,363.2" transform="translate(45.307 -88.401)" fill="none" stroke="#263238" stroke-linecap="round" stroke-linejoin="round" stroke-width="0.5"/><line y1="5.916" x2="11.911" transform="translate(443.557 46.731)" fill="none" stroke="#263238" stroke-linecap="round" stroke-linejoin="round" stroke-width="0.5"/><line x1="2.819" y1="8.55" transform="translate(443.001 35.045)" fill="none" stroke="#263238" stroke-linecap="round" stroke-linejoin="round" stroke-width="0.5"/><path d="M363.54,176.129s9.952-4.8,20.13-9.569" transform="translate(52.171 -74.421)" fill="none" stroke="#263238" stroke-linecap="round" stroke-linejoin="round" stroke-width="0.5"/><path d="M371.463,170.7S367,155.125,360.65,144.14" transform="translate(51.236 -81.673)" fill="none" stroke="#263238" stroke-linecap="round" stroke-linejoin="round" stroke-width="0.5"/><path d="M358.18,223.825a109.161,109.161,0,0,1,23.386-21.175" transform="translate(50.437 -62.747)" fill="none" stroke="#263238" stroke-linecap="round" stroke-linejoin="round" stroke-width="0.5"/><path d="M357.938,232.822a123.081,123.081,0,0,0-5.929-19.667c-3.6-8.444-4.129-9.555-4.129-9.555" transform="translate(47.106 -62.44)" fill="none" stroke="#263238" stroke-linecap="round" stroke-linejoin="round" stroke-width="0.5"/><path d="M342.34,265.909a116.307,116.307,0,0,1,10.892-14.254,103.235,103.235,0,0,1,12.705-11.276" transform="translate(45.314 -50.543)" fill="none" stroke="#263238" stroke-linecap="round" stroke-linejoin="round" stroke-width="0.5"/><path d="M344.3,295.9a29.99,29.99,0,0,1,5.572-14.69c4.976-6.286,10.866-14.624,13.235-17.92" transform="translate(45.948 -43.133)" fill="none" stroke="#263238" stroke-linecap="round" stroke-linejoin="round" stroke-width="0.5"/><path d="M326.472,189.466s.093-4.46,6.458-10.588,10.442-9.569,10.442-9.569,2.9,10.3-3.031,16.4A109.1,109.1,0,0,1,326.3,197.433Z" transform="translate(40.126 -73.531)" fill="#7380f3"/><path d="M332.842,210.606s.106-4.447,6.458-10.588,10.455-9.569,10.455-9.569,2.885,10.3-3.031,16.411a109.353,109.353,0,0,1-14.055,11.713Z" transform="translate(42.186 -66.694)" fill="#7380f3"/><path d="M331.127,194.918s-.371-4.434-7.107-10.124S313,175.9,313,175.9s-2.25,10.469,4.05,16.186A109.754,109.754,0,0,0,331.8,202.9Z" transform="translate(35.696 -71.4)" fill="#7380f3"/><path d="M339.237,219.383s-.847-4.367-8.139-9.264-11.911-7.689-11.911-7.689-1.125,10.588,5.731,15.67a109.937,109.937,0,0,0,15.815,9.264Z" transform="translate(37.803 -62.819)" fill="#7380f3"/><path d="M336.333,247.328s.093-4.447-6-10.813-10.019-10.005-10.019-10.005-3.335,10.164,2.3,16.517a109.426,109.426,0,0,0,13.539,12.308Z" transform="translate(37.874 -55.03)" fill="#7380f3"/><path d="M332.124,254.287s-.543-4.407,4.9-11.355S345.993,232,345.993,232s4.328,9.78-.662,16.662a109.455,109.455,0,0,1-12.242,13.592Z" transform="translate(42.004 -53.254)" fill="#7380f3"/><path d="M336.692,280.411s1.323-4.248,9.172-8.3,12.718-6.233,12.718-6.233-.119,10.694-7.517,14.876a109.263,109.263,0,0,1-16.795,7.292Z" transform="translate(42.703 -42.295)" fill="#7380f3"/><path d="M340.5,273.588s.093-4.447-6.008-10.813-10.019-10.005-10.019-10.005-3.335,10.164,2.316,16.517a109.419,109.419,0,0,0,13.539,12.308Z" transform="translate(39.217 -46.536)" fill="#7380f3"/><path d="M336.107,292.073s1.218-4.275-3.057-11.977-7.16-12.215-7.16-12.215-5.81,8.986-1.945,16.57A109.355,109.355,0,0,0,333.91,299.8Z" transform="translate(38.934 -41.648)" fill="#7380f3"/><path d="M326,183.66a127.071,127.071,0,0,0,1.4,13.857c2.2,12.771,8.166,21.175,10.389,32.663s-5.175,26.191-3.6,41.027,7.133,23.121,5.294,32.941-11.038,36.3-11.038,36.3" transform="translate(40.028 -68.89)" fill="none" stroke="#263238" stroke-linecap="round" stroke-linejoin="round" stroke-width="0.5"/><line x1="6.604" y1="5.294" transform="translate(360.218 121.176)" fill="none" stroke="#263238" stroke-linecap="round" stroke-linejoin="round" stroke-width="0.5"/><line y1="4.936" x2="2.912" transform="translate(366.637 115.604)" fill="none" stroke="#263238" stroke-linecap="round" stroke-linejoin="round" stroke-width="0.5"/><path d="M337.39,220.519s-5.519-4.328-11.21-8.669" transform="translate(40.087 -59.772)" fill="none" stroke="#263238" stroke-linecap="round" stroke-linejoin="round" stroke-width="0.5"/><path d="M332.67,215.411a90,90,0,0,1,10.323-15.061" transform="translate(42.186 -63.491)" fill="none" stroke="#263238" stroke-linecap="round" stroke-linejoin="round" stroke-width="0.5"/><path d="M334.763,250.991A69.283,69.283,0,0,0,323.09,234.66" transform="translate(39.087 -52.394)" fill="none" stroke="#263238" stroke-linecap="round" stroke-linejoin="round" stroke-width="0.5"/><path d="M332.64,255.868a78.621,78.621,0,0,1,6.326-11.421c3.388-4.764,3.865-5.386,3.865-5.386" transform="translate(42.176 -50.97)" fill="none" stroke="#263238" stroke-linecap="round" stroke-linejoin="round" stroke-width="0.5"/><path d="M334.85,282.715a65.616,65.616,0,0,1,9.516-6.617,41.8,41.8,0,0,0,6.009-3.467" transform="translate(42.891 -40.112)" fill="none" stroke="#263238" stroke-linecap="round" stroke-linejoin="round" stroke-width="0.5"/><path d="M338.94,279.341a74.1,74.1,0,0,0-4.831-10.349,65.664,65.664,0,0,0-6.379-8.722" transform="translate(40.588 -44.11)" fill="none" stroke="#263238" stroke-linecap="round" stroke-linejoin="round" stroke-width="0.5"/><path d="M332.929,297.576a18.979,18.979,0,0,0-1.469-9.886c-2.237-4.579-4.764-10.588-5.81-12.93" transform="translate(39.915 -39.423)" fill="none" stroke="#263238" stroke-linecap="round" stroke-linejoin="round" stroke-width="0.5"/><path d="M92.641,259.78s-2.091-6.048-13.473-11.567S60.64,239.73,60.64,239.73,61.222,255.082,72,260.813a156.719,156.719,0,0,0,24.365,9.833Z" transform="translate(-45.804 -50.754)" fill="#7380f3"/><path d="M93.231,291.48s-2.091-6.035-13.473-11.567S61.23,271.43,61.23,271.43s.582,15.352,11.355,21.1a157.489,157.489,0,0,0,24.365,9.82Z" transform="translate(-45.613 -40.5)" fill="#7380f3"/><path d="M87.142,271.093s-1.443-6.233,5.294-16.967,11.157-17.006,11.157-17.006,7.663,13.314,1.588,23.9A156.459,156.459,0,0,1,89.762,282.29Z" transform="translate(-37.274 -51.598)" fill="#7380f3"/><path d="M87.555,308.154s-.781-6.353,7.014-16.318S107.447,276.1,107.447,276.1s6.233,14.042-.926,23.928a157.766,157.766,0,0,1-17.562,19.534Z" transform="translate(-37.105 -38.989)" fill="#7380f3"/><path d="M102.445,344.958s-2.091-6.035,3.441-17.417,9.264-18.092,9.264-18.092,9.039,12.427,4.116,23.6a156.942,156.942,0,0,1-13.076,22.777Z" transform="translate(-32.407 -28.202)" fill="#7380f3"/><path d="M112.409,351.228s-1.218-6.273-11.7-13.367S83.624,326.85,83.624,326.85s-1.615,15.273,8.245,22.5a157.141,157.141,0,0,0,22.711,13.235Z" transform="translate(-38.401 -22.574)" fill="#7380f3"/><path d="M108.325,382.682s-2.091-6.048,3.441-17.43,9.264-18.092,9.264-18.092,9.039,12.427,4.116,23.6a157.484,157.484,0,0,1-13.089,22.79Z" transform="translate(-30.505 -16.005)" fill="#7380f3"/><path d="M121.309,405.763s-3.56-5.294-1.085-17.721,4.407-19.852,4.407-19.852,11.911,9.741,9.939,21.784a156.885,156.885,0,0,1-6.882,25.358Z" transform="translate(-26.814 -9.202)" fill="#7380f3"/><path d="M85,253.51a180.718,180.718,0,0,1,4.182,19.547c2.647,18.423-1.879,32.451.185,49.206s18.528,33.523,22.962,54.447.424,34.754,7.266,47.353,31.088,44.759,31.088,44.759" transform="translate(-37.925 -46.296)" fill="none" stroke="#263238" stroke-linecap="round" stroke-linejoin="round" stroke-width="0.5"/><line y1="10.138" x2="6.697" transform="translate(51.165 213.394)" fill="none" stroke="#263238" stroke-linecap="round" stroke-linejoin="round" stroke-width="0.5"/><line x1="6.167" y1="5.466" transform="translate(42.642 209.874)" fill="none" stroke="#263238" stroke-linecap="round" stroke-linejoin="round" stroke-width="0.5"/><path d="M88.48,308.895s5.651-8.364,11.514-16.795" transform="translate(-36.799 -33.814)" fill="none" stroke="#263238" stroke-linecap="round" stroke-linejoin="round" stroke-width="0.5"/><path d="M93.315,298.707S82.648,288.4,72.59,282.68" transform="translate(-41.939 -36.861)" fill="none" stroke="#263238" stroke-linecap="round" stroke-linejoin="round" stroke-width="0.5"/><path d="M104.83,349.4a99.591,99.591,0,0,1,8.761-27.462" transform="translate(-31.51 -24.162)" fill="none" stroke="#263238" stroke-linecap="round" stroke-linejoin="round" stroke-width="0.5"/><path d="M111.134,354A112.915,112.915,0,0,0,97.45,341.184c-6.723-5.029-7.65-5.664-7.65-5.664" transform="translate(-36.372 -19.77)" fill="none" stroke="#263238" stroke-linecap="round" stroke-linejoin="round" stroke-width="0.5"/><path d="M111.13,389.942a108.39,108.39,0,0,1,2.065-16.265A94.548,94.548,0,0,1,118.065,359" transform="translate(-29.473 -12.175)" fill="none" stroke="#263238" stroke-linecap="round" stroke-linejoin="round" stroke-width="0.5"/><path d="M126.256,412.217a27.449,27.449,0,0,1-2.343-14.161c1.059-7.253,1.879-16.543,2.25-20.236" transform="translate(-25.383 -6.087)" fill="none" stroke="#263238" stroke-linecap="round" stroke-linejoin="round" stroke-width="0.5"/><path d="M64.276,336.09s-1.972-3.56.265-11.3,3.864-12.348,3.864-12.348,7.014,6.816,5.135,14.346A100.239,100.239,0,0,1,67.81,342.5Z" transform="translate(-44.888 -27.235)" fill="#7380f3"/><path d="M79.015,349.87s-1.959-3.56.265-11.3,3.864-12.348,3.864-12.348,7.014,6.816,5.135,14.346a99.378,99.378,0,0,1-5.717,15.709Z" transform="translate(-40.118 -22.778)" fill="#7380f3"/><path d="M72.485,336.4s-2.329-3.335-10.27-4.738S49.43,329.69,49.43,329.69s3.031,9.264,10.588,10.932A99.416,99.416,0,0,0,76.654,342.4Z" transform="translate(-49.43 -21.655)" fill="#7380f3"/><path d="M90.187,352.035s-2.647-3.07-10.707-3.626-12.93-.609-12.93-.609,3.97,8.92,11.713,9.754a100.793,100.793,0,0,0,16.715,0Z" transform="translate(-43.892 -15.798)" fill="#7380f3"/><path d="M100.541,375.5s-1.972-3.56-9.7-5.8-12.52-3.309-12.52-3.309,2.038,9.569,9.41,11.99a99.485,99.485,0,0,0,16.345,3.52Z" transform="translate(-40.085 -9.785)" fill="#7380f3"/><path d="M98.486,384.374s-2.448-3.242-1.323-11.21S99.24,360.38,99.24,360.38s7.941,5.744,7.12,13.486a99.259,99.259,0,0,1-3.441,16.358Z" transform="translate(-34.086 -11.729)" fill="#7380f3"/><path d="M114.108,404.083s-.873-3.97,3.441-10.76,7.186-10.773,7.186-10.773,4.817,8.523.887,15.22a99.075,99.075,0,0,1-9.926,13.46Z" transform="translate(-28.533 -4.558)" fill="#7380f3"/><path d="M115.868,394.335s-1.959-3.56-9.7-5.784S93.66,385.23,93.66,385.23s2.025,9.569,9.41,12a100,100,0,0,0,16.345,3.573Z" transform="translate(-35.123 -3.691)" fill="#7380f3"/><path d="M120.455,411.219s-.993-3.97-7.941-8.06-11.263-6.379-11.263-6.379-.463,9.767,6.061,13.989a99.789,99.789,0,0,0,14.915,7.544Z" transform="translate(-32.67 0.045)" fill="#7380f3"/><path d="M63.36,329.81a117.787,117.787,0,0,0,7.464,10.3c7.6,9.092,16.146,12.943,23.2,21.043s7.941,23.081,15.961,34.053,16.265,14.995,19.3,23.61,7.941,33.748,7.941,33.748" transform="translate(-44.924 -21.617)" fill="none" stroke="#263238" stroke-linecap="round" stroke-linejoin="round" stroke-width="0.5"/><line x1="7.65" y1="1.165" transform="translate(16.755 315.922)" fill="none" stroke="#263238" stroke-linecap="round" stroke-linejoin="round" stroke-width="0.5"/><line y1="5.228" x2="0.04" transform="translate(21.533 307.241)" fill="none" stroke="#263238" stroke-linecap="round" stroke-linejoin="round" stroke-width="0.5"/><path d="M89.258,353.717S82.9,352.83,76.42,352.01" transform="translate(-40.7 -14.436)" fill="none" stroke="#263238" stroke-linecap="round" stroke-linejoin="round" stroke-width="0.5"/><path d="M81.508,352.993a81.3,81.3,0,0,1,1.244-16.623" transform="translate(-39.065 -19.495)" fill="none" stroke="#263238" stroke-linecap="round" stroke-linejoin="round" stroke-width="0.5"/><path d="M101.178,379.017A63.7,63.7,0,0,0,84.45,371.46" transform="translate(-38.103 -8.145)" fill="none" stroke="#263238" stroke-linecap="round" stroke-linejoin="round" stroke-width="0.5"/><path d="M99.934,384.963a71.03,71.03,0,0,1-.238-11.911c.49-5.294.582-6.022.582-6.022" transform="translate(-33.218 -9.578)" fill="none" stroke="#263238" stroke-linecap="round" stroke-linejoin="round" stroke-width="0.5"/><path d="M114.66,405.767a60.111,60.111,0,0,1,4.42-9.622,40.229,40.229,0,0,0,3.163-5.506" transform="translate(-28.331 -1.941)" fill="none" stroke="#263238" stroke-linecap="round" stroke-linejoin="round" stroke-width="0.5"/><path d="M117.475,399.486a67.9,67.9,0,0,0-8.563-5.956,60.888,60.888,0,0,0-9.052-3.97" transform="translate(-33.118 -2.29)" fill="none" stroke="#263238" stroke-linecap="round" stroke-linejoin="round" stroke-width="0.5"/><path d="M121.1,416.64a17.457,17.457,0,0,0-5.7-7.147c-3.865-2.581-8.616-6.154-10.588-7.544" transform="translate(-31.517 1.718)" fill="none" stroke="#263238" stroke-linecap="round" stroke-linejoin="round" stroke-width="0.5"/></g><g transform="translate(348.386 289.466)"><rect width="105.122" height="212.931" rx="4.51" transform="translate(0 45.924)" fill="#fff" stroke="#263238" stroke-linecap="round" stroke-linejoin="round" stroke-width="1.01"/><rect width="99.471" height="179.911" rx="4.51" transform="translate(2.832 73.862)" fill="#7380f3"/><rect width="99.471" height="179.911" rx="4.51" transform="translate(2.832 73.862)" fill="#fff" opacity="0.5"/><rect width="50.013" height="45.924" transform="translate(27.568)" fill="#263238" stroke="#263238" stroke-linecap="round" stroke-linejoin="round" stroke-width="1.01"/><line y2="36.435" transform="translate(31.736 4.539)" fill="none" stroke="#fff" stroke-linecap="round" stroke-linejoin="round" stroke-width="1.01"/><line y2="36.435" transform="translate(39.465 4.539)" fill="none" stroke="#fff" stroke-linecap="round" stroke-linejoin="round" stroke-width="1.01"/><line y2="24.841" transform="translate(50.503 16.133)" fill="none" stroke="#fff" stroke-linecap="round" stroke-linejoin="round" stroke-width="1.01"/><line y2="6.075" transform="translate(50.503 4.539)" fill="none" stroke="#fff" stroke-linecap="round" stroke-linejoin="round" stroke-width="1.01"/><rect width="93.118" height="102.766" transform="translate(6.008 91.107)" fill="#fff"/><circle cx="34.489" cy="34.489" r="34.489" transform="translate(17.456 110.654)" fill="#263238"/><rect width="12.626" height="47.459" transform="translate(45.633 121.414)" fill="#7380f3"/><rect width="12.626" height="47.459" transform="translate(75.675 138.831) rotate(90)" fill="#7380f3"/></g><g transform="translate(425.388 424.432)"><path d="M431.773,373.412V351.8H396.821v21.612l-8.377,11.474a9.516,9.516,0,0,0-1.813,5.585v66.795h55.281V390.445a9.516,9.516,0,0,0-1.813-5.585Z" transform="translate(-386.63 -333.378)" fill="#263238" stroke="#263238" stroke-linecap="round" stroke-linejoin="round" stroke-width="1.01"/><rect width="34.82" height="3.745" transform="translate(10.336 8.51)" fill="#263238" stroke="#263238" stroke-linecap="round" stroke-linejoin="round" stroke-width="1.01"/><rect width="45.103" height="9.595" transform="translate(5.109)" fill="#7380f3" stroke="#263238" stroke-linecap="round" stroke-linejoin="round" stroke-width="1.01"/><rect width="45.103" height="7.623" rx="1.27" transform="translate(5.109 12.07)" fill="#263238" stroke="#263238" stroke-linecap="round" stroke-linejoin="round" stroke-width="1.01"/><rect width="35.733" height="44.495" transform="translate(0.013 61.183)" fill="#7380f3" stroke="#263238" stroke-linecap="round" stroke-linejoin="round" stroke-width="1.01"/></g><g transform="translate(125.727 130.36)"><rect width="214.069" height="417.762" rx="14.52" fill="#263238"/><g clip-path="url(#a)"><path d="M125.509,115.68a18.449,18.449,0,0,0-18.449,18.449V514.993a18.4,18.4,0,0,0,6.617,14.148L238.572,115.68Z" transform="translate(-107.086 -115.68)" fill="#fff" opacity="0.2"/><path d="M197.018,423.989a7.279,7.279,0,1,0-7.279,7.279,7.279,7.279,0,0,0,7.279-7.279Z" transform="translate(-82.698 -18.31)" fill="none" stroke="#fff" stroke-linecap="round" stroke-linejoin="round" stroke-width="1"/></g><rect width="214.069" height="417.762" rx="14.52" fill="none" stroke="#263238" stroke-linecap="round" stroke-linejoin="round" stroke-width="1"/><rect width="195.038" height="364.599" transform="translate(9.529 28.375)" fill="#7380f3"/><g transform="translate(9.529 28.375)" clip-path="url(#b)"><path d="M281.652,279.888,250.736,251.95l-30.016.516L190.7,251.95l-30.916,27.938L86.68,328.036V470.1H354.759V328.036Z" transform="translate(-123.207 -99.977)" fill="#fff" stroke="#263238" stroke-linecap="round" stroke-linejoin="round" stroke-width="1.01"/><path d="M189.327,377.143,176,396.042s15.881-7.2,31.181-13.433,34.529-25.9,38.843-33.086,10.588-17.748,10.588-17.748L237.4,316.966h20.659s-.49-22.5-6.723-40.776" transform="translate(-94.316 -92.137)" fill="none" stroke="#263238" stroke-linecap="round" stroke-linejoin="round" stroke-width="1.01"/><path d="M195.531,385.4c-2.237-.94-4.5-1.879-6.763-2.793-15.339-6.233-34.529-25.9-38.843-33.086s-10.588-17.748-10.588-17.748l19.23-14.81H138s.49-22.5,6.723-40.776" transform="translate(-106.608 -92.137)" fill="none" stroke="#263238" stroke-linecap="round" stroke-linejoin="round" stroke-width="1.01"/><path d="M163.36,253.55s-5.969,94.773,30.175,130.916c0,0,38.129-26.178,38.129-129.778Z" transform="translate(-98.524 -99.46)" fill="#fff"/><g transform="translate(64.468 154.09)" clip-path="url(#c)"><path d="M186.629,172.06h30.744A33.232,33.232,0,0,1,250.6,205.292v68.965A44.614,44.614,0,0,1,206,318.884h-7.941a44.614,44.614,0,0,1-44.614-44.614V205.292a33.232,33.232,0,0,1,33.232-33.232Z" transform="translate(-166.078 -279.908)" fill="#7380f3"/><path d="M186.629,172.06h30.744A33.232,33.232,0,0,1,250.6,205.292v68.965A44.614,44.614,0,0,1,206,318.884h-7.941a44.614,44.614,0,0,1-44.614-44.614V205.292a33.232,33.232,0,0,1,33.232-33.232Z" transform="translate(-166.078 -279.908)" fill="#fff" opacity="0.5"/></g><path d="M163.36,253.55s-5.969,94.773,30.175,130.916c0,0,38.129-26.178,38.129-129.778Z" transform="translate(-98.524 -99.46)" fill="none" stroke="#263238" stroke-linecap="round" stroke-linejoin="round" stroke-width="1.01"/><path d="M174.81,247.45s-3.309,41.358,16.662,57.134c0,0,21.069-11.421,21.069-56.631Z" transform="translate(-94.767 -101.433)" fill="none" stroke="#263238" stroke-linecap="round" stroke-linejoin="round" stroke-width="1.01"/><path d="M169.72,303.6l23.333-12.983,26.191,18.1" transform="translate(-96.348 -87.469)" fill="none" stroke="#263238" stroke-linecap="round" stroke-linejoin="round" stroke-width="1.01"/><path d="M198.145,311.57l4.553-13.089-10.826-7.861-14.227,7.861,7.4,11.911L173.37,345.451c4.209,10.482,9.688,19.852,16.808,26.985,0,0,10.138-6.961,19.958-27.912Z" transform="translate(-95.167 -87.469)" fill="#7380f3" stroke="#263238" stroke-linecap="round" stroke-linejoin="round" stroke-width="1.01"/><circle cx="19.018" cy="19.018" r="19.018" transform="translate(124.722 261.08) rotate(-9.26)" fill="#fff" stroke="#263238" stroke-linecap="round" stroke-linejoin="round" stroke-width="1.01"/><circle cx="13.671" cy="13.671" r="13.671" transform="translate(128.692 284.222) rotate(-67.65)" fill="#fff" stroke="#263238" stroke-linecap="round" stroke-linejoin="round" stroke-width="1.01"/><path d="M225.712,377.193a2.912,2.912,0,0,1-2.912-2.912V262.542a2.912,2.912,0,1,1,5.823,0v111.74a2.9,2.9,0,0,1-2.912,2.912Z" transform="translate(-79.178 -97.493)" fill="#263238"/><path d="M163.518,391.479h-.278c-2.647-.45-28.044-25.146-30.439-31.763s-1.721-17.2-1.694-17.6a1.459,1.459,0,0,1,2.912.185c0,.093-.6,10.389,1.522,16.464,1.945,5.545,24.55,27.687,28.123,29.844,1.985-.622,9.264-7.147,11.911-13.83a1.459,1.459,0,0,1,2.713,1.072C175.535,382.929,166.866,391.479,163.518,391.479ZM163.928,388.633ZM163.571,388.567Z" transform="translate(-108.872 -71.255)" fill="#fff" stroke="#263238" stroke-linecap="round" stroke-linejoin="round" stroke-width="1.01"/><path d="M142.168,391.5c-3.362,0-12.017-8.55-14.823-15.709a1.459,1.459,0,0,1,2.713-1.072c2.647,6.683,9.913,13.235,11.911,13.83,3.573-2.157,26.178-24.3,28.123-29.844,2.118-6.075,1.535-16.371,1.522-16.464a1.459,1.459,0,1,1,2.912-.185c0,.45.635,10.985-1.694,17.6s-27.673,31.366-30.44,31.763ZM141.757,388.653ZM142.115,388.587Z" transform="translate(-110.087 -71.275)" fill="#fff" stroke="#263238" stroke-linecap="round" stroke-linejoin="round" stroke-width="1.01"/><path d="M148.022,317.786a2.925,2.925,0,0,1-2.912-2.912V266.132a2.912,2.912,0,1,1,5.823,0v48.743a2.912,2.912,0,0,1-2.912,2.912Z" transform="translate(-104.308 -96.332)" fill="#263238"/><path d="M171.979,361.008a2.925,2.925,0,0,1-2.912-2.912V323.025a16.7,16.7,0,0,0-33.4,0V358.07a2.912,2.912,0,1,1-5.823,0V323a22.5,22.5,0,1,1,45,0V358.07A2.925,2.925,0,0,1,171.979,361.008Z" transform="translate(-109.247 -84.274)" fill="#263238"/><rect width="7.398" height="10.283" rx="2.56" transform="translate(11.402 301.554) rotate(-37.84)" fill="#fff" stroke="#263238" stroke-linecap="round" stroke-linejoin="round" stroke-width="1.01"/><rect width="7.398" height="10.283" rx="2.56" transform="translate(68.506 309.655) rotate(-142.16)" fill="#fff" stroke="#263238" stroke-linecap="round" stroke-linejoin="round" stroke-width="1.01"/><rect width="15.048" height="26.218" rx="5.22" transform="translate(41.133 92.841)" fill="#fff" stroke="#263238" stroke-linecap="round" stroke-linejoin="round" stroke-width="1.01"/><rect width="15.048" height="26.218" rx="5.22" transform="translate(142.827 92.841)" fill="#fff" stroke="#263238" stroke-linecap="round" stroke-linejoin="round" stroke-width="1.01"/><path d="M186.632,157.64h30.744a33.232,33.232,0,0,1,33.232,33.232v68.965a44.614,44.614,0,0,1-44.614,44.614h-7.941a44.614,44.614,0,0,1-44.614-44.614V190.872a33.232,33.232,0,0,1,33.192-33.232Z" transform="translate(-101.613 -130.483)" fill="#fff" stroke="#263238" stroke-linecap="round" stroke-linejoin="round" stroke-width="1.01"/><rect width="20.328" height="5.453" rx="1.89" transform="translate(71.136 85.191)" fill="#263238" stroke="#263238" stroke-linecap="round" stroke-linejoin="round" stroke-width="1.01"/><rect width="20.328" height="5.453" rx="1.89" transform="translate(111.303 85.191)" fill="#263238" stroke="#263238" stroke-linecap="round" stroke-linejoin="round" stroke-width="1.01"/><path d="M181.575,215.444c0,3.15-1.443,5.691-3.229,5.691s-3.216-2.541-3.216-5.691,1.443-5.7,3.216-5.7S181.575,212.294,181.575,215.444Z" transform="translate(-94.598 -113.631)" fill="#263238" stroke="#263238" stroke-linecap="round" stroke-linejoin="round" stroke-width="1.01"/><path d="M208.958,215.444c0,3.15-1.443,5.691-3.229,5.691s-3.229-2.541-3.229-5.691,1.443-5.7,3.229-5.7S208.958,212.294,208.958,215.444Z" transform="translate(-85.745 -113.631)" fill="#263238" stroke="#263238" stroke-linecap="round" stroke-linejoin="round" stroke-width="1.01"/><path d="M219.4,157.64H184.63a31.22,31.22,0,0,0-31.22,31.22V262.22a42.232,42.232,0,0,0,42.232,42.232h12.811a42.218,42.218,0,0,0,42.232-42.232V188.86A31.22,31.22,0,0,0,219.4,157.64Zm23.822,94.243s0,8.92-8.92,17.853c0,0-9.423-12.4-13.393-13.393-2.568-.635-12.123-.45-18.608-.238-6.472-.212-16.04-.4-18.528.238-3.97.993-13.393,13.393-13.393,13.393-8.92-8.933-8.92-17.853-8.92-17.853v-40.67L166.1,205.1a13.777,13.777,0,0,0,.648-16.067,13.155,13.155,0,0,1,1.866-16.636l.093-.079a13.155,13.155,0,0,1,16.212-1.641l6.935,5.439a17.2,17.2,0,0,0,21.175,0l6.908-5.439a13.235,13.235,0,0,1,16.3,1.641l.079.079a13.3,13.3,0,0,1,1.747,16.821,13.738,13.738,0,0,0,.781,15.882l4.8,6.114Z" transform="translate(-101.623 -130.483)" fill="#263238" stroke="#263238" stroke-linecap="round" stroke-linejoin="round" stroke-width="1.01"/><path d="M196.85,227.589s5.956-.794,5.956,2.647-3.481,5.942-10.416,3.467" transform="translate(-89.015 -107.883)" fill="#fff" stroke="#263238" stroke-linecap="round" stroke-linejoin="round" stroke-width="1.01"/><path d="M199.517,206.36v28.772a5.956,5.956,0,0,1-5.942,5.956h-5.294c-3.785.265-5.109-.662-5.559-2.263a3.97,3.97,0,0,1,.5-3.163h0c0-1.482,6.326-1.482,6.326-1.482" transform="translate(-92.184 -114.724)" fill="#fff" stroke="#263238" stroke-linecap="round" stroke-linejoin="round" stroke-width="1.01"/><path d="M194.759,247.014A31.564,31.564,0,0,1,179,242.9a2.184,2.184,0,0,1,2.329-3.692,28.018,28.018,0,0,0,27.1-.132,2.184,2.184,0,1,1,2.051,3.851A33.086,33.086,0,0,1,194.759,247.014Z" transform="translate(-93.66 -104.24)" fill="#fff" stroke="#263238" stroke-linecap="round" stroke-linejoin="round" stroke-width="1.01"/><line x2="9.608" transform="translate(117.033 110.416)" fill="none" stroke="#263238" stroke-linecap="round" stroke-linejoin="round" stroke-width="1.01"/><line x2="9.608" transform="translate(78.865 110.416)" fill="none" stroke="#263238" stroke-linecap="round" stroke-linejoin="round" stroke-width="1.01"/><circle cx="17.178" cy="17.178" r="17.178" transform="translate(23.624 321.812)" fill="none" stroke="#263238" stroke-linecap="round" stroke-linejoin="round" stroke-width="0.724"/><path d="M145.937,400.85h0a3.467,3.467,0,0,1-3.467-3.467V386.4a3.467,3.467,0,0,1,3.467-3.467h0A3.468,3.468,0,0,1,149.4,386.4v10.985a3.467,3.467,0,0,1-3.467,3.467Z" transform="translate(-105.162 -57.611)" fill="#263238"/><path d="M146.608,401.274a6.141,6.141,0,0,1-6.128-6.128v-5.161a.635.635,0,0,1,.635-.635.622.622,0,0,1,.635.635v5.161a4.87,4.87,0,0,0,9.727,0v-5.162a.622.622,0,0,1,.635-.635.635.635,0,0,1,.635.635v5.161a6.141,6.141,0,0,1-6.141,6.128Z" transform="translate(-105.805 -55.535)" fill="#263238"/><path d="M145.262,405.274a.622.622,0,0,1-.622-.635v-6.617a.662.662,0,0,1,1.323,0v6.617a.622.622,0,0,1-.7.635Z" transform="translate(-104.46 -52.944)" fill="#263238"/><path d="M150.532,403.911h-8.457a.649.649,0,0,1-.635-.635.635.635,0,0,1,.635-.635h8.457a.635.635,0,0,1,.635.635.649.649,0,0,1-.635.635Z" transform="translate(-105.495 -51.236)" fill="#263238"/><circle cx="17.178" cy="17.178" r="17.178" transform="translate(137.375 321.812)" fill="none" stroke="#263238" stroke-linecap="round" stroke-linejoin="round" stroke-width="0.724"/><path d="M244.067,389.832l-5.016,2.9v-2.382A2.051,2.051,0,0,0,237,388.31H225.671a2.038,2.038,0,0,0-2.051,2.038v9.132a2.038,2.038,0,0,0,2.051,2.051H237a2.051,2.051,0,0,0,2.051-2.051v-2.316l5.016,2.9Z" transform="translate(-78.913 -55.871)" fill="#263238"/><circle cx="17.178" cy="17.178" r="17.178" transform="translate(80.506 321.812)" fill="#263238" stroke="#263238" stroke-linecap="round" stroke-linejoin="round" stroke-width="0.724"/><path d="M199.713,390.52h-17.39a3.282,3.282,0,0,0-3.229,3.878l.5,2.726a.821.821,0,0,0,.794.662h5.294a.82.82,0,0,0,.821-.82v-2.951h9.132v2.951a.821.821,0,0,0,.821.821h5.294a.821.821,0,0,0,.807-.662l.5-2.726a3.282,3.282,0,0,0-3.348-3.878Z" transform="translate(-93.333 -55.157)" fill="#7380f3"/><rect width="16.173" height="8.867" transform="translate(171.189 3.785)" fill="none" stroke="#263238" stroke-linecap="round" stroke-linejoin="round" stroke-width="0.821"/><rect width="12.613" height="8.867" transform="translate(171.189 3.785)" fill="#263238" stroke="#263238" stroke-linecap="round" stroke-linejoin="round" stroke-width="0.725"/><rect width="2.276" height="3.904" transform="translate(187.322 6.26)" fill="#263238" stroke="#263238" stroke-linecap="round" stroke-linejoin="round" stroke-width="0.725"/><rect width="2.965" height="5.082" transform="translate(3.348 6.525)" fill="#263238" stroke="#263238" stroke-linecap="round" stroke-linejoin="round" stroke-width="0.883"/><rect width="2.965" height="6.869" transform="translate(8.007 4.751)" fill="#263238" stroke="#263238" stroke-linecap="round" stroke-linejoin="round" stroke-width="0.883"/><rect width="2.965" height="8.973" transform="translate(12.665 2.634)" fill="#263238" stroke="#263238" stroke-linecap="round" stroke-linejoin="round" stroke-width="0.883"/></g><rect width="195.038" height="364.599" transform="translate(9.529 28.375)" fill="none" stroke="#263238" stroke-linecap="round" stroke-linejoin="round" stroke-width="1"/></g><g transform="translate(63.181 548.122)"><line x2="495.118" transform="translate(27.131)" fill="none" stroke="#263238" stroke-linecap="round" stroke-linejoin="round" stroke-width="1.01"/><line x2="13.089" fill="none" stroke="#263238" stroke-linecap="round" stroke-linejoin="round" stroke-width="1.01"/></g></g></svg>