<svg xmlns="http://www.w3.org/2000/svg" width="45.947" height="46" viewBox="0 0 45.947 46"><path d="M27.338,0A18.895,18.895,0,0,0,12.824,31.005L.3,43.451,2.828,46,15.376,33.534A18.9,18.9,0,1,0,27.338,0Zm0,34.218A15.313,15.313,0,1,1,42.65,18.905,15.33,15.33,0,0,1,27.338,34.218Zm7.769-16.795a2.694,2.694,0,1,0-2.637-3.247l-1.423.758A5.4,5.4,0,0,0,29.172,13.8V12.162a2.694,2.694,0,1,0-3.592-.011V13.8a5.4,5.4,0,0,0-1.829,1.1l-1.368-.731A2.694,2.694,0,1,0,20.6,17.284l1.446.772a5.374,5.374,0,0,0,.015,1.72l-1.426.762a2.694,2.694,0,1,0,1.737,3.145l1.44-.769a5.392,5.392,0,0,0,1.765,1.041V25.57a2.694,2.694,0,1,0,3.592-.011v-1.6a5.4,5.4,0,0,0,1.812-1.081l1.493.794a2.694,2.694,0,1,0,1.755-3.135L32.7,19.716a5.351,5.351,0,0,0,.012-1.6l1.556-.828a2.69,2.69,0,0,0,.84.134Zm-7.73,3.248a1.8,1.8,0,1,1,1.8-1.8A1.8,1.8,0,0,1,27.376,20.671Z" transform="translate(-0.296)" fill="#7380f3"/></svg>