<svg xmlns="http://www.w3.org/2000/svg" width="59" height="59" viewBox="0 0 59 59"><defs><style>.a,.b{fill:#542344;}.a{opacity:0.29;}</style></defs><g transform="translate(-433 -4871)"><rect class="a" width="59" height="59" rx="10" transform="translate(433 4871)"/><g transform="translate(391 4887)"><path class="b" d="M131.727,0V4.192a9.2,9.2,0,0,1-1.858,5.462c-.949,1.291-1.215,2.372-.789,3.214a2.255,2.255,0,0,0,1.829,1.1,17.113,17.113,0,0,0,4.653-.777,18.794,18.794,0,0,1,4.024-.776c1.36-.147,2.259-.244,2.6-1.026a1.814,1.814,0,0,0-.418-1.736,9.2,9.2,0,0,1-1.858-5.462V0Zm8.724,10.623.022.03c-.295.052-.707.1-1.064.135a20.193,20.193,0,0,0-4.362.85l-.006,0a15.681,15.681,0,0,1-4.088.692c-.136-.021-.368-.1-.415-.211-.063-.143,0-.619.651-1.5a10.823,10.823,0,0,0,2.176-6.431V1.637h4.911V4.192a10.824,10.824,0,0,0,2.176,6.431Z" transform="translate(-64.179)"/><path class="b" d="M148.024,269.969v-4.192a9.2,9.2,0,0,1,1.858-5.462c.949-1.291,1.215-2.372.789-3.214a2.255,2.255,0,0,0-1.829-1.1,17.113,17.113,0,0,0-4.653.777,18.794,18.794,0,0,1-4.024.776c-1.36.147-2.259.244-2.6,1.026a1.814,1.814,0,0,0,.418,1.736,9.2,9.2,0,0,1,1.858,5.462v4.192ZM139.3,259.346l-.022-.03c.295-.052.707-.1,1.064-.135a20.191,20.191,0,0,0,4.362-.85l.006,0a15.679,15.679,0,0,1,4.088-.692c.136.021.368.1.415.211.063.143,0,.619-.651,1.5a10.823,10.823,0,0,0-2.176,6.431v2.555h-4.911v-2.555A10.823,10.823,0,0,0,139.3,259.346Z" transform="translate(-72.291 -242.031)"/><path class="b" d="M63,142.24a10.645,10.645,0,0,0,0,12.415l1.329-.956a9.008,9.008,0,0,1,0-10.5Z" transform="translate(0 -134.478)"/><path class="b" d="M391.371,154.655a10.645,10.645,0,0,0,0-12.415l-1.329.956a9.008,9.008,0,0,1,0,10.5Z" transform="translate(-311.087 -134.478)"/></g></g></svg>