<svg xmlns="http://www.w3.org/2000/svg" width="51" height="51" viewBox="0 0 51 51"><path d="M37.951,13.945A13.945,13.945,0,1,0,15.915,25.3,24.052,24.052,0,0,0,0,47.912H3.984A20.044,20.044,0,0,1,24.006,27.891,13.961,13.961,0,0,0,37.951,13.945ZM24.006,23.906a9.961,9.961,0,1,1,9.961-9.961A9.972,9.972,0,0,1,24.006,23.906ZM48.012,40.043a2.982,2.982,0,0,0-.95.155l-1.72-.916a5.935,5.935,0,0,0,.013-1.774l1.707-.909a2.988,2.988,0,1,0-1.97-3.465l-1.583.843a5.984,5.984,0,0,0-2.078-1.263v-1.8a2.988,2.988,0,1,0-3.984-.012v1.808a5.982,5.982,0,0,0-2.029,1.216L33.9,33.119a2.988,2.988,0,1,0-1.95,3.476l1.585.846a5.961,5.961,0,0,0,.016,1.908l-1.6.855A2.988,2.988,0,1,0,33.9,43.68l1.593-.85a5.981,5.981,0,0,0,1.958,1.154v1.808a2.988,2.988,0,1,0,3.984-.013v-1.8a5.984,5.984,0,0,0,2.01-1.2l1.651.879a2.988,2.988,0,1,0,2.921-3.62Zm-8.574.3A1.992,1.992,0,1,1,41.43,38.35,1.994,1.994,0,0,1,39.438,40.342Z" fill="#7380f3"/></svg>