<svg xmlns="http://www.w3.org/2000/svg" width="114" height="114" viewBox="0 0 114 114"><g transform="translate(-3223 -2497)"><circle cx="57" cy="57" r="57" transform="translate(3223 2497)" fill="#d5d9fb"/><g transform="translate(3089.848 2869.107)"><path d="M218.63-358.085c-.636-.2-1.293-.391-1.979-.551a26.555,26.555,0,0,0-3.747-.52,15.884,15.884,0,0,0-1.671.015c-.177.014-.353.028-.531.048a14.782,14.782,0,0,0-5.012,1.409c-.229.1-.452.215-.678.335l-.008.006a28.137,28.137,0,0,0-3.753,2.444c-.162.119-.326.247-.486.366l-.123.089c-2.739,2.015-4.511,3.061-6.59-1.078-2.125-4.236-1.47-10,.707-14.267l-9.853-2.318c-.026.175-.051.349-.08.54-.384,2.465-1.03,6.011-1.345,9.728-.418,4.958-.251,10.228,1.9,13.637,6.493,10.282,6.419,18.453,3.5,24.506a19.47,19.47,0,0,1-13.207,13.914,12.655,12.655,0,0,0-1.805-1.62,17.177,17.177,0,0,1-2.527.546c-4.672.6-9.43.03-14.1.639-4.861.633-7.8,2.513-9.659,5.183-2.889,4.125-3.19,10.127-4.028,16.271l7.628,1.794c-.238-4.015.539-8.635,2.444-11.49,1.859-2.8,4.631-3.371,7.474-2.749a18.341,18.341,0,0,1,7.837,4.266c10.586,9.429,15.7,19.6,32.068,17.085,7.7-1.183,14.106-5.4,19.161-11.3a47.784,47.784,0,0,0,4.136-5.649c12.894-20.4,16.454-54.153-5.671-61.278" transform="translate(0.055)" fill="#6776ff"/><path d="M224.415-319.659c-4.564,11.173-14.058,21.375-26.268,23.789a28.213,28.213,0,0,1-18.688-3.037c-4.941-2.6-9.559-6.645-15.157-7.758-5.636-1.121-10.726,1.89-14.26,6.084-3.372,3.336-4.23,7.712-4.739,12.217l-3.152-.741a33.156,33.156,0,0,1,3.9-15.056c2.888-5.253,7.355-9.329,13.36-10.48a17.889,17.889,0,0,1,14.131,2.954c.133.1.26.2.381.287a12.659,12.659,0,0,1,1.805,1.62A19.47,19.47,0,0,0,188.939-323.7a30.746,30.746,0,0,0-5.462-25.691,10.494,10.494,0,0,1-1.3-2.288c-2.441-5.806-.563-14.26,2.706-19.893a1.472,1.472,0,0,0,.08-.54l6.342,1.492c-.335-.079-1.444,3.995-1.532,4.406-1.459,6.6,1.954,12.494,3.163,13.4,2.756,2.063,5.046.416,7.763-1.635l.123-.089c.161-.119.324-.247.486-.366.144-.107.287-.215.431-.323a22.132,22.132,0,0,1,3.323-2.121l.008-.006c.226-.121.449-.233.678-.335a16.875,16.875,0,0,1,5.012-1.409c.177-.021.353-.035.531-.048a15.128,15.128,0,0,1,7.4,1.056l.114.051c10.027,10.539,10.868,25.517,5.617,38.375" transform="translate(0 0)" fill="#7380f3"/><path d="M215.065-349.214c10.156,6.414,4.585,27.965-.908,35.809-8.879,12.686-25.384,17.725-38.563,8.462a24.33,24.33,0,0,0,17.278-15.643c3.846-10.856-3.992-28.162,12.974-30.348a13.515,13.515,0,0,1,9.218,1.721" transform="translate(1.31 0.823)" fill="#8490ff"/><path d="M223.639-299.46a47.791,47.791,0,0,1-4.136,5.649c-5.055,5.905-11.459,10.119-19.161,11.3-16.37,2.512-21.482-7.657-32.068-17.085a18.341,18.341,0,0,0-7.837-4.266,11.523,11.523,0,0,1,6.551-.1c4.4,1.264,7.942,4.417,11.815,6.846a39.617,39.617,0,0,0,30.46,4.759,39.32,39.32,0,0,0,14.375-7.109" transform="translate(0.716 2.653)" fill="#5765de"/><path d="M180.9-355.1c-.058.812-.154,2.056-.193,3.424-2.441-5.806-.563-14.26,2.706-19.893.029-.191.054-.366.08-.54l3.487.82c-1.361,2.307-3.266,4.816-3.735,5.98a33.8,33.8,0,0,0-1.178,3.468A33.431,33.431,0,0,0,180.9-355.1" transform="translate(1.467)" fill="#95a0fd"/><path d="M173.4-313.841a6.588,6.588,0,0,1-.876.18,26.745,26.745,0,0,1-6.083-.36,24.956,24.956,0,0,0-13.833,2.8,26.3,26.3,0,0,0-3.422,2.113,25.556,25.556,0,0,0-3.277,2.793c2.888-5.253,7.355-9.329,13.36-10.48a17.889,17.889,0,0,1,14.131,2.954" transform="translate(0.147 2.152)" fill="#98a3ff"/></g></g></svg>