<svg xmlns="http://www.w3.org/2000/svg" width="97.375" height="19" viewBox="0 0 97.375 19"><defs><style>.a{fill:none;}.b{fill:#f8c55e;}</style></defs><g transform="translate(-486 -157)"><g transform="translate(486 157)"><path class="a" d="M0,0H19V19H0Z"/><path class="a" d="M0,0H19V19H0Z"/><g transform="translate(2.726 2.828)"><path class="b" d="M10.217,14.416,13.5,16.4a.79.79,0,0,0,1.18-.855l-.871-3.737,2.905-2.517a.79.79,0,0,0-.451-1.385l-3.824-.325-1.5-3.531a.792.792,0,0,0-1.457,0l-1.5,3.523L4.169,7.9a.79.79,0,0,0-.451,1.385L6.623,11.8l-.871,3.737a.79.79,0,0,0,1.18.855Z" transform="translate(-3.443 -3.573)"/></g></g><g transform="translate(505.792 157)"><path class="a" d="M0,0H19V19H0Z"/><path class="a" d="M0,0H19V19H0Z"/><g transform="translate(2.726 2.828)"><path class="b" d="M10.217,14.416,13.5,16.4a.79.79,0,0,0,1.18-.855l-.871-3.737,2.905-2.517a.79.79,0,0,0-.451-1.385l-3.824-.325-1.5-3.531a.792.792,0,0,0-1.457,0l-1.5,3.523L4.169,7.9a.79.79,0,0,0-.451,1.385L6.623,11.8l-.871,3.737a.79.79,0,0,0,1.18.855Z" transform="translate(-3.443 -3.573)"/></g></g><g transform="translate(525.583 157)"><path class="a" d="M0,0H19V19H0Z"/><path class="a" d="M0,0H19V19H0Z"/><g transform="translate(2.726 2.828)"><path class="b" d="M10.217,14.416,13.5,16.4a.79.79,0,0,0,1.18-.855l-.871-3.737,2.905-2.517a.79.79,0,0,0-.451-1.385l-3.824-.325-1.5-3.531a.792.792,0,0,0-1.457,0l-1.5,3.523L4.169,7.9a.79.79,0,0,0-.451,1.385L6.623,11.8l-.871,3.737a.79.79,0,0,0,1.18.855Z" transform="translate(-3.443 -3.573)"/></g></g><g transform="translate(544.583 157)"><path class="a" d="M0,0H19V19H0Z"/><path class="a" d="M0,0H19V19H0Z"/><g transform="translate(2.726 2.828)"><path class="b" d="M10.217,14.416,13.5,16.4a.79.79,0,0,0,1.18-.855l-.871-3.737,2.905-2.517a.79.79,0,0,0-.451-1.385l-3.824-.325-1.5-3.531a.792.792,0,0,0-1.457,0l-1.5,3.523L4.169,7.9a.79.79,0,0,0-.451,1.385L6.623,11.8l-.871,3.737a.79.79,0,0,0,1.18.855Z" transform="translate(-3.443 -3.573)"/></g></g><g transform="translate(564.375 157)"><path class="a" d="M0,0H19V19H0Z"/><path class="a" d="M0,0H19V19H0Z"/><g transform="translate(2.726 2.828)"><path class="b" d="M10.217,14.416,13.5,16.4a.79.79,0,0,0,1.18-.855l-.871-3.737,2.905-2.517a.79.79,0,0,0-.451-1.385l-3.824-.325-1.5-3.531a.792.792,0,0,0-1.457,0l-1.5,3.523L4.169,7.9a.79.79,0,0,0-.451,1.385L6.623,11.8l-.871,3.737a.79.79,0,0,0,1.18.855Z" transform="translate(-3.443 -3.573)"/></g></g></g></svg>