<svg xmlns="http://www.w3.org/2000/svg" width="59" height="59" viewBox="0 0 59 59"><g transform="translate(-1097 -4871)"><rect width="59" height="59" rx="10" transform="translate(1097 4871)" fill="#f97068" opacity="0.29"/><g transform="translate(834 4590)"><g transform="translate(237 255)"><g transform="translate(41 41)"><g transform="translate(12.077 20.8)"><path d="M231.063,359.052a.668.668,0,0,1-.389-.125l-9.394-6.71a.671.671,0,1,1,.78-1.092l9.394,6.71a.671.671,0,0,1-.391,1.217Z" transform="translate(-220.999 -351)" fill="#f97068"/></g><g transform="translate(9.394 0)"><path d="M193.749,69.852H181.671a.671.671,0,0,1-.671-.671v-.833a.671.671,0,1,1,1.342,0v.162h10.736V61.8a.671.671,0,0,1,.671-.671H197.1V55.761a.671.671,0,0,1,.671-.671h1.342v-.509a.671.671,0,1,1,1.342,0v1.18a.671.671,0,0,1-.671.671h-1.342V61.8a.671.671,0,0,1-.671.671H194.42v6.71A.671.671,0,0,1,193.749,69.852Zm-12.078-4.188a.671.671,0,0,1-.671-.671V55.728a.671.671,0,0,1,.737-.668c.2.02.4.03.6.03a6.04,6.04,0,0,0,2.86-11.359.671.671,0,0,1-.055-1.148A9.393,9.393,0,0,1,190.394,41h.671a9.354,9.354,0,0,1,9.394,9.394v.833a.671.671,0,1,1-1.342,0v-.833a7.966,7.966,0,0,0-8.052-8.052h-.671a8.093,8.093,0,0,0-3.589.83,7.381,7.381,0,0,1-4.463,13.261v8.561A.671.671,0,0,1,181.671,65.664Z" transform="translate(-181 -41)" fill="#f97068"/></g><g transform="translate(0 0.671)"><path d="M41.671,65.761a.671.671,0,0,1,0-1.342l9.394-.033a.677.677,0,0,1,.069,0c.2.02.4.03.6.03a6.039,6.039,0,1,0,0-12.078h-2.4a.671.671,0,1,1,0-1.342h2.4a7.381,7.381,0,1,1,0,14.761c-.233,0-.469-.011-.7-.033l-9.36.033Zm4.313-13.42H45.7A.671.671,0,0,1,45.7,51h.287a.671.671,0,1,1,0,1.342Z" transform="translate(-41 -51)" fill="#f97068"/></g><g transform="translate(12.077 17.445)"><path d="M228.379,307.037a.668.668,0,0,1-.384-.121l-6.71-4.7a.671.671,0,1,1,.77-1.1l6.71,4.7a.671.671,0,0,1-.385,1.221Z" transform="translate(-220.998 -300.999)" fill="#f97068"/></g><g transform="translate(7.381 4.361)"><path d="M155.16,112.71h-1.61a.671.671,0,0,1-.671-.671v-1.208h-1.208a.671.671,0,0,1-.671-.671v-1.61a.671.671,0,0,1,.671-.671h1.208v-1.208a.671.671,0,0,1,.671-.671h1.61a.671.671,0,0,1,.671.671v1.208h1.208a.671.671,0,0,1,.671.671v1.61a.671.671,0,0,1-.671.671h-1.208v1.208A.671.671,0,0,1,155.16,112.71Zm-.939-1.342h.268V110.16a.671.671,0,0,1,.671-.671h1.208v-.268H155.16a.671.671,0,0,1-.671-.671v-1.208h-.268v1.208a.671.671,0,0,1-.671.671h-1.208v.268h1.208a.671.671,0,0,1,.671.671Z" transform="translate(-151 -106)" fill="#f97068"/></g><rect width="1" height="1" transform="translate(5.399 6)" fill="#f97068"/><rect width="1" height="1" transform="translate(5.399 8)" fill="#f97068"/><rect width="1" height="1" transform="translate(3.399 6)" fill="#f97068"/><rect width="1" height="1" transform="translate(3.399 8)" fill="#f97068"/><rect width="1" height="1" transform="translate(1.399 6)" fill="#f97068"/><rect width="1" height="1" transform="translate(1.399 8)" fill="#f97068"/></g></g></g></g></svg>