<svg xmlns="http://www.w3.org/2000/svg" width="51.27" height="53.136" viewBox="0 0 51.27 53.136"><path d="M19.788,40.786H30.062v12.35H25.911v-8.2H19.788a6.234,6.234,0,0,1-6.227-6.227V32.8H13.4a4.4,4.4,0,0,1-3.913-6.417l4.695-9.117A22.911,22.911,0,0,1,22,4.978,22.354,22.354,0,0,1,36.169,0a22.835,22.835,0,0,1,2.492.156l-2.338,4-.185,0A18.528,18.528,0,0,0,18.162,18.46l-4.985,9.818a.25.25,0,0,0,.223.365h4.313V38.711a2.078,2.078,0,0,0,2.076,2.076ZM53.395,28.125a18.927,18.927,0,0,1-1.019,2.406,31.372,31.372,0,0,0-3.322,14.113v8.492h4.151V44.644A27.2,27.2,0,0,1,56.08,32.406a22.748,22.748,0,0,0,1.658-4.282ZM42.258,19.719,49.369,8.2H43.405L48.129,0H43.563L36.7,11.727h5.767l-4.78,7.991Zm12.664,4.255,5.341-8.718H54.3l3.01-5.4H52.742L47.6,18.784h5.767l-3.01,5.189Z" transform="translate(-8.993)" fill="#7380f3"/></svg>