<svg xmlns="http://www.w3.org/2000/svg" width="50" height="43.04" viewBox="0 0 50 43.04"><path d="M25,49.028a3.806,3.806,0,1,1-3.806,3.806A3.806,3.806,0,0,1,25,49.028ZM25,66.3c-6.605,0-13.418-4.5-20.25-13.371C11.583,44.059,18.4,39.561,25,39.561s13.418,4.5,20.25,13.371c.778,1.018,1.657,2.271,2.293,3.194l.122.062c.66-.914,2.335-3.257,2.335-3.257s-1.292-1.9-1.558-2.253a53.34,53.34,0,0,0-8.174-8.748C35.238,37.768,30.1,35.657,25,35.657S14.762,37.768,9.732,41.931a53.338,53.338,0,0,0-8.174,8.748C1.292,51.027,0,52.932,0,52.932s1.291,1.905,1.558,2.253a53.34,53.34,0,0,0,8.174,8.748c4.563,3.776,9.213,5.864,13.845,6.219a6.808,6.808,0,0,1,1.688-3.8L25.22,66.3C25.147,66.3,25.073,66.3,25,66.3Zm21.126-1.714-1.672.89a5.815,5.815,0,0,1-.013,1.738l1.685.9A2.928,2.928,0,1,1,44.2,71.508l-1.618-.861a5.862,5.862,0,0,1-1.969,1.175v1.759a2.928,2.928,0,1,1-3.9.012V71.823a5.856,5.856,0,0,1-1.918-1.131l-1.561.833a2.928,2.928,0,1,1-1.91-3.406l1.569-.838a5.84,5.84,0,0,1-.016-1.869l-1.553-.829a2.928,2.928,0,1,1,1.91-3.406l1.491.8A5.863,5.863,0,0,1,36.7,60.783V59.011a2.928,2.928,0,1,1,3.9.012v1.759a5.863,5.863,0,0,1,2.036,1.237l1.551-.826a2.929,2.929,0,1,1,1.93,3.395ZM40.608,66.3a1.952,1.952,0,1,0-1.952,1.952A1.954,1.954,0,0,0,40.608,66.3Zm-4.775-15.9A11.125,11.125,0,1,0,23.9,64a6.829,6.829,0,0,1-.127-3.956,7.226,7.226,0,1,1,8.3-5.634,7.065,7.065,0,0,1,3.766-4.006Z" transform="translate(0 -35.657)" fill="#7380f3"/></svg>