<svg xmlns="http://www.w3.org/2000/svg" width="49.27" height="49.27" viewBox="0 0 49.27 49.27"><path d="M32.246,40.208l-2.239,2.424a1.7,1.7,0,0,1,.506,1.183,1.554,1.554,0,0,1-.456,1.127,1.659,1.659,0,0,1-2.346-.034l-.273-.272a5.586,5.586,0,0,0-1.245-5.988,5.686,5.686,0,0,0-2.561-1.484,5.473,5.473,0,0,0-4.958-6.244,5.4,5.4,0,0,0-1.59-3.419,5.457,5.457,0,0,0-3.433-1.584A5.478,5.478,0,0,0,4.327,22.47l-2.688,2.6-.024.024A5.478,5.478,0,0,0,4.5,34.355a5.467,5.467,0,0,0,1.6,4.063,5.256,5.256,0,0,0,3.752,1.54h.082a5.438,5.438,0,0,0,5.407,4.712h.032c.108,0,.215-.005.322-.012a5.6,5.6,0,0,0,1.555,2.967,5.587,5.587,0,0,0,7.811.074,5.524,5.524,0,0,0,3.848,1.557,5.444,5.444,0,0,0,3.864-1.595,5.36,5.36,0,0,0,1.536-3.108,7.9,7.9,0,0,0-.026-2.3ZM4.353,30.124A1.629,1.629,0,0,1,4.366,27.8l2.683-2.6A1.617,1.617,0,0,1,9.3,27.512L6.643,30.129a1.629,1.629,0,0,1-2.29,0Zm4.489,5.53a1.594,1.594,0,0,1-.011-2.265l3.137-3.139a1.6,1.6,0,1,1,2.256,2.271l-3.141,3.125A1.594,1.594,0,0,1,8.842,35.654Zm5.4,4.654a1.635,1.635,0,0,1,.007-2.322l2.8-2.769a1.635,1.635,0,1,1,2.3,2.324l-2.8,2.774a1.635,1.635,0,0,1-2.3-.007Zm9.257,3.5-1.053,1.062a1.747,1.747,0,1,1-2.476-2.466l1.052-1.052A1.744,1.744,0,0,1,23.5,43.811Zm18.277-4.757a5.469,5.469,0,0,0,2.99-5.073,5.459,5.459,0,0,0,3.262-1.924,5.523,5.523,0,0,0-.419-7.389l-.008-.008L35.455,14.319V11.17H28.293l-5.761,5.792a1.941,1.941,0,0,1-2.777-2.711l5-5.211.009-.01A16.42,16.42,0,0,1,36.69,3.847H49.256V.012H36.69A20.279,20.279,0,0,0,24.331,4.239,20.136,20.136,0,0,0,11.848.014H8.189l3.848,3.848A16.357,16.357,0,0,1,21.473,6.9l-4.34,4.568a5.858,5.858,0,0,0-1.19,1.752L2.72,0,0,2.72,46.549,49.269l2.72-2.72Zm-1.329-3.73a1.826,1.826,0,0,1-2.456.164L23.563,20.842a5.78,5.78,0,0,0,1.7-1.179l4.628-4.646h.449L44.977,27.481a1.635,1.635,0,0,1-2.356,2.267l-.395-.395-2.72,2.72.939.939a1.637,1.637,0,0,1,0,2.312Z" fill="#7380f3"/></svg>