<svg xmlns="http://www.w3.org/2000/svg" width="54.097" height="54" viewBox="0 0 54.097 54"><path d="M39.02,18.9l-4.579-4.6,2.974-2.947L41.819,15.8l3-2.976L32.564.459l-3,2.976,4.876,4.918-2.981,2.953L26.634,6.462,7.032,25.943,8.4,34.052,0,41.886H5.917L11.04,37.3l8.422,1.037ZM12.546,33.225,11.564,27.4l2.776-2.759,2.77,2.741,2.973-3L17.338,21.66,20.315,18.7,23,21.358l2.973-3-2.66-2.633,3.306-3.286,6.421,6.447L17.94,33.89Zm38.381,9.612A3.164,3.164,0,0,0,49.919,43l-1.824-.971a6.3,6.3,0,0,0,.014-1.881l1.811-.964a3.17,3.17,0,1,0-2.09-3.675L46.15,36.4a6.347,6.347,0,0,0-2.2-1.339v-1.9a3.17,3.17,0,1,0-4.226-.013v1.917a6.346,6.346,0,0,0-2.152,1.29l-1.614-.862a3.17,3.17,0,1,0-2.068,3.687l1.681.9a6.323,6.323,0,0,0,.017,2.024l-1.7.907a3.17,3.17,0,1,0,2.068,3.687l1.689-.9a6.344,6.344,0,0,0,2.077,1.224v1.917a3.17,3.17,0,1,0,4.226-.013v-1.9a6.348,6.348,0,0,0,2.132-1.272l1.751.932a3.17,3.17,0,1,0,3.1-3.84Zm-9.094.317a2.113,2.113,0,1,1,2.113-2.113A2.116,2.116,0,0,1,41.833,43.154Z" transform="translate(0 -0.459)" fill="#7380f3"/></svg>