<svg xmlns="http://www.w3.org/2000/svg" width="45" height="45" viewBox="0 0 45 45"><path d="M24.472,43.412c-6.085-.154-9.527-3.79-12.3-6.725C10.009,34.406,8.589,33,6.807,32.98a4.588,4.588,0,0,0-1.824.613A2.883,2.883,0,0,0,3.6,36.3V45H0V37.156c0-7.205,2.286-9.91,4.429-11.88A10.583,10.583,0,0,1,10.811,22.5a10.718,10.718,0,0,1,5.279,1.389,6.114,6.114,0,0,0,3.07.9c.35,0,.438-.113.486-.174a2.305,2.305,0,0,0,.307-1.408l0-9.931c0-.484-.048-1.332-.371-1.57-.1-.076-.882-.844-1.1-1.081A15.386,15.386,0,0,1,14.238,0h3.516a11.772,11.772,0,0,0,3.3,8.228,1.48,1.48,0,0,0,2.091.07c2.037-1.9,5.233-4.427,9.452-4.431a11.848,11.848,0,0,1,7.914,3.359C43.49,10.132,45,14.561,45,20.391a27.69,27.69,0,0,1-.335,3.7,6.138,6.138,0,0,0-3.511-.329,25.75,25.75,0,0,0,.33-3.378c0-4.81-1.139-8.375-3.383-10.6a8.274,8.274,0,0,0-5.456-2.4h-.038c-2.982,0-5.46,1.99-7.064,3.486a4.972,4.972,0,0,1-2.157,1.186,8.816,8.816,0,0,1,.08,1.217l0,9.931a5.661,5.661,0,0,1-1.057,3.58A4.029,4.029,0,0,1,19.16,28.3a9.487,9.487,0,0,1-4.645-1.269,7.3,7.3,0,0,0-3.7-1.016,7.234,7.234,0,0,0-4,1.848,9.353,9.353,0,0,0-1.667,1.872,6.747,6.747,0,0,1,1.626-.271c3.405,0,5.717,2.443,7.953,4.806,1.9,2.007,3.846,4.063,6.61,5.042A6.173,6.173,0,0,0,24.472,43.412ZM41.542,32.3l-1.523.811a5.236,5.236,0,0,1-.012,1.565l1.5.8a2.637,2.637,0,1,1-1.718,3.068l-1.461-.777a5.279,5.279,0,0,1-1.773,1.058v1.569a2.636,2.636,0,1,1-3.516.011v-1.58a5.274,5.274,0,0,1-1.727-1.018l-1.409.752a2.636,2.636,0,1,1-1.7-3.078l1.4-.745a5.259,5.259,0,0,1-.014-1.683L28.171,32.3a2.637,2.637,0,1,1,1.741-3.056l1.339.715a5.278,5.278,0,0,1,1.79-1.073v-1.61a2.637,2.637,0,1,1,3.516.011v1.6A5.279,5.279,0,0,1,38.389,30l1.393-.741A2.637,2.637,0,1,1,41.542,32.3Zm-4.985,1.552A1.758,1.758,0,1,0,34.8,35.61,1.76,1.76,0,0,0,36.556,33.853Z" fill="#7380f3"/></svg>