<svg xmlns="http://www.w3.org/2000/svg" width="47" height="47" viewBox="0 0 47 47"><path d="M41.492,25.979H21.586a5.516,5.516,0,0,0-5.43-4.59H5.508a5.482,5.482,0,0,0-1.836.316V10.924H0V47H3.672V43.328H43.328V47H47V31.486A5.514,5.514,0,0,0,41.492,25.979Zm1.836,5.508v8.17H21.664V29.65H41.492A1.838,1.838,0,0,1,43.328,31.486ZM3.672,26.9a1.838,1.838,0,0,1,1.836-1.836H16.156A1.838,1.838,0,0,1,17.992,26.9V29.65H3.672Zm0,6.426h14.32v6.334H3.672Zm40.574-20.1a2.749,2.749,0,0,0-.876.143l-1.585-.844a5.47,5.47,0,0,0,.012-1.635l1.573-.837a2.754,2.754,0,1,0-1.816-3.193L40.1,7.63a5.514,5.514,0,0,0-1.915-1.164V4.812A2.754,2.754,0,1,0,34.509,4.8V6.466a5.513,5.513,0,0,0-1.87,1.121l-1.4-.749a2.754,2.754,0,1,0-1.8,3.2l1.46.78a5.493,5.493,0,0,0,.015,1.758l-1.475.788a2.754,2.754,0,1,0,1.8,3.2l1.468-.784a5.51,5.51,0,0,0,1.8,1.064v1.666a2.754,2.754,0,1,0,3.672-.011V16.85a5.512,5.512,0,0,0,1.852-1.105l1.522.81a2.754,2.754,0,1,0,2.692-3.336Zm-7.9.275a1.836,1.836,0,1,1,1.836-1.836A1.838,1.838,0,0,1,36.345,13.494Z" fill="#7380f3"/></svg>