<svg xmlns="http://www.w3.org/2000/svg" width="59" height="59" viewBox="0 0 59 59"><defs><style>.a{fill:#ffd6ba;opacity:0.29;}.b{fill:#efb38b;}</style></defs><g transform="translate(-654 -4871)"><rect class="a" width="59" height="59" rx="10" transform="translate(654 4871)"/><g transform="translate(641 4887)"><path class="b" d="M34.233,20.808a4.888,4.888,0,0,0-.122,1.073,4.665,4.665,0,0,0,8.556,2.577,4.665,4.665,0,0,0,8.556-2.577,4.888,4.888,0,0,0-.122-1.073,4.645,4.645,0,0,0,3.233-4.423,4.6,4.6,0,0,0-1.2-3.111,4.6,4.6,0,0,0,1.2-3.111A4.645,4.645,0,0,0,51.1,5.74a4.888,4.888,0,0,0,.122-1.073A4.665,4.665,0,0,0,42.667,2.09a4.665,4.665,0,0,0-8.556,2.577,4.888,4.888,0,0,0,.122,1.073A4.645,4.645,0,0,0,31,10.163a4.6,4.6,0,0,0,1.2,3.111A4.6,4.6,0,0,0,31,16.385,4.645,4.645,0,0,0,34.233,20.808ZM49.662,19.5h-1.55v1.556h1.447a3.363,3.363,0,0,1,.109.83,3.111,3.111,0,1,1-6.222,0V18.719H41.111a.778.778,0,0,1,0-1.556h2.333V14.052H45v.778a2.333,2.333,0,1,0,4.667,0v-.778H51.7a3.069,3.069,0,0,1,1.074,2.333C52.778,19.441,49.695,19.48,49.662,19.5ZM46.556,1.556a3.115,3.115,0,0,1,3.111,3.111,3.363,3.363,0,0,1-.109.83H48.111V7.052h1.55c.005,0,3.116.161,3.116,3.111A3.069,3.069,0,0,1,51.7,12.5H48.111V14.83a.778.778,0,1,1-1.556,0V12.5H43.444V10.941h.778a2.333,2.333,0,0,0,0-4.667h-.778V4.667A3.115,3.115,0,0,1,46.556,1.556Zm-10.884,5.5h1.55V5.5H35.775a3.363,3.363,0,0,1-.109-.83,3.111,3.111,0,1,1,6.222,0V7.83h2.333a.778.778,0,0,1,0,1.556H41.889V12.5H40.333v-.778a2.333,2.333,0,1,0-4.667,0V12.5H33.629a3.069,3.069,0,0,1-1.074-2.333c0-3.056,3.083-3.095,3.116-3.111Zm-2.042,7h3.593V11.719a.778.778,0,1,1,1.556,0v2.333h3.111v1.556h-.778a2.333,2.333,0,0,0,0,4.667h.778v1.607a3.111,3.111,0,1,1-6.222,0,3.363,3.363,0,0,1,.109-.83h1.447V19.5h-1.55c-.005,0-3.116-.161-3.116-3.111A3.069,3.069,0,0,1,33.629,14.052Z"/></g></g></svg>