<svg width="13" height="12" viewBox="0 0 13 12" fill="none" xmlns="http://www.w3.org/2000/svg">
<path d="M6.2306 9.86699L2.97659 11.8264C2.88329 11.8847 2.78415 11.9109 2.67918 11.9051C2.57421 11.8993 2.48091 11.8672 2.39927 11.8089C2.31763 11.7506 2.25639 11.6748 2.21557 11.5815C2.17475 11.4882 2.166 11.3832 2.18933 11.2666L3.04657 7.55769L0.177446 5.05596C0.0841409 4.97431 0.028741 4.88393 0.0112463 4.78479C-0.00624787 4.68565 -0.00333248 4.58943 0.0199939 4.49613C0.0433203 4.40282 0.0958039 4.3241 0.177446 4.25995C0.259087 4.1958 0.358224 4.1579 0.474855 4.14623L4.2712 3.81384L5.74075 0.314904C5.7874 0.209936 5.85738 0.13121 5.95068 0.0787258C6.04399 0.0262423 6.13729 0 6.2306 0C6.3239 0 6.41721 0.0262423 6.51051 0.0787258C6.60382 0.13121 6.67379 0.209936 6.72045 0.314904L8.19 3.81384L11.9863 4.14623C12.103 4.1579 12.2021 4.1958 12.2837 4.25995C12.3654 4.3241 12.4179 4.40282 12.4412 4.49613C12.4645 4.58943 12.4674 4.68565 12.4499 4.78479C12.4325 4.88393 12.3771 4.97431 12.2837 5.05596L9.41463 7.55769L10.2719 11.2666C10.2952 11.3832 10.2864 11.4882 10.2456 11.5815C10.2048 11.6748 10.1436 11.7506 10.0619 11.8089C9.98029 11.8672 9.88698 11.8993 9.78201 11.9051C9.67704 11.9109 9.57791 11.8847 9.4846 11.8264L6.2306 9.86699Z" fill="#00D4FF"/>
</svg>
