<svg width="81" height="12" viewBox="0 0 81 12" fill="none" xmlns="http://www.w3.org/2000/svg">
<path d="M6.2306 9.86699L2.97659 11.8264C2.88329 11.8847 2.78415 11.9109 2.67918 11.9051C2.57421 11.8993 2.48091 11.8672 2.39927 11.8089C2.31763 11.7506 2.25639 11.6748 2.21557 11.5815C2.17475 11.4882 2.166 11.3832 2.18933 11.2666L3.04657 7.55769L0.177446 5.05596C0.0841409 4.97431 0.028741 4.88393 0.0112463 4.78479C-0.00624787 4.68565 -0.00333248 4.58943 0.0199939 4.49613C0.0433203 4.40282 0.0958039 4.3241 0.177446 4.25995C0.259087 4.1958 0.358224 4.1579 0.474855 4.14623L4.2712 3.81384L5.74075 0.314904C5.7874 0.209936 5.85738 0.13121 5.95068 0.0787258C6.04399 0.0262423 6.13729 0 6.2306 0C6.3239 0 6.41721 0.0262423 6.51051 0.0787258C6.60382 0.13121 6.67379 0.209936 6.72045 0.314904L8.19 3.81384L11.9863 4.14623C12.103 4.1579 12.2021 4.1958 12.2837 4.25995C12.3654 4.3241 12.4179 4.40282 12.4412 4.49613C12.4645 4.58943 12.4674 4.68565 12.4499 4.78479C12.4325 4.88393 12.3771 4.97431 12.2837 5.05596L9.41463 7.55769L10.2719 11.2666C10.2952 11.3832 10.2864 11.4882 10.2456 11.5815C10.2048 11.6748 10.1436 11.7506 10.0619 11.8089C9.98029 11.8672 9.88698 11.8993 9.78201 11.9051C9.67704 11.9109 9.57791 11.8847 9.4846 11.8264L6.2306 9.86699Z" fill="#00D4FF"/>
<path d="M23.2306 9.86699L19.9766 11.8264C19.8833 11.8847 19.7841 11.9109 19.6792 11.9051C19.5742 11.8993 19.4809 11.8672 19.3993 11.8089C19.3176 11.7506 19.2564 11.6748 19.2156 11.5815C19.1748 11.4882 19.166 11.3832 19.1893 11.2666L20.0466 7.55769L17.1774 5.05596C17.0841 4.97431 17.0287 4.88393 17.0112 4.78479C16.9938 4.68565 16.9967 4.58943 17.02 4.49613C17.0433 4.40282 17.0958 4.3241 17.1774 4.25995C17.2591 4.1958 17.3582 4.1579 17.4749 4.14623L21.2712 3.81384L22.7407 0.314904C22.7874 0.209936 22.8574 0.13121 22.9507 0.0787258C23.044 0.0262423 23.1373 0 23.2306 0C23.3239 0 23.4172 0.0262423 23.5105 0.0787258C23.6038 0.13121 23.6738 0.209936 23.7204 0.314904L25.19 3.81384L28.9863 4.14623C29.103 4.1579 29.2021 4.1958 29.2837 4.25995C29.3654 4.3241 29.4179 4.40282 29.4412 4.49613C29.4645 4.58943 29.4674 4.68565 29.4499 4.78479C29.4325 4.88393 29.3771 4.97431 29.2837 5.05596L26.4146 7.55769L27.2719 11.2666C27.2952 11.3832 27.2864 11.4882 27.2456 11.5815C27.2048 11.6748 27.1436 11.7506 27.0619 11.8089C26.9803 11.8672 26.887 11.8993 26.782 11.9051C26.677 11.9109 26.5779 11.8847 26.4846 11.8264L23.2306 9.86699Z" fill="#00D4FF"/>
<path d="M40.2306 9.86699L36.9766 11.8264C36.8833 11.8847 36.7841 11.9109 36.6792 11.9051C36.5742 11.8993 36.4809 11.8672 36.3993 11.8089C36.3176 11.7506 36.2564 11.6748 36.2156 11.5815C36.1748 11.4882 36.166 11.3832 36.1893 11.2666L37.0466 7.55769L34.1774 5.05596C34.0841 4.97431 34.0287 4.88393 34.0112 4.78479C33.9938 4.68565 33.9967 4.58943 34.02 4.49613C34.0433 4.40282 34.0958 4.3241 34.1774 4.25995C34.2591 4.1958 34.3582 4.1579 34.4749 4.14623L38.2712 3.81384L39.7407 0.314904C39.7874 0.209936 39.8574 0.13121 39.9507 0.0787258C40.044 0.0262423 40.1373 0 40.2306 0C40.3239 0 40.4172 0.0262423 40.5105 0.0787258C40.6038 0.13121 40.6738 0.209936 40.7204 0.314904L42.19 3.81384L45.9863 4.14623C46.103 4.1579 46.2021 4.1958 46.2837 4.25995C46.3654 4.3241 46.4179 4.40282 46.4412 4.49613C46.4645 4.58943 46.4674 4.68565 46.4499 4.78479C46.4325 4.88393 46.3771 4.97431 46.2837 5.05596L43.4146 7.55769L44.2719 11.2666C44.2952 11.3832 44.2864 11.4882 44.2456 11.5815C44.2048 11.6748 44.1436 11.7506 44.0619 11.8089C43.9803 11.8672 43.887 11.8993 43.782 11.9051C43.677 11.9109 43.5779 11.8847 43.4846 11.8264L40.2306 9.86699Z" fill="#00D4FF"/>
<path d="M57.2306 9.86699L53.9766 11.8264C53.8833 11.8847 53.7841 11.9109 53.6792 11.9051C53.5742 11.8993 53.4809 11.8672 53.3993 11.8089C53.3176 11.7506 53.2564 11.6748 53.2156 11.5815C53.1748 11.4882 53.166 11.3832 53.1893 11.2666L54.0466 7.55769L51.1774 5.05596C51.0841 4.97431 51.0287 4.88393 51.0112 4.78479C50.9938 4.68565 50.9967 4.58943 51.02 4.49613C51.0433 4.40282 51.0958 4.3241 51.1774 4.25995C51.2591 4.1958 51.3582 4.1579 51.4749 4.14623L55.2712 3.81384L56.7407 0.314904C56.7874 0.209936 56.8574 0.13121 56.9507 0.0787258C57.044 0.0262423 57.1373 0 57.2306 0C57.3239 0 57.4172 0.0262423 57.5105 0.0787258C57.6038 0.13121 57.6738 0.209936 57.7204 0.314904L59.19 3.81384L62.9863 4.14623C63.103 4.1579 63.2021 4.1958 63.2837 4.25995C63.3654 4.3241 63.4179 4.40282 63.4412 4.49613C63.4645 4.58943 63.4674 4.68565 63.4499 4.78479C63.4325 4.88393 63.3771 4.97431 63.2837 5.05596L60.4146 7.55769L61.2719 11.2666C61.2952 11.3832 61.2864 11.4882 61.2456 11.5815C61.2048 11.6748 61.1436 11.7506 61.0619 11.8089C60.9803 11.8672 60.887 11.8993 60.782 11.9051C60.677 11.9109 60.5779 11.8847 60.4846 11.8264L57.2306 9.86699Z" fill="#00D4FF"/>
<path d="M74.2306 9.86699L70.9766 11.8264C70.8833 11.8847 70.7841 11.9109 70.6792 11.9051C70.5742 11.8993 70.4809 11.8672 70.3993 11.8089C70.3176 11.7506 70.2564 11.6748 70.2156 11.5815C70.1748 11.4882 70.166 11.3832 70.1893 11.2666L71.0466 7.55769L68.1774 5.05596C68.0841 4.97431 68.0287 4.88393 68.0112 4.78479C67.9938 4.68565 67.9967 4.58943 68.02 4.49613C68.0433 4.40282 68.0958 4.3241 68.1774 4.25995C68.2591 4.1958 68.3582 4.1579 68.4749 4.14623L72.2712 3.81384L73.7407 0.314904C73.7874 0.209936 73.8574 0.13121 73.9507 0.0787258C74.044 0.0262423 74.1373 0 74.2306 0C74.3239 0 74.4172 0.0262423 74.5105 0.0787258C74.6038 0.13121 74.6738 0.209936 74.7204 0.314904L76.19 3.81384L79.9863 4.14623C80.103 4.1579 80.2021 4.1958 80.2837 4.25995C80.3654 4.3241 80.4179 4.40282 80.4412 4.49613C80.4645 4.58943 80.4674 4.68565 80.4499 4.78479C80.4325 4.88393 80.3771 4.97431 80.2837 5.05596L77.4146 7.55769L78.2719 11.2666C78.2952 11.3832 78.2864 11.4882 78.2456 11.5815C78.2048 11.6748 78.1436 11.7506 78.0619 11.8089C77.9803 11.8672 77.887 11.8993 77.782 11.9051C77.677 11.9109 77.5779 11.8847 77.4846 11.8264L74.2306 9.86699Z" fill="#00D4FF"/>
</svg>
