<svg width="19" height="18" viewBox="0 0 19 18" fill="none" xmlns="http://www.w3.org/2000/svg">
<circle cx="9.5" cy="8.5" r="5.5" fill="white"/>
<path d="M4.80098 15.2529L2.10722 14.7098C1.94791 14.6808 1.81395 14.5976 1.70533 14.46C1.59671 14.3224 1.55688 14.1667 1.58585 13.9929L1.88998 11.386L0.173791 9.38744C0.0579305 9.27158 0 9.12676 0 8.95297C0 8.77918 0.0579305 8.63435 0.173791 8.51849L1.88998 6.54161L1.58585 3.93474C1.55688 3.76095 1.59671 3.60526 1.70533 3.46768C1.81395 3.33009 1.94791 3.24682 2.10722 3.21785L4.80098 2.67476L6.14787 0.350298C6.23476 0.205472 6.35786 0.104094 6.51717 0.0461633C6.67648 -0.0117672 6.83579 -0.0045257 6.9951 0.0678873L9.36301 1.17581L11.7309 0.0678873C11.8902 -0.00452594 12.0532 -0.0190084 12.2197 0.0244395C12.3862 0.0678873 12.5057 0.169265 12.5781 0.328574L13.9468 2.67476L16.6188 3.21785C16.7781 3.24682 16.9121 3.33009 17.0207 3.46768C17.1293 3.60526 17.1691 3.76095 17.1402 3.93474L16.836 6.54161L18.5522 8.51849C18.6681 8.63435 18.726 8.77918 18.726 8.95297C18.726 9.12676 18.6681 9.27158 18.5522 9.38744L16.836 11.386L17.1402 13.9929C17.1691 14.1667 17.1293 14.3224 17.0207 14.46C16.9121 14.5976 16.7781 14.6808 16.6188 14.7098L13.9467 15.2529L12.5781 17.5774C12.5057 17.7367 12.3862 17.838 12.2197 17.8815C12.0531 17.9249 11.8902 17.9105 11.7309 17.838L9.36301 16.7301L6.9951 17.838C6.83579 17.9105 6.67648 17.9177 6.51717 17.8598C6.35786 17.8018 6.23476 17.7005 6.14787 17.5556L4.80098 15.2529ZM7.97268 11.386C8.10302 11.5164 8.25509 11.5816 8.42888 11.5816C8.60267 11.5816 8.75473 11.5164 8.88508 11.386L12.904 7.41057C13.0199 7.29471 13.0742 7.14626 13.0669 6.96523C13.0597 6.7842 12.9909 6.62851 12.8606 6.49816C12.7302 6.36782 12.5745 6.30627 12.3935 6.31351C12.2125 6.32075 12.0495 6.38955 11.9047 6.51989L8.42888 9.97399L6.84303 8.30125C6.71269 8.15642 6.54976 8.08763 6.35424 8.09487C6.15873 8.10211 5.9958 8.17815 5.86546 8.32297C5.73511 8.4678 5.66632 8.63435 5.65908 8.82262C5.65184 9.0109 5.72063 9.17021 5.86546 9.30055L7.97268 11.386Z" fill="#0044FF"/>
</svg>
