<svg xmlns="http://www.w3.org/2000/svg" width="59" height="59" viewBox="0 0 59 59"><defs><style>.a,.b{fill:#625f63;}.a{opacity:0.29;}</style></defs><g transform="translate(-1097 -4871)"><rect class="a" width="59" height="59" rx="10" transform="translate(1097 4871)"/><g transform="translate(1113 4886)"><g transform="translate(2 16.722)"><path class="b" d="M24.1,25.944H3.792A1.794,1.794,0,0,1,2,24.153V19.375A5.382,5.382,0,0,1,7.375,14H20.514a5.382,5.382,0,0,1,5.375,5.375v4.778A1.794,1.794,0,0,1,24.1,25.944ZM7.375,15.194a4.185,4.185,0,0,0-4.181,4.181v4.778a.6.6,0,0,0,.6.6H24.1a.6.6,0,0,0,.6-.6V19.375a4.185,4.185,0,0,0-4.181-4.181Z" transform="translate(-2 -14)"/></g><g transform="translate(9.167 4.778)"><path class="b" d="M12.778,13.556A4.783,4.783,0,0,1,8,8.778a.6.6,0,0,1,.6-.6A3.434,3.434,0,0,0,12.181,4.6a.6.6,0,1,1,1.194,0,3.434,3.434,0,0,0,3.583,3.583.6.6,0,0,1,.6.6A4.783,4.783,0,0,1,12.778,13.556ZM9.239,9.34a3.584,3.584,0,0,0,7.078,0A4.461,4.461,0,0,1,12.778,7,4.461,4.461,0,0,1,9.239,9.34Z" transform="translate(-8 -4)"/></g><g transform="translate(6.778)"><path class="b" d="M18.542,14.333H7.792A1.794,1.794,0,0,1,6,12.542V7.167a7.167,7.167,0,0,1,14.333,0v5.375A1.794,1.794,0,0,1,18.542,14.333ZM13.167,1.194A5.979,5.979,0,0,0,7.194,7.167v5.375a.6.6,0,0,0,.6.6h10.75a.6.6,0,0,0,.6-.6V7.167A5.979,5.979,0,0,0,13.167,1.194Z" transform="translate(-6)"/></g><g transform="translate(5.583 22.694)"><path class="b" d="M16.347,24.972H7.986a.6.6,0,1,1,0-1.194h7.721a4.186,4.186,0,0,0-4.138-3.583H5.6A.6.6,0,1,1,5.6,19h5.972a5.382,5.382,0,0,1,5.375,5.375.6.6,0,0,1-.6.6Z" transform="translate(-5 -19)"/></g><g transform="translate(6.18 16.722)"><path class="b" d="M8.486,25.944a.6.6,0,0,1-.583-.468L5.514,14.726a.6.6,0,0,1,1.167-.259L9.07,25.217a.6.6,0,0,1-.454.713.612.612,0,0,1-.13.014Z" transform="translate(-5.5 -14)"/></g><g transform="translate(12.749 16.721)"><path class="b" d="M11.6,21.167a.584.584,0,0,1-.118-.012.6.6,0,0,1-.468-.7l1.194-5.972a.6.6,0,1,1,1.171.233l-1.194,5.972A.594.594,0,0,1,11.6,21.167Z" transform="translate(-10.999 -13.999)"/></g></g></g></svg>