<svg xmlns="http://www.w3.org/2000/svg" width="59" height="59" viewBox="0 0 59 59"><g transform="translate(-101 -4871)"><rect width="59" height="59" rx="10" transform="translate(101 4871)" fill="#bee3db" opacity="0.29"/><g transform="translate(88.383 4883)"><path d="M47.762,32.923A14.962,14.962,0,1,1,62.723,17.962,14.962,14.962,0,0,1,47.762,32.923Zm0-28.173A13.212,13.212,0,1,0,60.973,17.962,13.212,13.212,0,0,0,47.762,4.75Z" transform="translate(-5.183)" fill="#57bcaa"/><path d="M54.556,27.187c-2.03,0-5.311-2.012-8.426-5.18-3.684-3.736-6.553-8.575-4.908-10.6a2.074,2.074,0,0,1,1.592-.744c2.03-.131,5.381,1.925,8.566,5.171,3.684,3.736,6.553,8.575,4.908,10.6a2.074,2.074,0,0,1-1.592.744ZM42.972,12.4H42.9a.481.481,0,0,0-.324.1c-.516.639.717,4.13,4.795,8.277,3.027,3.08,5.871,4.655,7.166,4.655h.07a.481.481,0,0,0,.324-.1c.516-.639-.717-4.13-4.795-8.277C47.093,13.975,44.267,12.4,42.972,12.4Z" transform="translate(-6.177 -0.957)" fill="#57bcaa"/><path d="M42.955,27.189h-.14a2.074,2.074,0,0,1-1.592-.744c-1.645-2.03,1.225-6.868,4.908-10.6,3.185-3.246,6.536-5.25,8.566-5.171a2.074,2.074,0,0,1,1.592.744c1.645,2.03-1.225,6.868-4.908,10.6h0C48.265,25.176,44.984,27.189,42.955,27.189ZM54.539,12.4c-1.295,0-4.139,1.575-7.166,4.655C43.3,21.2,42.062,24.7,42.578,25.334a.481.481,0,0,0,.324.1c1.26.087,4.147-1.522,7.236-4.655h0c4.086-4.147,5.311-7.638,4.795-8.277a.481.481,0,0,0-.324-.1Z" transform="translate(-6.177 -0.959)" fill="#57bcaa"/></g></g></svg>