<svg xmlns="http://www.w3.org/2000/svg" width="36.999" height="23.94" viewBox="0 0 36.999 23.94"><path d="M6.922,9.44a8.171,8.171,0,0,1,1.81-.2c4.822,0,8.73,4.187,8.73,9.35s-3.908,9.352-8.73,9.352S0,23.755,0,18.589c0-.151,0-.3.011-.455H0C0,10.341,5.92,4,13.2,4V7.139a9.79,9.79,0,0,0-6.274,2.3Zm19.539,0a8.134,8.134,0,0,1,1.807-.2c4.822,0,8.732,4.187,8.732,9.35s-3.91,9.352-8.732,9.352-8.73-4.186-8.73-9.352c0-.151,0-.3.011-.455h-.011C19.537,10.341,25.457,4,32.734,4V7.139a9.787,9.787,0,0,0-6.274,2.3Z" transform="translate(0 -4)" fill="#7380f3" fill-rule="evenodd"/></svg>